<svg width="26" height="13" viewBox="0 0 26 13" fill="none" xmlns="http://www.w3.org/2000/svg">
<path fill-rule="evenodd" clip-rule="evenodd" d="M19.9519 0.523848L25.2553 5.82718C25.5807 6.1526 25.5807 6.68027 25.2553 7.00568L19.9519 12.309C19.6265 12.6344 19.0989 12.6344 18.7734 12.309C18.448 11.9835 18.448 11.4559 18.7734 11.1305L22.6542 7.24977H5.49935C5.0391 7.24977 4.66602 6.87668 4.66602 6.41643C4.66602 5.95618 5.0391 5.5831 5.49935 5.5831H22.6542L18.7734 1.70235C18.448 1.37693 18.448 0.849348 18.7734 0.523848C19.0989 0.198431 19.6265 0.198431 19.9519 0.523848Z" fill="#743ADC"/>
<path fill-rule="evenodd" clip-rule="evenodd" d="M18.5967 0.347342C19.0198 -0.0757415 19.7057 -0.0757415 20.1288 0.347342L25.432 5.65068C25.8551 6.07368 25.8551 6.75968 25.432 7.18268L20.1288 12.486C19.7057 12.9091 19.0198 12.9091 18.5967 12.486C18.1736 12.0629 18.1736 11.377 18.5967 10.9539L22.0506 7.50001H5.49935C4.90102 7.50001 4.41602 7.01501 4.41602 6.41668C4.41602 5.81834 4.90102 5.33334 5.49935 5.33334H22.0506L18.5967 1.87943C18.1736 1.45634 18.1736 0.770425 18.5967 0.347342ZM19.7752 0.700926C19.5473 0.473093 19.178 0.473093 18.9503 0.700926C18.7224 0.928676 18.7224 1.29801 18.9503 1.52584L22.8309 5.40659C22.9024 5.47809 22.9238 5.58559 22.8851 5.67901C22.8464 5.77243 22.7553 5.83334 22.6542 5.83334H5.49935C5.17718 5.83334 4.91602 6.09451 4.91602 6.41668C4.91602 6.73884 5.17718 7.00001 5.49935 7.00001H22.6542C22.7553 7.00001 22.8464 7.06093 22.8851 7.15434C22.9238 7.24776 22.9024 7.35526 22.8309 7.42676L18.9503 11.3075C18.7224 11.5353 18.7224 11.9047 18.9503 12.1324C19.178 12.3603 19.5473 12.3603 19.7752 12.1324L25.0785 6.82918C25.3063 6.60134 25.3063 6.23201 25.0785 6.00418L19.7752 0.700926Z" fill="#743ADC"/>
<path d="M2.16667 6.41658C2.16667 6.87683 1.79358 7.24992 1.33333 7.24992C0.873083 7.24992 0.5 6.87683 0.5 6.41658C0.5 5.95633 0.873083 5.58325 1.33333 5.58325C1.79358 5.58325 2.16667 5.95633 2.16667 6.41658Z" fill="#743ADC"/>
<path fill-rule="evenodd" clip-rule="evenodd" d="M1.33333 5.8335C1.01117 5.8335 0.75 6.09466 0.75 6.41683C0.75 6.739 1.01117 7.00016 1.33333 7.00016C1.6555 7.00016 1.91667 6.739 1.91667 6.41683C1.91667 6.09466 1.6555 5.8335 1.33333 5.8335ZM0.25 6.41683C0.25 5.8185 0.735 5.3335 1.33333 5.3335C1.93167 5.3335 2.41667 5.8185 2.41667 6.41683C2.41667 7.01516 1.93167 7.50016 1.33333 7.50016C0.735 7.50016 0.25 7.01516 0.25 6.41683Z" fill="#743ADC"/>
</svg>
