<svg width="45" height="46" viewBox="0 0 45 46" fill="none" xmlns="http://www.w3.org/2000/svg">
<g clip-path="url(#clip0_11261_51060)">
<path d="M22.5 45.5C34.9264 45.5 45 35.4264 45 23C45 10.5736 34.9264 0.5 22.5 0.5C10.0736 0.5 0 10.5736 0 23C0 35.4264 10.0736 45.5 22.5 45.5Z" fill="white"/>
<path fill-rule="evenodd" clip-rule="evenodd" d="M29.4529 17.5234L34.7562 22.8267C35.0817 23.1521 35.0817 23.6798 34.7562 24.0052L29.4529 29.3085C29.1275 29.6339 28.5999 29.6339 28.2744 29.3085C27.949 28.983 27.949 28.4554 28.2744 28.13L32.1552 24.2493H15.0003C14.5401 24.2493 14.167 23.8762 14.167 23.4159C14.167 22.9557 14.5401 22.5826 15.0003 22.5826H32.1552L28.2744 18.7019C27.949 18.3764 27.949 17.8489 28.2744 17.5234C28.5999 17.1979 29.1275 17.1979 29.4529 17.5234Z" fill="#743ADC"/>
<path fill-rule="evenodd" clip-rule="evenodd" d="M28.0977 17.3466C28.5207 16.9235 29.2067 16.9235 29.6297 17.3466L34.933 22.6499C35.3561 23.0729 35.3561 23.7589 34.933 24.1819L29.6297 29.4853C29.2067 29.9084 28.5207 29.9084 28.0977 29.4853C27.6746 29.0622 27.6746 28.3763 28.0977 27.9532L31.5516 24.4993H15.0003C14.402 24.4993 13.917 24.0143 13.917 23.4159C13.917 22.8176 14.402 22.3326 15.0003 22.3326H31.5516L28.0977 18.8787C27.6746 18.4556 27.6746 17.7697 28.0977 17.3466ZM29.2762 17.7002C29.0483 17.4724 28.679 17.4724 28.4512 17.7002C28.2234 17.9279 28.2234 18.2973 28.4512 18.5251L32.3319 22.4059C32.4034 22.4774 32.4248 22.5849 32.3861 22.6783C32.3474 22.7717 32.2562 22.8326 32.1552 22.8326H15.0003C14.6782 22.8326 14.417 23.0938 14.417 23.4159C14.417 23.7381 14.6782 23.9993 15.0003 23.9993H32.1552C32.2562 23.9993 32.3474 24.0602 32.3861 24.1536C32.4248 24.247 32.4034 24.3545 32.3319 24.426L28.4512 28.3068C28.2234 28.5346 28.2234 28.9039 28.4512 29.1317C28.679 29.3595 29.0483 29.3595 29.2762 29.1317L34.5795 23.8284C34.8072 23.6006 34.8072 23.2313 34.5795 23.0034L29.2762 17.7002Z" fill="#743ADC"/>
<path d="M11.6667 23.4173C11.6667 23.8776 11.2936 24.2506 10.8333 24.2506C10.3731 24.2506 10 23.8776 10 23.4173C10 22.9571 10.3731 22.584 10.8333 22.584C11.2936 22.584 11.6667 22.9571 11.6667 23.4173Z" fill="#743ADC"/>
<path fill-rule="evenodd" clip-rule="evenodd" d="M10.8333 22.834C10.5112 22.834 10.25 23.0952 10.25 23.4173C10.25 23.7395 10.5112 24.0007 10.8333 24.0007C11.1555 24.0007 11.4167 23.7395 11.4167 23.4173C11.4167 23.0952 11.1555 22.834 10.8333 22.834ZM9.75 23.4173C9.75 22.819 10.235 22.334 10.8333 22.334C11.4317 22.334 11.9167 22.819 11.9167 23.4173C11.9167 24.0157 11.4317 24.5007 10.8333 24.5007C10.235 24.5007 9.75 24.0157 9.75 23.4173Z" fill="#743ADC"/>
</g>
<defs>
<clipPath id="clip0_11261_51060">
<rect width="45" height="45" fill="white" transform="translate(0 0.5)"/>
</clipPath>
</defs>
</svg>
