<svg width="82" height="24" viewBox="0 0 82 24" fill="none" xmlns="http://www.w3.org/2000/svg">
<path d="M9.95352 15.652V17.5H1.38552V16.03L6.76152 9.548H1.49752V7.7H9.74352V9.17L4.38152 15.652H9.95352ZM16.0584 17.668C15.0411 17.668 14.1217 17.4487 13.3004 17.01C12.4884 16.5713 11.8491 15.9693 11.3824 15.204C10.9251 14.4293 10.6964 13.5613 10.6964 12.6C10.6964 11.6387 10.9251 10.7753 11.3824 10.01C11.8491 9.23533 12.4884 8.62867 13.3004 8.19C14.1217 7.75133 15.0411 7.532 16.0584 7.532C17.0757 7.532 17.9904 7.75133 18.8024 8.19C19.6144 8.62867 20.2537 9.23533 20.7204 10.01C21.1871 10.7753 21.4204 11.6387 21.4204 12.6C21.4204 13.5613 21.1871 14.4293 20.7204 15.204C20.2537 15.9693 19.6144 16.5713 18.8024 17.01C17.9904 17.4487 17.0757 17.668 16.0584 17.668ZM16.0584 15.736C16.6371 15.736 17.1597 15.6053 17.6264 15.344C18.0931 15.0733 18.4571 14.7 18.7184 14.224C18.9891 13.748 19.1244 13.2067 19.1244 12.6C19.1244 11.9933 18.9891 11.452 18.7184 10.976C18.4571 10.5 18.0931 10.1313 17.6264 9.87C17.1597 9.59933 16.6371 9.464 16.0584 9.464C15.4797 9.464 14.9571 9.59933 14.4904 9.87C14.0237 10.1313 13.6551 10.5 13.3844 10.976C13.1231 11.452 12.9924 11.9933 12.9924 12.6C12.9924 13.2067 13.1231 13.748 13.3844 14.224C13.6551 14.7 14.0237 15.0733 14.4904 15.344C14.9571 15.6053 15.4797 15.736 16.0584 15.736ZM27.8709 17.668C26.8536 17.668 25.9342 17.4487 25.1129 17.01C24.3009 16.5713 23.6616 15.9693 23.1949 15.204C22.7376 14.4293 22.5089 13.5613 22.5089 12.6C22.5089 11.6387 22.7376 10.7753 23.1949 10.01C23.6616 9.23533 24.3009 8.62867 25.1129 8.19C25.9342 7.75133 26.8536 7.532 27.8709 7.532C28.8882 7.532 29.8029 7.75133 30.6149 8.19C31.4269 8.62867 32.0662 9.23533 32.5329 10.01C32.9996 10.7753 33.2329 11.6387 33.2329 12.6C33.2329 13.5613 32.9996 14.4293 32.5329 15.204C32.0662 15.9693 31.4269 16.5713 30.6149 17.01C29.8029 17.4487 28.8882 17.668 27.8709 17.668ZM27.8709 15.736C28.4496 15.736 28.9722 15.6053 29.4389 15.344C29.9056 15.0733 30.2696 14.7 30.5309 14.224C30.8016 13.748 30.9369 13.2067 30.9369 12.6C30.9369 11.9933 30.8016 11.452 30.5309 10.976C30.2696 10.5 29.9056 10.1313 29.4389 9.87C28.9722 9.59933 28.4496 9.464 27.8709 9.464C27.2922 9.464 26.7696 9.59933 26.3029 9.87C25.8362 10.1313 25.4676 10.5 25.1969 10.976C24.9356 11.452 24.8049 11.9933 24.8049 12.6C24.8049 13.2067 24.9356 13.748 25.1969 14.224C25.4676 14.7 25.8362 15.0733 26.3029 15.344C26.7696 15.6053 27.2922 15.736 27.8709 15.736ZM43.8554 17.5L43.8414 11.62L40.9574 16.464H39.9354L37.0654 11.746V17.5H34.9374V7.7H36.8134L40.4814 13.79L44.0934 7.7H45.9554L45.9834 17.5H43.8554Z" fill="white"/>
<path fill-rule="evenodd" clip-rule="evenodd" d="M64.4666 5.81396C66.8194 5.60359 69.187 5.62195 71.5363 5.86878L72.144 5.93264C73.3039 6.05451 74.2375 6.93433 74.4317 8.07943L77.71 6.33767C77.9322 6.21964 78.1987 6.22085 78.4198 6.34091C78.6409 6.46097 78.7871 6.68388 78.809 6.9345L78.8339 7.21834C79.1129 10.4 79.1129 13.6 78.8339 16.7817L78.809 17.0655C78.7871 17.3161 78.6409 17.539 78.4198 17.6591C78.1987 17.7791 77.9322 17.7804 77.71 17.6623L74.4317 15.9206C74.2375 17.0657 73.3039 17.9455 72.144 18.0674L71.5363 18.1312C69.187 18.3781 66.8194 18.3964 64.4666 18.1861L62.8848 18.0446C61.6929 17.9381 60.7299 17.0275 60.5568 15.8434C60.1842 13.2947 60.1842 10.7053 60.5568 8.15658C60.7299 6.97251 61.6929 6.06196 62.8848 5.95539L64.4666 5.81396ZM74.6167 14.3666C74.6969 14.3792 74.7764 14.4052 74.8522 14.4454L77.4072 15.8029C77.5885 13.2709 77.5885 10.7291 77.4072 8.19714L74.8522 9.55459C74.7764 9.59483 74.6969 9.62078 74.6167 9.63338C74.7568 11.208 74.7568 12.792 74.6167 14.3666Z" fill="white"/>
</svg>
