<svg width="175" height="203" viewBox="0 0 175 203" fill="none" xmlns="http://www.w3.org/2000/svg">
<g clip-path="url(#clip0_11194_23925)">
<path opacity="0.24" d="M98.7447 27.5465C96.4547 23.228 93.2 19.6448 88.7618 17.433C85.4391 15.7966 81.6311 15.2521 77.9652 15.2491C70.2249 15.1572 62.2834 17.24 56.4574 22.2403C50.9214 26.8752 47.3071 33.321 46.8025 40.5909C46.2683 49.2188 50.0081 57.5939 54.6178 64.8728C59.2275 72.1517 64.7825 78.9897 68.2901 86.847C68.3611 87.1177 74.1737 86.8471 74.8527 86.862C76.7759 86.8398 78.282 85.9626 80.2008 85.5557C87.083 83.8472 93.4859 81.7821 100.155 79.2613C98.2558 67.6063 103.166 55.8051 102.872 44.0185C102.582 38.5003 101.405 32.5397 98.7447 27.5465Z" fill="#B6D3DB"/>
<path d="M114.683 146.052C112.812 146.639 111.03 147.203 109.159 147.79C112.504 157.233 115.397 166.795 117.93 176.451C119.554 176.025 121.269 175.576 122.893 175.15C120.361 165.493 117.6 155.704 114.683 146.052Z" fill="#2F3F47"/>
<path d="M121.029 166.572C121.319 166.207 121.586 165.751 121.648 165.252C122.101 163.301 121.148 161.139 119.506 160.027C117.864 158.914 115.466 158.965 113.94 160.136C113.698 160.682 113.09 160.938 112.595 161.261C110.937 162.66 111.514 165.595 113.294 166.865C115.073 168.134 117.538 167.97 119.566 167.245C120.131 167.193 120.649 166.961 121.029 166.572Z" fill="#6D9DBF"/>
<path d="M128.565 178.392C128.006 176.995 127.11 175.783 125.923 174.937C123.55 173.245 120.449 173.19 117.936 175.006C117.56 175.78 116.705 176.197 116.078 176.748C114.509 178.124 114.356 180.479 115.171 182.483C119.659 181.21 124.124 179.846 128.565 178.392Z" fill="#6D9DBF"/>
<path d="M113.57 182.999C113.755 183.336 114.03 183.65 114.215 183.987C119.587 182.771 124.797 181.308 130.003 179.46C129.999 179.076 130.085 178.667 130.08 178.283C130.076 177.898 129.867 177.47 129.459 177.385C129.255 177.342 129.074 177.389 128.894 177.436C123.617 179.013 118.501 180.837 113.57 182.999Z" fill="#FFBE4A"/>
<path d="M92.3263 152.013C90.4311 152.51 88.6262 152.983 86.7548 153.57C89.6483 163.132 92.1809 172.788 94.2623 182.563C95.9103 182.227 97.6486 181.868 99.2967 181.532C97.1917 171.667 94.7923 161.783 92.3263 152.013Z" fill="#2F3F47"/>
<path d="M97.7701 172.771C98.1503 172.382 98.3264 171.95 98.4122 171.542C98.8649 169.59 98.1164 167.472 96.4506 166.269C94.8085 165.156 92.4769 165.093 90.8377 166.198C90.5714 166.653 89.9634 166.909 89.4929 167.322C87.7206 168.655 88.2072 171.614 90.0106 172.973C91.7001 174.266 94.1884 174.193 96.264 173.648C96.8484 173.302 97.3899 173.16 97.7701 172.771Z" fill="#6D9DBF"/>
<path d="M104.722 184.933C104.253 183.513 103.356 182.301 102.146 181.365C99.8397 179.559 96.7152 179.413 94.178 181.14C93.8022 181.914 92.9234 182.241 92.2961 182.791C90.7043 184.076 90.4601 186.455 91.185 188.484C95.8111 187.367 100.323 186.183 104.722 184.933Z" fill="#6D9DBF"/>
<path d="M89.5606 188.907C89.7455 189.244 89.9304 189.582 90.2293 189.986C95.5818 189.064 100.93 187.758 106.183 186.091C106.179 185.706 106.265 185.298 106.26 184.913C106.256 184.528 106.047 184.101 105.639 184.015C105.435 183.972 105.254 184.019 105.074 184.067C99.8159 185.349 94.6527 186.993 89.5606 188.907Z" fill="#FFBE4A"/>
<path d="M90.7391 141.914C88.5303 142.687 86.141 143.506 84.4634 145.2C82.7857 146.894 81.7293 149.486 82.5918 151.671C83.4069 153.676 85.4573 154.874 87.5655 155.189C89.6736 155.504 91.8632 155.027 93.9625 154.572C101.049 152.907 107.993 150.7 114.819 148.041C115.337 147.809 115.879 147.667 116.259 147.278C117.423 146.201 117.154 144.439 116.956 142.948C116.643 141.39 116.308 139.742 115.14 138.601C113.356 136.947 110.531 137.206 108.137 137.641C102.267 138.795 96.42 140.039 90.7391 141.914Z" fill="#EECA2E"/>
<path d="M118.04 129.063C117.891 125.919 116.768 122.741 115.693 119.744C115.46 119.226 115.204 118.618 114.749 118.352C112.176 117.001 104.029 120.874 101.208 121.517C93.6035 123.415 86.094 125.674 78.6555 128.204C76.5369 128.952 72.5618 129.609 71.7954 131.836C70.9624 134.176 73.9552 138.6 75.2644 140.282C77.4939 143.266 80.8254 145.671 84.7947 146.463C88.3556 147.169 92.2879 146.716 96.0116 145.836C99.5548 145.003 103.051 143.99 106.362 142.639C110.124 141.17 113.858 139.226 115.95 136.17C117.599 134.001 118.114 131.551 118.04 129.063Z" fill="#2F3F47"/>
<path d="M94.3478 32.8442C92.5651 29.3572 89.8845 26.4915 86.3576 24.8123C83.6947 23.4852 80.7034 23.1123 77.6928 23.0338C71.4911 22.9242 65.1977 24.6712 60.4457 28.6182C56.0311 32.3803 53.1255 37.4827 52.717 43.2806C52.208 50.1658 55.3176 56.8736 58.9598 62.67C62.6257 68.5568 67.0327 73.9597 69.9337 80.2399C69.9811 80.4204 74.6634 80.2534 75.1383 80.2253C76.6769 80.2075 77.8456 79.5152 79.4034 79.2031C84.932 77.8495 90.0952 76.206 95.3441 74.1542C93.856 64.8027 97.753 55.3892 97.4854 45.9106C97.5032 41.5655 96.4529 36.8254 94.3478 32.8442Z" fill="#EECA2E"/>
<path d="M65.6145 129.599C86.4935 124.991 107.136 119.481 127.541 113.068C128.601 112.694 129.75 112.296 130.33 111.565C130.753 110.972 130.678 110.316 130.536 109.775C128.252 98.1242 125.246 86.6631 121.698 75.3439C121.111 73.4724 118.453 72.53 115.565 73.2874C95.4121 78.0906 75.4297 83.9102 55.7505 90.5183C53.0003 91.4325 51.327 93.511 51.7102 95.3396L59.0489 127.366C59.2856 128.269 59.5223 129.171 60.4336 129.704C61.7769 130.413 63.7859 129.982 65.6145 129.599Z" fill="#97A8B2"/>
<path d="M62.0319 103.436C60.7684 103.768 59.6189 104.166 58.3555 104.497C58.9798 107.613 59.7091 110.026 60.9414 112.885C62.2048 112.554 63.378 112.246 64.5748 112.029C63.8174 109.141 62.8795 106.301 62.0319 103.436Z" fill="#DFF0E8"/>
<path d="M62.3928 103.343C62.3691 103.253 62.3455 103.162 62.2552 103.186C62.1413 103.119 62.0274 103.053 61.9372 103.076C60.6737 103.408 59.5242 103.806 58.2608 104.137C58.0803 104.184 57.9472 104.412 57.9945 104.593C58.5714 107.528 59.5093 110.369 60.604 113.071C60.6514 113.252 60.8555 113.295 61.036 113.248C62.2092 112.94 63.4726 112.608 64.6695 112.391C64.8499 112.344 64.9831 112.116 64.9358 111.935C64.1783 109.048 63.2405 106.207 62.3928 103.343ZM60.2505 109.885C59.6203 108.217 59.1706 106.503 58.8111 104.764C59.8038 104.504 60.7728 104.153 61.7655 103.893C62.5895 106.667 63.3662 109.261 64.2094 111.74C63.4874 111.929 62.7655 112.119 61.9533 112.332C60.7801 112.639 60.6011 110.854 60.2505 109.885Z" fill="#EECA2E"/>
<path d="M77.9104 98.883C75.6543 99.4747 73.4218 100.157 71.1894 100.839C71.8802 103.84 72.7515 106.795 73.6229 109.749C75.879 109.158 78.0448 108.59 80.187 107.931C79.4059 104.953 78.7151 101.951 77.9104 98.883Z" fill="#DFF0E8"/>
<path d="M77.8157 98.5227C75.5596 99.1144 73.3272 99.7964 71.0947 100.478C70.9143 100.526 70.7811 100.754 70.8284 100.934C71.5193 103.936 72.3906 106.89 73.2619 109.845C73.3092 110.025 73.5371 110.158 73.7176 110.111C75.8834 109.543 78.1395 108.951 80.2817 108.293C80.4622 108.246 80.5954 108.018 80.548 107.837C79.767 104.859 79.0761 101.857 78.2714 98.789C78.153 98.3378 77.4311 98.5271 77.5494 98.9784C78.3305 101.956 79.0213 104.958 79.8261 108.027C79.8926 107.913 80.0258 107.685 80.0924 107.571C77.9265 108.139 75.6941 108.821 73.5282 109.389C73.6421 109.456 73.87 109.589 73.9839 109.655C73.1125 106.701 72.2412 103.746 71.5504 100.745C71.4838 100.859 71.3507 101.086 71.2841 101.2C73.5165 100.518 75.7726 99.9266 78.0051 99.2447C78.4563 99.1263 78.267 98.4044 77.8157 98.5227Z" fill="#EECA2E"/>
<path d="M85.2867 96.8529C83.4818 97.3262 81.677 97.7996 79.8055 98.3869C80.5866 101.365 81.3011 104.457 82.0822 107.435C83.9773 106.938 85.8487 106.351 87.7439 105.854C87.2099 102.714 86.6093 99.6889 85.2867 96.8529Z" fill="#DFF0E8"/>
<path d="M85.1921 96.4926C83.3872 96.9659 81.4921 97.463 79.7109 98.0266C79.5304 98.0739 79.3972 98.3018 79.4445 98.4822C80.2256 101.46 80.9401 104.552 81.7212 107.53C81.7685 107.711 81.9964 107.844 82.1768 107.797C84.072 107.3 85.9434 106.712 87.8386 106.215C88.0191 106.168 88.1522 105.94 88.1049 105.76C87.4806 102.644 86.88 99.6186 85.6477 96.7589C85.4391 96.3313 84.8548 96.6775 84.9731 97.1287C86.2054 99.9885 86.7823 102.924 87.3829 105.949C87.4495 105.835 87.5826 105.607 87.6492 105.493C85.7541 105.99 83.8826 106.578 81.9875 107.075C82.1014 107.141 82.3292 107.275 82.4431 107.341C81.6621 104.363 80.9476 101.271 80.1665 98.2929C80.0999 98.4068 79.9668 98.6346 79.9002 98.7486C81.7051 98.2752 83.5765 97.6879 85.3814 97.2145C85.9229 97.0725 85.7335 96.3505 85.1921 96.4926Z" fill="#EECA2E"/>
<path d="M101.735 92.6343C99.6592 93.1787 97.4697 93.6565 95.3941 94.2009C96.0612 97.1124 96.9991 99.9529 98.0273 102.77C100.26 102.088 102.402 101.429 104.658 100.838C103.744 98.0875 102.83 95.3372 101.735 92.6343Z" fill="#DFF0E8"/>
<path d="M101.64 92.274C99.5646 92.8184 97.375 93.2962 95.2994 93.8406C95.1189 93.8879 94.9858 94.1157 95.0331 94.2962C95.7003 97.2078 96.6382 100.048 97.6663 102.865C97.7137 103.046 97.9415 103.179 98.122 103.131C100.354 102.449 102.497 101.791 104.753 101.199C104.933 101.152 105.066 100.924 105.019 100.744C104.105 97.9935 103.167 95.153 102.072 92.4501C101.864 92.0225 101.279 92.3687 101.398 92.8199C102.469 95.4326 103.383 98.1829 104.297 100.933C104.364 100.819 104.497 100.591 104.563 100.477C102.331 101.159 100.189 101.818 97.9326 102.409C98.0465 102.476 98.2744 102.609 98.3883 102.676C97.3601 99.8589 96.4222 97.0184 95.7551 94.1069C95.6885 94.2208 95.5554 94.4486 95.4888 94.5625C97.5644 94.0182 99.7303 93.4501 101.83 92.996C102.281 92.8776 102.091 92.1557 101.64 92.274Z" fill="#EECA2E"/>
<path d="M109.567 90.8725C107.648 91.2793 105.639 91.7098 103.654 92.2305C104.725 94.8432 105.639 97.5934 106.553 100.344C108.334 99.7801 110.139 99.3067 111.92 98.7431C111.12 96.0594 110.163 93.5133 109.567 90.8725Z" fill="#DFF0E8"/>
<path d="M109.472 90.5122C107.463 90.9427 105.544 91.3495 103.559 91.8702C103.379 91.9175 103.245 92.1453 103.293 92.3258C104.364 94.9385 105.278 97.6888 106.192 100.439C106.24 100.62 106.467 100.753 106.648 100.705C108.429 100.142 110.234 99.6684 112.015 99.1047C112.196 99.0574 112.329 98.8296 112.282 98.6491C111.415 96.0793 110.548 93.5095 109.928 90.7785C109.81 90.3273 109.088 90.5166 109.206 90.9679C109.802 93.6086 110.669 96.1784 111.56 98.8384C111.626 98.7245 111.759 98.4967 111.826 98.3828C110.045 98.9464 108.24 99.4198 106.459 99.9834C106.572 100.05 106.8 100.183 106.914 100.25C106 97.4994 105.109 94.8394 104.015 92.1365C103.948 92.2504 103.815 92.4782 103.748 92.5921C105.757 92.1617 107.653 91.6646 109.662 91.2342C110.113 91.1158 109.923 90.3939 109.472 90.5122Z" fill="#EECA2E"/>
<path d="M115.053 89.7223C113.856 89.9397 112.683 90.2474 111.486 90.4649C111.968 93.0391 112.925 95.5852 113.792 98.1549C114.875 97.8709 115.844 97.5203 116.927 97.2363C116.354 94.6858 115.692 92.1589 115.053 89.7223Z" fill="#DFF0E8"/>
<path d="M114.958 89.362C113.761 89.5794 112.588 89.8871 111.391 90.1046C111.211 90.1519 111.077 90.3797 111.125 90.5602C111.631 93.2247 112.564 95.6805 113.431 98.2503C113.478 98.4308 113.706 98.564 113.887 98.5166C114.97 98.2326 115.939 97.882 117.022 97.598C117.202 97.5506 117.335 97.3228 117.288 97.1423C116.715 94.5918 116.076 92.1552 115.414 89.6283C115.295 89.1771 114.573 89.3664 114.692 89.8176C115.354 92.3445 115.993 94.7811 116.566 97.3317C116.632 97.2177 116.766 96.9899 116.832 96.876C115.749 97.16 114.78 97.5106 113.697 97.7947C113.811 97.8612 114.039 97.9944 114.153 98.061C113.286 95.4912 112.353 93.0353 111.847 90.3709C111.78 90.4848 111.647 90.7126 111.58 90.8265C112.777 90.6091 113.95 90.3014 115.147 90.0839C115.598 89.9656 115.409 89.2436 114.958 89.362Z" fill="#EECA2E"/>
<path d="M120.087 88.6919C119.071 88.862 117.964 89.0558 116.971 89.3162C117.61 91.7528 118.249 94.1894 118.798 96.6497C119.881 96.3657 120.85 96.0151 121.933 95.7311C121.93 93.5134 120.769 90.9244 120.087 88.6919Z" fill="#DFF0E8"/>
<path d="M119.992 88.3316C118.976 88.5017 117.869 88.6955 116.877 88.9559C116.696 89.0032 116.563 89.231 116.61 89.4115C117.249 91.8482 117.889 94.2848 118.437 96.7451C118.485 96.9256 118.712 97.0587 118.893 97.0114C119.976 96.7274 120.945 96.3768 122.028 96.0927C122.208 96.0454 122.275 95.9315 122.318 95.7273C122.244 93.2389 121.177 91.0109 120.472 88.6882C120.353 88.237 119.631 88.4263 119.75 88.8775C120.128 90.3215 120.688 91.718 121.133 93.0481C121.251 93.4993 121.929 95.3471 121.387 95.4891C120.485 95.7258 119.696 96.0291 118.794 96.2657C118.908 96.3323 119.136 96.4655 119.25 96.5321C118.701 94.0718 118.062 91.6351 117.423 89.1985C117.356 89.3124 117.223 89.5403 117.156 89.6542C118.173 89.4841 119.279 89.2903 120.272 89.0299C120.657 89.0255 120.467 88.3035 119.992 88.3316Z" fill="#EECA2E"/>
<path d="M96.1558 103.358C95.1277 100.541 94.0759 97.6343 93.499 94.6991C91.5136 95.2198 89.438 95.7642 87.3624 96.3086C88.571 99.0781 89.1953 102.194 89.7958 105.219C91.8478 104.585 94.0136 104.017 96.1558 103.358Z" fill="#DFF0E8"/>
<path d="M96.5168 103.264C95.4887 100.447 94.4369 97.5403 93.86 94.6051C93.8126 94.4246 93.5848 94.2915 93.4043 94.3388C91.3287 94.8832 89.3433 95.4039 87.2677 95.9483C86.997 96.0193 86.9777 96.3137 87.0251 96.4942C88.2574 99.3539 88.8343 102.289 89.4349 105.315C89.4822 105.495 89.71 105.628 89.8905 105.581C92.0327 104.923 94.1986 104.355 96.3408 103.696C96.792 103.578 96.6026 102.856 96.1514 102.974C94.0092 103.633 91.8434 104.201 89.7012 104.859C89.8151 104.925 90.0429 105.059 90.1568 105.125C89.5562 102.1 88.932 98.9841 87.6997 96.1244C87.6568 96.3285 87.5 96.4661 87.4571 96.6703C89.5327 96.1259 91.5181 95.6052 93.5937 95.0608C93.4798 94.9942 93.2519 94.8611 93.138 94.7945C93.8052 97.706 94.7667 100.637 95.7949 103.454C95.9132 103.905 96.6352 103.715 96.5168 103.264Z" fill="#EECA2E"/>
<path d="M69.2943 101.338C67.4894 101.811 65.7984 102.351 64.0172 102.915C64.7746 105.803 65.8027 108.62 66.674 111.574C68.3887 111.124 70.0131 110.698 71.7277 110.249C70.8564 107.294 69.8948 104.363 69.2943 101.338Z" fill="#DFF0E8"/>
<path d="M69.1996 100.978C67.3947 101.451 65.6135 102.015 63.9225 102.555C63.742 102.602 63.6089 102.83 63.6562 103.01C64.4136 105.898 65.4418 108.715 66.3131 111.669C66.3604 111.85 66.5883 111.983 66.7687 111.936C68.4834 111.486 70.1078 111.06 71.8224 110.61C72.0029 110.563 72.1361 110.335 72.0887 110.155C71.2174 107.2 70.3461 104.246 69.6553 101.244C69.5369 100.793 68.815 100.982 68.9333 101.433C69.6241 104.435 70.4955 107.389 71.3431 110.254C71.4097 110.14 71.5428 109.912 71.6094 109.798C69.8948 110.248 68.2704 110.674 66.5557 111.123C66.6696 111.19 66.8975 111.323 67.0114 111.39C66.1637 108.526 65.1356 105.709 64.3545 102.731C64.2879 102.845 64.1548 103.072 64.0882 103.186C65.8694 102.623 67.6743 102.149 69.3653 101.609C69.8402 101.581 69.6508 100.859 69.1996 100.978Z" fill="#EECA2E"/>
<path d="M58.3055 84.4495C56.6515 86.2336 56.5731 89.2442 58.1338 91.1498C62.0572 89.9279 65.8904 88.7296 69.8138 87.5077C69.5446 85.7457 69.0904 83.6464 67.543 82.8948C66.8832 82.5856 66.1804 82.4805 65.4112 82.4894C62.7852 82.4065 60.0498 82.6416 58.3055 84.4495Z" fill="#6D9DBF"/>
<path d="M101.081 73.2307C99.4273 75.0149 99.3488 78.0255 100.91 79.931C104.833 78.7091 108.666 77.5109 112.59 76.2889C112.32 74.5269 111.866 72.4276 110.319 71.6761C109.659 71.3668 108.956 71.2618 108.187 71.2706C105.651 71.1641 102.826 71.4229 101.081 73.2307Z" fill="#6D9DBF"/>
<path d="M141.32 114.854C141.634 114.579 141.971 114.394 142.332 114.299C142.603 114.228 142.921 114.338 143.239 114.447C144.512 114.885 145.717 115.437 146.856 116.103C147.211 117.457 147.453 118.744 147.447 120.192C147.427 120.486 147.498 120.757 147.365 120.985C147.322 121.189 147.165 121.327 147.009 121.464C145.374 122.954 143.829 124.42 142.195 125.91C141.511 125.51 140.984 124.973 140.458 124.436C141.375 123.521 142.383 122.581 143.3 121.665C144.217 120.75 145.177 119.63 145.026 118.319C144.253 117.943 143.389 117.591 142.615 117.215C142.501 117.149 142.297 117.106 142.207 117.129C142.026 117.177 141.869 117.314 141.689 117.362C140.748 118.187 139.807 119.013 138.913 120.019C138.591 119.525 138.245 118.94 137.922 118.446C138.764 116.875 140.042 115.865 141.32 114.854Z" fill="#2F3F47"/>
<path d="M147.691 117.813C147.781 117.79 147.781 117.79 147.848 117.676C148.385 117.149 149.012 116.599 149.525 115.982C148.79 115.017 148.055 114.053 147.163 113.226C146.692 113.638 146.155 114.165 145.799 114.644C145.732 114.758 145.575 114.896 145.623 115.076C145.646 115.167 145.67 115.257 145.694 115.347C146.201 116.179 146.775 116.896 147.349 117.614C147.487 117.77 147.6 117.837 147.691 117.813Z" fill="#516770"/>
<path d="M150.294 115.972C151.487 115.37 152.9 112.299 153.656 111.136C154.702 109.608 155.657 108.104 156.362 106.376C157.066 104.648 157.428 102.72 157.045 100.891C156.875 99.875 156.344 98.9533 155.927 98.0982C154.471 95.49 152.341 93.2516 149.992 91.6493C149.764 91.5161 149.626 91.3593 149.356 91.4303C149.085 91.5013 148.928 91.6389 148.795 91.8667C148.125 92.6212 147.364 93.3994 146.832 94.3107C145.9 95.9055 145.914 95.2264 146.516 96.4189C146.957 97.3642 148.528 98.2061 149.173 99.1943C149.932 100.249 150.625 101.418 151.227 102.61C151.62 103.375 152.128 104.207 151.98 105.114C151.918 105.612 151.651 106.068 151.475 106.5C150.124 109.072 148.636 111.488 147.034 113.838C146.744 114.203 149.506 116.276 150.138 116.11C150.114 116.02 150.204 115.996 150.294 115.972Z" fill="#6D9DBF"/>
<g opacity="0.15">
<path opacity="0.15" d="M155.048 98.4252C154.045 99.7493 152.881 100.826 151.555 101.656C151.308 101.817 151.426 102.269 151.697 102.198C153.274 101.591 154.619 100.467 155.803 99.0954C156.249 98.5924 155.495 97.9222 155.048 98.4252Z" fill="#272525"/>
<path opacity="0.15" d="M156.323 101.08C155.183 102.248 154.057 102.736 152.589 103.024C152.409 103.072 152.39 103.366 152.594 103.409C153.387 103.49 154.113 103.686 154.992 103.359C155.78 103.055 156.431 102.595 157.035 101.955C157.368 101.385 156.704 100.691 156.323 101.08Z" fill="#272525"/>
</g>
<path d="M118.312 81.9249C118.297 82.6039 118.372 83.2593 118.514 83.8008C118.964 85.5155 120.378 86.4949 121.698 87.1133C122.904 87.6652 124.2 88.1933 125.506 87.6578C126.722 87.146 127.702 85.7317 128.182 84.2552C128.753 82.7551 128.893 81.0789 128.941 79.4264C129.033 77.5697 128.987 75.5562 127.91 74.3919C127.36 73.7646 126.61 73.4791 125.884 73.2838C124.635 72.9361 123.272 72.5218 122.013 73.2378C121.249 73.6313 120.602 74.4761 120.069 75.3874C118.938 77.3239 118.285 79.617 118.312 81.9249Z" fill="#2F3F47"/>
<path d="M129.569 84.7592C130.798 85.4013 132.051 86.1336 133.237 86.9799C135.929 88.7819 138.42 90.9256 140.821 93.093C141.485 93.7869 142.444 94.5 143.299 94.0828C143.817 93.8506 144.24 93.2573 144.573 92.6878C145.348 91.2305 146.076 89.5928 146.599 87.9122C146.733 87.6844 146.752 87.39 146.681 87.1193C146.563 86.668 146.197 86.3781 145.765 86.202C143.102 84.8749 140.416 83.4575 137.662 82.1541C136.661 81.6452 135.659 81.1362 134.658 80.6273C132.109 79.3667 129.37 77.3843 126.607 77.1445C126.313 77.1253 125.928 77.1297 125.681 77.291C125.524 77.4285 125.367 77.5661 125.21 77.7037C124.764 78.2067 124.407 78.686 124.188 79.3222C123.969 79.9583 123.978 80.7276 124.21 81.2454C124.466 81.8535 125.036 82.1864 125.491 82.4527C126.882 83.3418 128.225 84.0505 129.569 84.7592Z" fill="#6D9DBF"/>
<path d="M140.075 93.1929C140.127 93.758 140.155 94.2329 140.297 94.7744C140.856 96.171 142.223 96.9699 143.633 97.5646C144.839 98.1165 146.201 98.5308 147.531 98.0855C148.771 97.6639 149.665 96.6579 150.193 95.3619C150.745 94.1562 150.865 92.7744 150.894 91.4163C150.9 89.968 150.835 88.2489 149.715 87.2887C149.098 86.7753 148.372 86.58 147.622 86.2945C146.283 85.9705 144.944 85.6464 143.638 86.182C142.849 86.4852 142.246 87.1258 141.689 87.9469C140.553 89.4987 139.986 91.3835 140.075 93.1929Z" fill="#2F3F47"/>
<path d="M142.355 92.6919C142.336 92.9863 142.407 93.2571 142.501 93.618C142.805 94.4066 143.602 94.8726 144.376 95.2484C145.126 95.5339 145.876 95.8195 146.574 95.5399C147.296 95.3506 147.81 94.7336 148.095 93.9836C148.381 93.2335 148.486 92.5308 148.477 91.7615C148.535 90.8783 148.388 89.9522 147.861 89.4151C147.496 89.1251 147.064 88.9491 146.656 88.8633C145.929 88.668 145.113 88.4963 144.414 88.7759C143.987 88.9845 143.607 89.3736 143.317 89.739C142.67 90.5837 142.365 91.6282 142.355 92.6919Z" fill="#DFF0E8"/>
<g opacity="0.26">
<path opacity="0.26" d="M131.828 80.5034C131.448 80.8925 131.091 81.3718 130.734 81.8512C130.468 82.3068 130.045 82.9001 130.007 83.4889C129.944 83.9874 130.49 84.2301 130.78 83.8647C131.07 83.4993 131.132 83.0007 131.399 82.545C131.641 81.9991 131.998 81.5198 132.264 81.0641C132.464 80.7224 132.141 80.2283 131.828 80.5034Z" fill="#272525"/>
<path opacity="0.26" d="M135.221 82.4097C134.461 83.1879 133.591 84.2841 133.13 85.4662C133.044 85.8745 133.409 86.1645 133.609 85.8227C133.965 85.3434 134.208 84.7975 134.451 84.2516C134.693 83.7057 135.05 83.2264 135.406 82.7471C135.63 82.4956 135.445 82.1582 135.221 82.4097Z" fill="#272525"/>
</g>
<path d="M32.4689 94.7969C32.179 95.1623 31.9793 95.5041 31.5517 95.7127C31.2144 95.8976 30.92 95.8783 30.559 95.973C29.0441 96.081 27.5958 96.075 26.1237 95.9788C25.1843 94.9713 24.492 93.8026 23.8662 92.5199C23.7952 92.2492 23.634 92.0021 23.6769 91.7979C23.7198 91.5938 23.7627 91.3896 23.9195 91.252C25.0276 89.2252 26.1594 87.2887 27.2675 85.2619C28.0605 85.3433 28.9008 85.6052 29.7411 85.8671C29.099 87.0965 28.4569 88.3258 27.8148 89.5552C27.1491 90.6944 26.578 92.1945 27.2467 93.273C28.3104 93.2834 29.2838 93.3174 30.3238 93.2376C30.5043 93.1902 30.7085 93.2331 30.889 93.1858C31.0695 93.1385 31.2026 92.9106 31.3358 92.6828C32.0015 91.5437 32.6673 90.4045 33.2191 89.1988C33.7887 89.5317 34.3582 89.8646 34.9278 90.1975C34.4041 91.8781 33.4483 93.3826 32.4689 94.7969Z" fill="#2F3F47"/>
<path d="M24.5482 94.7493C24.458 94.773 24.4817 94.8632 24.3914 94.8869C24.0156 95.6606 23.6162 96.3441 23.2404 97.1178C24.3559 97.6933 25.5616 98.2452 26.8338 98.6831C27.1667 98.1135 27.4759 97.4537 27.6949 96.8176C27.7615 96.7037 27.8044 96.4995 27.6905 96.4329C27.6668 96.3427 27.5529 96.2761 27.4626 96.2998C26.6416 95.7435 25.6637 95.3248 24.7997 94.9727C24.7524 94.7922 24.6385 94.7256 24.5482 94.7493Z" fill="#516770"/>
<path d="M22.5658 97.4866C21.4917 98.5399 21.2372 101.983 20.8895 103.231C20.3895 105.002 20.0033 106.839 19.9116 108.696C19.91 110.529 20.3169 112.448 21.3746 113.907C21.9723 114.714 22.817 115.361 23.752 115.984C26.4193 117.696 29.4432 118.928 32.5248 119.277C32.8192 119.297 33.0234 119.339 33.2704 119.178C33.5175 119.017 33.6506 118.789 33.6935 118.585C34.1122 117.607 34.6212 116.606 34.8357 115.585C35.2219 113.747 35.4778 114.355 34.2913 113.509C33.4466 112.863 31.476 112.704 30.3606 112.129C29.1312 111.487 27.9684 110.731 26.7819 109.884C26.0984 109.485 25.3676 108.905 25.1546 108.093C25.0362 107.641 25.0984 107.143 25.1605 106.644C25.5571 103.743 26.1578 100.885 26.8724 98.0933C27.0247 97.5711 23.3736 96.889 22.7226 97.349C22.6324 97.3727 22.6561 97.463 22.5658 97.4866Z" fill="#6D9DBF"/>
<g opacity="0.15">
<path opacity="0.15" d="M24.4458 115.32C24.9695 113.64 25.8587 112.249 26.8618 110.925C27.0851 110.673 26.7197 110.383 26.4727 110.545C25.0613 111.783 24.0153 113.311 23.425 115.106C23.1824 115.652 24.2268 115.956 24.4458 115.32Z" fill="#272525"/>
<path opacity="0.15" d="M22.0255 113.448C22.7771 111.901 23.718 111.075 25.2241 110.198C25.3809 110.06 25.3099 109.79 25.0392 109.861C24.1604 110.188 23.3245 110.31 22.5167 110.908C21.7992 111.482 21.2193 112.213 20.9574 113.053C20.805 113.575 21.7829 113.994 22.0255 113.448Z" fill="#272525"/>
</g>
<path d="M60.4636 104.813C60.5391 105.468 60.5243 106.147 60.3956 106.759C60.0094 108.597 58.5507 109.655 57.1349 110.508C55.7856 111.248 54.3462 112.011 52.8934 111.621C51.4643 111.32 50.2734 110.089 49.51 108.65C48.7467 107.21 48.4109 105.562 48.0988 104.005C47.8296 102.243 47.6935 100.253 48.6966 98.9286C49.2765 98.1978 50.1553 97.8709 50.9201 97.4774C52.3167 96.9182 53.8035 96.3353 55.2799 96.8162C56.2342 97.1446 56.9886 97.8148 57.7002 98.6892C59.3039 100.391 60.2566 102.552 60.4636 104.813Z" fill="#2F3F47"/>
<path d="M49.4006 108.968C48.3457 109.727 47.3146 110.576 46.3071 111.516C44.1353 113.532 42.1247 115.796 40.2517 118.216C39.6718 118.947 39.0016 119.701 38.1613 119.439C37.6391 119.287 37.2027 118.726 36.8802 118.232C35.9363 116.84 35.173 115.401 34.4762 113.847C34.4052 113.576 34.244 113.329 34.2869 113.125C34.2588 112.65 34.6626 112.351 34.9097 112.19C37.1999 110.625 39.3761 108.993 41.6662 107.428C42.474 106.83 43.2818 106.233 44.1132 105.725C46.2229 104.208 48.4613 102.077 50.9215 101.528C51.1923 101.457 51.463 101.386 51.8047 101.586C52.0089 101.629 52.1465 101.786 52.284 101.943C52.6968 102.413 53.1998 102.86 53.4557 103.468C53.7116 104.076 53.901 104.798 53.682 105.434C53.5533 106.047 53.0828 106.459 52.679 106.758C51.6005 107.427 50.5456 108.186 49.4006 108.968Z" fill="#6D9DBF"/>
<path d="M41.1275 115.67C41.1793 116.235 41.1172 116.734 40.9648 117.256C40.4839 118.732 39.0016 119.7 37.5621 120.463C36.2129 121.203 34.726 121.786 33.2304 121.599C31.8249 121.389 30.6148 120.453 29.9461 119.374C29.2774 118.296 29.0127 116.918 28.7715 115.631C28.6872 114.206 28.6458 112.578 29.7865 111.41C30.3901 110.77 31.2689 110.443 32.0574 110.14C33.454 109.58 35.0547 109.064 36.4838 109.364C37.4143 109.603 38.2117 110.069 38.7857 110.786C40.1808 112.06 41.0388 113.86 41.1275 115.67Z" fill="#2F3F47"/>
<path d="M38.5016 115.587C38.4824 115.881 38.5534 116.152 38.4439 116.47C38.182 117.31 37.284 117.932 36.5191 118.325C35.7543 118.719 34.8992 119.136 33.9923 118.988C33.1993 118.906 32.4685 118.326 32.1224 117.742C31.7525 117.067 31.5632 116.345 31.4641 115.6C31.3413 114.764 31.3753 113.791 31.9789 113.15C32.3592 112.761 32.8104 112.643 33.3282 112.41C34.1167 112.107 34.9955 111.78 35.9024 111.928C36.4246 112.08 36.8802 112.347 37.2693 112.727C37.9572 113.511 38.4217 114.547 38.5016 115.587Z" fill="#DFF0E8"/>
<g opacity="0.26">
<path opacity="0.26" d="M45.0393 105.578C45.5187 105.935 45.998 106.291 46.4107 106.762C46.7998 107.142 47.2362 107.703 47.3782 108.244C47.4966 108.696 46.9122 109.042 46.6371 108.728C46.2716 108.438 46.1296 107.897 45.8308 107.493C45.5083 106.999 45.1192 106.618 44.6162 106.172C44.3411 105.858 44.6976 105.379 45.0393 105.578Z" fill="#272525"/>
<path opacity="0.26" d="M41.4236 107.975C42.3823 108.689 43.4785 109.558 44.0569 110.661C44.2418 110.998 43.7714 111.411 43.4962 111.097C43.0835 110.627 42.761 110.132 42.3719 109.752C41.9591 109.282 41.5701 108.902 41.1573 108.431C40.9724 108.094 41.1721 107.752 41.4236 107.975Z" fill="#272525"/>
</g>
<path d="M71.7849 58.2495C71.7183 58.3634 71.7656 58.5439 71.7893 58.6342C72.0304 59.9213 72.3381 61.0945 72.5792 62.3816C77.4569 61.4881 82.3108 60.5044 86.9044 58.528C86.3216 57.0412 85.8289 55.5307 85.3363 54.0202C80.8004 55.1134 76.3548 56.1829 72.0985 57.9744C72.0319 58.0883 71.8515 58.1356 71.7849 58.2495Z" fill="#98B99D"/>
<path d="M94.0398 43.4411C93.7751 42.0638 93.3298 40.7337 92.3238 39.8402C90.9524 38.6566 88.9863 38.8829 87.134 39.1758C78.6851 40.4272 70.2687 42.5381 62.1556 45.4376C61.5476 45.6935 60.8256 45.8829 60.2649 46.3193C59.1435 47.1921 58.6627 48.6686 58.5428 50.0503C58.5369 51.4987 58.8919 52.8524 59.2469 54.206C59.744 56.1012 60.4023 58.2434 62.2012 59.2184C63.7723 60.0602 65.7148 59.7437 67.4768 59.4745C75.7171 57.7955 83.953 55.7319 91.9803 53.2408C92.7925 53.0277 93.6713 52.7008 94.161 51.9936C94.5841 51.4004 94.6418 50.5172 94.633 49.7479C94.7203 47.5066 94.4703 45.4502 94.0398 43.4411Z" fill="#97A8B2"/>
<path d="M91.7452 50.5049C90.8591 48.2295 89.8827 45.9778 88.6593 43.8873C88.3368 43.3932 87.5675 43.4021 87.4387 44.0145C87.0718 45.5576 86.7049 47.1006 86.338 48.6436C85.4415 47.432 84.8157 46.1493 84.2565 44.7527C84.0006 44.1446 83.0079 44.405 82.9694 44.9938C82.9398 46.3519 82.82 47.7337 82.5862 49.0489C81.6187 47.5665 80.6748 46.1743 79.6408 44.8058C79.3419 44.402 78.4395 44.6386 78.4913 45.2038C78.6037 47.1034 78.6022 48.9364 78.5104 50.793C77.8225 50.0089 77.0443 49.2485 76.2898 48.5783C76.0147 48.2646 75.3593 48.3401 75.2972 48.8386C75.0826 49.8594 74.7778 50.9039 74.587 52.0149C73.1875 50.3565 71.788 48.698 70.2746 46.973C69.9994 46.6593 69.3677 46.825 69.3958 47.2999C69.3987 49.5176 69.4017 51.7352 69.3809 53.8626C67.1219 52.2367 65.1099 50.4495 63.2977 48.3206C63.0462 48.0972 62.595 48.2155 62.5994 48.6002C62.768 51.4495 62.9366 54.2989 63.1052 57.1483C63.086 57.4427 63.5609 57.4146 63.4899 57.1438C63.4159 54.6555 63.342 52.1671 63.3583 49.655C65.1469 51.6937 67.2728 53.5475 69.5081 55.0831C69.7596 55.3065 70.1872 55.098 70.1827 54.7133C70.2272 52.6761 70.2716 50.639 70.3397 48.6921C71.7155 50.2603 73.0247 51.9424 74.4006 53.5106C74.6757 53.8243 75.2172 53.6823 75.303 53.274C75.6078 52.2295 75.7986 51.1184 76.1034 50.074C76.9052 50.9247 77.7071 51.7754 78.5089 52.626C78.898 53.0063 79.506 52.7503 79.5681 52.2518C79.7072 50.5756 79.7561 48.9231 79.8049 47.2706C80.7251 48.5725 81.555 49.8981 82.4086 51.3139C82.7548 51.8983 83.567 51.6852 83.6957 51.0728C83.8866 49.9617 83.9872 48.8744 84.1544 47.6731C84.7091 48.685 85.3542 49.6733 86.1796 50.6142C86.4785 51.0181 87.2004 50.8287 87.2862 50.4204C87.6768 48.9676 87.9772 47.5385 88.3678 46.0857C89.1785 47.7057 90.0128 49.416 90.6667 51.1735C90.856 51.8955 92.0484 51.2934 91.7452 50.5049Z" fill="white"/>
<path opacity="0.08" d="M116.77 103.258C109.556 103.703 102.158 103.811 95.0019 103.373C86.7587 102.834 78.1929 101.801 70.4453 99.1069C66.8563 97.9263 63.177 96.7693 60.1206 94.6773C58.8439 93.8547 57.8379 92.9611 56.9414 91.7494C56.505 91.1887 56.0686 90.628 55.6558 90.1575C53.1097 91.1147 51.5031 93.0793 51.9764 94.8842L59.3152 126.911C59.5519 127.813 59.7886 128.716 60.6999 129.248C62.0432 129.957 64.0522 129.527 65.8808 129.144C86.7598 124.536 107.402 119.025 127.808 112.612C128.867 112.238 130.016 111.84 130.596 111.109C131.019 110.516 130.944 109.861 130.802 109.319C130.296 106.655 129.724 104.104 129.127 101.464C125 102.643 120.75 102.986 116.77 103.258Z" fill="#272525"/>
<path d="M135.092 106.555C110.272 110.846 81.7594 118.71 53.9346 127.358C54.8236 131.851 55.9035 135.233 57.6714 139.399C84.6159 132.911 111.651 126.399 137.72 116.572C137.57 113.428 135.921 109.713 135.092 106.555Z" fill="#6D9DBF"/>
<path d="M103.177 117.626C98.1705 119.132 93.0502 120.572 88.0439 122.078C85.7212 122.783 83.2846 123.422 80.8909 123.857C81.1083 125.054 81.416 126.227 81.9042 127.353C89.3989 125.773 96.9129 123.899 104.242 121.687C103.887 120.334 103.532 118.98 103.177 117.626Z" fill="#DFF0E8"/>
<path d="M84.9575 138.995C84.6069 138.026 84.2563 137.057 83.9057 136.088C83.3643 136.23 82.913 136.348 82.3716 136.49C82.7547 138.319 83.2518 140.214 83.8154 141.995C90.384 140.562 96.9955 138.924 103.493 137.22C105.298 136.747 107.193 136.25 108.652 135.192C108.587 133.473 108.251 131.825 107.735 130.224C107.17 130.276 106.604 130.327 105.973 130.493C105.792 130.54 105.498 130.521 105.365 130.749C105.208 130.887 105.279 131.157 105.236 131.361C105.273 132.606 105.22 133.874 105.233 135.027C98.6214 136.665 91.7584 138.079 84.9575 138.995Z" fill="#6D9DBF"/>
</g>
<defs>
<clipPath id="clip0_11194_23925">
<rect width="135" height="174" fill="white" transform="translate(0 34.25) rotate(-14.6961)"/>
</clipPath>
</defs>
</svg>
