<svg width="287" height="422" viewBox="0 0 287 422" fill="none" xmlns="http://www.w3.org/2000/svg">
<mask id="mask0_11845_50679" style="mask-type:alpha" maskUnits="userSpaceOnUse" x="0" y="0" width="287" height="422">
<rect width="287" height="422" rx="10" fill="url(#paint0_linear_11845_50679)"/>
</mask>
<g mask="url(#mask0_11845_50679)">
<path d="M99.9999 265.5C45.5999 306.7 75 389 116.5 405C136 415.5 126 425 131.5 452.5C137 480 221 511 318.5 412.5C416 314 326.5 145 304.5 130C282.5 115 250.113 105.536 210.5 118.5C183 127.5 165 146.5 162.5 176C160 205.5 168 214 99.9999 265.5Z" fill="url(#paint1_linear_11845_50679)"/>
<g opacity="0.7">
<path d="M429.559 350.272C431.32 352.21 429.206 354.148 427.973 355.557C426.564 357.143 425.154 359.257 422.864 358.376C421.631 357.848 420.574 356.615 419.693 355.557C418.988 354.853 418.283 354.148 417.755 353.443C416.874 354.677 415.817 355.91 414.584 356.791C415.465 358.2 416.169 359.609 417.05 361.019C417.931 362.428 418.636 363.838 417.931 365.423C416.345 368.771 411.236 369.475 408.241 368.947C407.713 368.947 407.361 368.418 407.184 367.89C406.48 365.423 406.127 363.133 406.303 360.667C404.013 361.019 401.547 361.019 398.904 360.314C398.376 361.9 397.847 363.485 397.319 365.071C396.966 366.128 396.614 367.714 395.733 368.418C393.443 370.18 389.215 366.656 387.453 365.599C386.748 365.247 386.572 364.366 386.924 363.661C388.334 361.195 389.743 358.552 391.505 356.262C386.748 352.034 384.634 345.163 386.748 338.821C387.453 336.531 388.686 334.593 390.095 333.183C385.691 321.203 378.996 312.747 368.25 305.7C368.074 305.7 368.074 305.524 367.897 305.348C365.255 306.757 362.084 307.462 358.56 307.109C358.208 307.109 357.856 306.933 357.679 306.757C357.503 311.866 357.151 316.799 356.622 321.908C356.622 322.789 355.741 323.318 355.037 323.318C354.684 323.846 354.156 324.375 353.275 324.375C341.119 324.551 328.963 324.551 316.807 324.551C316.807 334.945 317.159 345.163 318.216 355.557C325.792 363.309 327.554 378.636 329.139 388.15C329.139 388.502 329.139 388.854 328.963 389.031C334.953 392.378 340.062 397.135 343.057 403.301C343.585 404.534 342.881 405.591 341.824 405.767C342.528 406.824 342 408.586 340.238 408.586C319.45 409.291 297.428 409.467 276.639 407.353C275.054 407.177 274.877 405.062 276.463 404.71C278.225 398.544 281.748 393.787 286.153 390.264C284.215 380.222 284.567 367.009 290.733 358.729C290.557 358.552 290.205 358.2 290.205 357.848C290.028 346.749 290.381 335.474 291.085 324.198C283.862 324.198 276.815 324.198 269.592 324.198C259.55 324.198 249.332 324.375 239.114 324.551C239.643 334.24 239.643 344.106 238.938 353.796C250.742 359.257 252.151 377.932 252.856 390.264C258.846 394.316 262.898 400.306 263.074 408.057C263.074 410.172 260.431 410.524 259.55 409.291C259.198 409.467 258.846 409.643 258.493 409.643C238.233 409.819 217.973 409.995 197.889 409.643C196.832 409.643 196.656 408.586 197.008 407.881C197.008 407.705 197.008 407.705 197.008 407.529C197.361 399.601 201.589 393.787 207.579 389.911C205.465 378.284 209.693 363.838 218.854 356.791C219.206 346.044 217.621 335.65 217.797 324.903C207.226 324.903 196.656 324.727 186.262 323.846C184.676 323.67 184.676 321.556 186.262 321.38C186.438 321.38 186.614 321.38 186.79 321.38C186.79 321.203 186.614 321.203 186.614 321.027C186.262 315.037 186.085 308.871 185.733 302.881C182.562 303.41 179.743 303.234 176.924 302.177C173.225 307.814 169.349 313.099 166.53 319.266C164.064 324.551 162.654 330.012 161.245 335.474C161.773 336.178 161.597 337.411 160.716 337.764C160.54 338.997 160.188 340.054 159.835 341.287C165.649 343.401 169.173 349.744 168.997 355.91C172.168 355.557 176.396 356.438 176.748 360.138C177.101 364.542 171.463 364.895 168.468 364.542C167.763 364.542 167.059 364.542 166.354 364.366C164.592 367.009 162.302 369.123 159.483 370.708C161.245 372.118 161.597 375.465 160.893 377.403C160.188 379.341 158.25 380.75 156.312 380.927C152.084 381.103 151.203 376.875 151.731 373.527C149.441 373.88 147.151 373.88 144.861 373.351C144.685 373.351 144.332 373.175 144.156 373.175C143.98 374.408 144.508 375.465 144.156 376.698C143.98 377.755 143.275 378.636 142.394 379.341C139.752 381.279 136.58 380.222 133.938 379.165C133.409 378.989 132.881 378.46 133.057 377.755C133.762 374.937 134.466 371.942 135.523 369.123C135.523 368.947 135.7 368.947 135.7 368.947C131.295 365.071 129.005 359.433 130.414 353.091C131.119 350.096 132.528 347.806 134.466 346.044C134.466 346.044 134.466 346.044 134.466 345.868C134.29 344.987 134.29 343.93 134.29 343.049C134.29 342.168 134.114 341.287 134.466 340.406C134.466 340.23 134.643 340.054 134.819 339.878C135.876 319.794 146.094 297.948 163.183 286.497C162.654 284.735 162.302 283.15 162.126 281.388C160.716 267.823 173.401 261.304 185.205 261.48C185.205 256.195 185.028 251.086 185.028 245.801C185.028 244.744 185.909 243.863 186.966 244.039C193.309 244.039 199.475 244.039 205.817 244.215C206.346 239.987 206.874 235.583 207.755 231.354C201.589 231.883 199.475 220.432 200.532 215.675C202.117 208.099 209.869 202.99 217.268 205.809C219.559 202.11 222.201 198.762 225.549 195.767C238.409 183.964 257.612 182.378 274.173 182.026C289.852 181.673 307.47 184.844 317.512 198.058C319.097 200.172 320.507 202.638 321.74 205.105C323.502 204.047 326.32 204.928 328.434 205.633C332.486 207.042 336.01 210.214 337.243 214.266C339.533 221.136 334.601 229.24 327.377 228.183C327.906 233.997 328.258 239.811 328.787 245.272C336.891 245.272 344.995 245.448 352.923 245.448C353.804 245.448 354.508 245.977 354.684 246.682C355.213 246.858 355.741 247.386 355.918 248.267C356.446 253.2 356.975 258.133 357.327 263.066C368.602 263.418 378.116 272.403 378.996 283.854V284.031C398.023 288.611 410.003 310.281 411.765 328.603C411.941 328.603 411.941 328.603 412.117 328.779C420.397 332.479 422.688 339.702 421.278 346.22C422.688 346.925 424.097 347.63 425.33 348.334C426.74 348.687 428.501 349.215 429.559 350.272ZM426.74 352.562C427.444 352.386 427.268 352.21 426.387 352.034C425.683 351.505 424.626 351.153 423.921 350.801C422.864 350.272 421.631 349.568 420.574 349.039C420.221 350.096 419.693 350.977 419.164 351.858C420.045 352.739 421.102 353.62 421.983 354.5C422.688 355.029 423.392 356.086 424.449 355.734C424.978 355.381 425.683 354.324 426.035 353.972C426.211 353.267 426.387 352.915 426.74 352.562ZM415.993 350.096C419.34 344.106 418.636 336.178 411.413 331.422C411.236 331.422 411.236 331.422 411.06 331.422C410.532 331.598 410.003 331.598 409.651 331.245C402.075 330.893 392.914 331.774 390.095 340.23C387.629 347.101 391.857 354.853 398.728 356.967C403.132 358.376 407.361 357.672 410.532 355.734C410.356 354.677 411.589 353.796 412.47 354.324C413.703 353.267 414.76 352.034 415.465 350.801C415.641 350.625 415.817 350.272 415.993 350.096ZM414.584 364.895C415.112 364.19 414.936 364.014 414.584 363.309C413.879 361.724 412.822 360.314 412.117 358.905C411.06 359.609 409.827 360.138 408.418 360.49C408.594 362.604 408.946 364.542 409.651 366.48C410.708 366.48 411.589 366.48 412.646 366.128C413.174 365.776 414.055 365.423 414.584 364.895ZM392.738 331.422C397.142 328.427 402.956 327.37 408.418 328.25C407.889 323.67 406.832 319.266 405.246 315.037C406.304 314.333 405.599 312.747 404.366 312.923C402.956 309.752 401.371 306.581 399.257 303.762C397.495 301.12 395.557 298.829 393.443 296.891C393.971 296.363 394.5 295.834 395.028 295.482C395.909 294.601 394.676 293.016 393.619 293.72C392.914 294.249 392.21 294.777 391.505 295.306C387.629 291.782 383.225 288.964 378.82 285.792C378.82 293.192 375.473 300.943 369.659 304.995C372.302 306.229 374.768 307.638 377.059 309.4C376.882 309.576 376.706 309.752 376.53 309.928C376.178 310.457 376.706 311.514 377.411 310.985C377.763 310.809 377.939 310.633 378.292 310.281C381.287 312.747 383.929 315.742 386.22 318.913C384.81 319.794 385.691 322.26 387.629 321.908C387.805 321.908 387.981 321.908 388.158 321.732C390.095 324.551 391.681 327.898 392.738 331.422ZM394.324 365.247C394.852 363.485 395.557 361.547 396.085 359.786C395.028 359.433 394.147 358.905 393.267 358.2C392.21 360.314 390.976 362.252 389.919 364.366C390.8 364.895 391.505 365.247 392.386 365.776C392.562 365.952 393.443 366.656 393.795 366.656C393.971 366.48 394.147 365.599 394.324 365.247ZM360.322 304.115C372.302 303.938 378.468 289.844 374.944 279.274C372.302 271.17 365.255 266.766 357.503 264.828C358.384 277.336 358.384 290.197 357.856 302.705C358.736 302.529 360.146 303.057 360.322 304.115ZM353.451 320.675C353.627 320.675 353.627 320.675 353.804 320.851C353.099 297.244 352.218 273.284 352.394 249.5C312.579 249.148 272.763 248.796 232.948 248.443C222.906 248.267 213.04 248.267 202.998 248.091C198.418 248.091 191.899 245.977 188.728 250.381C187.495 252.319 188.552 259.014 188.904 262.537C189.08 262.89 189.08 263.242 188.904 263.594C188.904 263.771 188.904 263.771 188.904 263.771C189.257 282.974 189.961 302.353 189.433 321.556V321.732C216.035 319.97 243.166 321.203 269.768 321.027C297.78 321.027 325.616 320.675 353.451 320.675ZM327.025 226.069C332.134 226.069 335.658 221.313 334.424 216.203C333.896 213.737 332.31 211.623 330.196 210.214C329.315 209.685 323.678 206.514 322.973 208.099L322.797 208.276C325.263 213.913 326.32 219.903 327.025 226.069ZM266.95 244.744C286.329 244.92 305.708 244.92 325.087 245.096C323.854 231.178 323.854 214.97 316.455 202.638C307.293 187.663 288.267 184.844 272.235 185.549C270.473 185.549 268.711 185.725 266.95 185.725C268.183 204.576 270.297 226.245 266.95 244.744ZM316.102 353.796C315.574 351.153 315.045 348.51 314.693 345.692C307.822 346.22 300.423 347.101 293.552 346.22C293.376 349.92 293.023 353.443 292.671 357.143C295.49 354.324 299.189 352.21 303.946 351.505C309.055 350.801 312.931 351.682 316.102 353.796ZM314.164 324.903C307.646 324.903 300.951 324.903 294.433 324.903C294.433 326.136 294.257 327.193 294.257 328.427C300.775 327.898 307.293 327.722 313.812 328.074C314.164 327.017 314.164 325.96 314.164 324.903ZM314.34 342.873C314.164 341.111 313.988 339.349 313.988 337.588C307.646 338.469 300.599 337.764 294.08 337.411C293.904 339.878 293.904 342.168 293.728 344.635C300.423 343.049 307.646 343.049 314.34 342.873ZM313.988 335.121C313.988 333.712 313.988 332.302 313.988 330.893C307.47 330.717 300.951 330.365 294.433 330.188C294.433 331.95 294.257 333.536 294.257 335.297C300.599 335.121 307.646 334.24 313.988 335.121ZM279.634 405.062C299.542 403.653 320.507 404.182 340.414 405.239C325.616 385.507 292.142 379.517 279.634 405.062ZM288.795 389.207C299.189 382.688 313.636 382.512 325.439 387.621C323.502 375.113 321.211 351.858 303.946 355.381C288.619 358.376 288.267 376.522 288.795 389.207ZM265.893 244.744C263.074 225.893 264.483 205.105 264.131 186.078C249.861 187.135 235.414 190.13 225.372 200.876C214.45 212.856 211.807 229.24 208.283 244.391C227.486 244.391 246.689 244.568 265.893 244.744ZM258.846 406.12C259.022 406.12 259.022 406.12 259.198 406.296C257.084 391.849 239.114 388.854 226.958 389.207C214.097 389.559 203.351 395.373 199.651 407.881C218.325 406.472 236.824 406.12 255.498 406.296C255.674 406.12 256.027 406.12 256.379 406.12C257.26 406.12 257.965 406.12 258.846 406.12ZM249.332 388.854C248.451 377.227 247.218 358.905 234.181 356.967C217.092 354.324 210.221 375.289 209.869 389.207C221.32 383.041 237.705 383.041 249.332 388.854ZM237 353.62C236.824 352.21 236.824 350.625 236.648 349.039C231.891 349.039 227.134 349.039 222.377 348.687C222.201 351.153 221.849 353.443 221.497 355.734C224.668 353.972 228.191 352.915 232.243 352.915C234.005 353.091 235.59 353.267 237 353.62ZM236.648 346.925C236.471 344.811 236.471 342.697 236.471 340.759C231.891 340.759 227.31 340.759 222.73 340.406C222.73 342.697 222.73 344.987 222.73 347.277C227.134 346.925 231.891 346.925 236.648 346.925ZM236.119 337.94C236.119 336.531 236.119 335.121 235.943 333.712C231.186 333.183 226.429 333.007 221.673 332.655C221.849 334.417 222.025 336.354 222.201 338.292C226.958 337.764 231.538 337.764 236.119 337.94ZM236.119 330.893C236.119 329.131 236.119 327.193 236.119 325.432C231.01 325.608 225.901 325.608 220.616 325.608C220.968 327.37 221.32 329.131 221.673 330.893C226.429 330.188 231.362 330.365 236.119 330.893ZM215.859 208.452C211.278 207.219 206.874 209.333 204.76 213.737C203.703 215.851 203.351 218.318 203.527 220.784C203.527 222.017 203.879 223.074 204.231 224.308C204.584 225.012 204.76 225.717 205.112 226.422C206.346 227.126 207.579 227.655 208.812 228.36C210.221 221.313 212.512 214.618 215.859 208.452ZM186.085 301.296C185.733 289.14 185.557 276.984 185.557 264.828C175.867 266.589 165.473 268.175 165.825 281.212C166.178 292.311 175.515 300.767 186.085 301.296ZM172.696 363.309C173.577 362.957 174.81 361.724 174.81 360.667C174.634 358.2 171.287 358.552 169.525 358.552C169.349 359.609 168.997 360.49 168.644 361.547C168.468 361.9 168.292 362.252 168.116 362.604C168.468 362.781 168.997 362.957 169.349 363.309C170.406 363.661 171.639 363.661 172.696 363.309ZM169.525 308.695C171.287 306.229 173.225 303.938 175.339 301.824C170.23 299.182 166.354 294.249 164.064 288.611C160.012 293.016 156.312 297.42 152.965 301.824C158.25 304.819 163.535 306.933 169.525 308.695C169.349 308.695 169.349 308.695 169.525 308.695ZM163.888 363.309C168.468 356.262 166.002 347.982 158.602 344.635C158.426 344.635 158.426 344.635 158.25 344.635C150.498 343.754 138.695 343.401 134.466 351.682C130.591 359.609 136.228 368.066 143.98 370.18C151.379 372.118 159.836 369.475 163.888 363.309ZM161.773 323.141C163.359 319.089 165.297 315.214 167.587 311.514C161.95 309.752 156.664 307.109 151.731 303.762C148.56 308.519 145.742 313.276 143.627 318.561C149.794 319.266 156.312 320.851 161.773 323.141ZM159.307 375.994C159.483 374.584 158.426 373.351 158.25 372.118C156.841 372.646 155.431 373.175 154.022 373.527C153.846 375.641 153.846 378.46 156.136 378.812C157.721 379.165 159.131 377.579 159.307 375.994ZM158.426 335.297C158.955 332.302 159.835 329.131 160.893 326.136C154.903 324.903 148.737 323.141 142.747 321.027C141.337 324.727 140.104 328.603 139.223 332.655C145.565 333.536 151.908 334.593 158.426 335.297ZM157.545 341.111C157.545 340.23 157.721 339.349 157.898 338.469C151.555 338.292 144.685 337.059 138.871 334.769C138.518 337.059 138.166 339.173 137.814 341.64C137.814 342.344 137.285 342.697 136.933 342.873C136.933 343.049 136.933 343.225 136.933 343.401C136.933 343.93 136.933 344.282 136.933 344.811C142.218 341.287 149.97 340.406 156.312 341.816C156.488 341.287 156.841 340.935 157.545 340.935C157.369 341.111 157.545 341.111 157.545 341.111ZM142.042 376.17C142.218 374.937 141.866 373.88 142.042 372.823C140.28 372.118 138.518 371.237 136.933 370.004C136.58 372.47 136.228 374.937 135.7 377.579C138.166 378.46 141.866 379.341 142.042 376.17Z" fill="#222221"/>
<path d="M353.98 320.851C353.804 320.851 353.804 320.675 353.627 320.675C325.792 320.675 297.956 321.027 270.121 321.027C243.518 321.203 216.387 319.97 189.785 321.732V321.556C190.314 302.353 189.609 282.974 189.257 263.771V263.594C189.433 263.242 189.433 262.89 189.257 262.537C188.904 259.19 187.847 252.319 189.08 250.381C192.075 245.977 198.594 247.915 203.351 248.091C213.393 248.267 223.258 248.267 233.3 248.443C273.116 248.796 312.931 249.148 352.746 249.5C352.394 273.108 353.275 297.244 353.98 320.851ZM336.362 267.118C337.243 265.18 337.595 263.242 337.419 261.128C337.243 260.071 336.186 259.719 335.481 260.071C335.305 259.719 334.953 259.366 334.248 259.366C291.79 259.895 248.804 258.662 206.346 261.657H206.169C205.641 260.776 204.055 261.128 204.055 262.361C204.055 264.123 203.703 266.413 204.76 267.999C204.936 268.351 205.641 268.351 205.817 267.999L205.993 268.175C205.289 268.527 205.465 269.937 206.522 269.937C249.332 271.698 292.319 270.289 334.953 268.527C335.658 268.351 336.01 267.823 336.362 267.118C336.186 267.118 336.362 267.118 336.362 267.118ZM335.658 278.217C335.834 276.984 336.01 275.398 335.129 274.517C335.129 274.341 334.953 274.341 334.953 274.341C334.777 273.813 334.424 273.284 333.72 273.284C291.438 274.87 249.156 274.693 207.05 275.574C206.169 275.574 205.993 276.455 206.169 276.984C205.641 278.745 205.465 281.212 206.169 282.974C206.169 283.15 206.346 283.15 206.346 283.326C206.169 283.678 206.346 284.383 207.05 284.383C229.248 286.673 252.151 285.969 274.525 285.792C293.376 285.616 315.221 287.378 333.896 283.502C334.777 283.326 334.953 282.621 334.777 281.917C334.777 281.917 334.777 281.917 334.953 281.917C335.305 280.683 335.481 279.626 335.658 278.217ZM333.015 302.529C335.658 300.767 336.891 296.715 334.601 294.249C332.486 291.959 329.315 292.311 326.849 293.896C324.382 294.777 322.973 297.772 324.206 300.415C325.616 303.41 330.196 304.291 333.015 302.529ZM309.408 302.881C312.403 302 314.517 298.829 313.283 295.834C312.226 293.192 308.703 291.43 306.06 292.487C303.594 293.368 302.008 296.363 302.537 299.006C303.065 302.177 306.413 303.762 309.408 302.881ZM296.899 293.72C296.899 293.192 296.547 292.839 296.195 292.487C296.018 291.959 295.666 291.606 294.961 291.606C266.421 290.373 236.471 289.316 207.931 291.254C207.226 291.254 206.874 291.959 207.05 292.487C205.817 294.425 206.169 297.948 206.874 299.71C207.05 299.886 207.226 300.239 207.403 300.239C207.403 300.591 207.403 300.767 207.755 300.943C235.943 305.172 265.893 304.995 293.904 301.824C294.433 301.824 294.785 301.472 294.961 301.12C295.314 301.12 295.842 300.943 295.842 300.415C296.371 298.125 296.899 296.011 296.899 293.72Z" fill="#F9EA9B"/>
<path d="M337.243 260.952C337.419 263.066 337.067 265.004 336.186 266.942C336.01 267.646 335.658 268.175 334.777 268.175C292.143 269.937 248.98 271.346 206.346 269.584C205.289 269.584 205.112 268.175 205.817 267.823C205.993 267.646 206.169 267.646 206.346 267.646C249.156 266.942 291.79 266.942 334.601 265.004C334.777 263.77 334.777 262.537 334.777 261.48C334.601 261.48 334.424 261.656 334.248 261.656C291.79 262.185 248.804 264.475 206.346 262.537C206.346 264.299 206.522 266.237 205.641 267.646C205.465 267.999 204.76 267.999 204.584 267.646C203.527 266.061 203.879 263.947 203.879 262.009C203.879 260.776 205.465 260.599 205.993 261.304H206.169C248.627 258.309 291.614 259.542 334.072 259.014C334.601 259.014 334.953 259.366 335.305 259.718C336.186 259.542 337.243 259.895 337.243 260.952Z" fill="#222221"/>
<path d="M335.129 274.517C335.834 275.574 335.658 277.16 335.658 278.217C335.481 279.45 335.305 280.683 334.601 281.74C334.601 281.74 334.601 281.74 334.424 281.74C334.601 282.445 334.424 283.15 333.544 283.326C315.045 287.202 293.2 285.44 274.173 285.616C251.799 285.792 229.072 286.497 206.698 284.207C205.993 284.207 205.817 283.502 205.993 283.15C205.817 283.15 205.817 282.974 205.817 282.797C205.112 281.212 205.289 278.569 205.817 276.807C205.641 276.279 205.817 275.398 206.698 275.398C248.98 274.341 291.262 274.693 333.367 273.108C334.072 273.108 334.424 273.636 334.601 274.165C334.953 274.341 335.129 274.341 335.129 274.517ZM333.191 281.036C333.015 279.979 333.191 279.098 333.191 278.041C333.191 277.336 333.015 276.631 333.015 275.927C291.79 278.217 249.684 279.802 208.46 277.512C208.46 279.098 208.283 281.388 207.403 282.797C228.896 281.917 250.565 282.974 272.235 282.797C283.158 282.621 293.904 282.445 304.827 282.093C313.988 281.564 323.854 279.979 333.191 281.036Z" fill="#222221"/>
<path d="M334.777 261.656C334.777 262.89 334.777 264.123 334.601 265.18C291.79 267.118 249.156 266.942 206.346 267.823C206.169 267.823 205.993 267.823 205.817 267.999L205.641 267.823C206.522 266.413 206.346 264.475 206.346 262.713C248.804 264.651 291.79 262.361 334.248 261.833C334.424 261.833 334.601 261.656 334.777 261.656Z" fill="#FBF5CC"/>
<path d="M333.015 278.041C333.015 279.098 333.015 279.979 333.015 281.036C323.678 280.155 313.812 281.564 304.475 281.916C293.552 282.269 282.805 282.621 271.882 282.621C250.389 282.974 228.72 281.74 207.05 282.621C207.931 281.212 208.283 278.922 208.107 277.336C249.508 279.45 291.438 278.041 332.663 275.75C333.015 276.631 333.015 277.336 333.015 278.041Z" fill="#FBF5CC"/>
<path d="M325.087 245.096C305.708 244.92 286.329 244.92 266.95 244.744C270.297 226.245 268.183 204.576 266.95 185.902C268.711 185.725 270.473 185.725 272.235 185.725C288.267 185.197 307.293 187.839 316.455 202.814C323.854 214.97 323.854 231.178 325.087 245.096ZM308.351 224.131C312.05 224.131 314.164 220.079 312.579 216.908C311.874 215.146 310.288 214.089 308.703 213.737C305.356 212.504 301.832 215.323 301.48 218.67C301.127 221.841 304.475 224.836 307.47 223.955C307.822 224.131 308.174 224.131 308.351 224.131ZM280.163 233.116C280.339 232.412 279.634 231.707 279.106 232.059C278.401 232.235 277.696 232.764 277.168 233.292C276.463 232.764 275.758 232.235 275.054 231.707C274.525 231.355 273.82 232.235 274.349 232.588C274.877 233.116 275.406 233.821 275.934 234.349C274.877 235.23 273.82 236.111 272.587 236.816C272.059 237.168 272.411 238.402 273.116 238.049C274.525 237.521 275.934 236.816 277.168 235.935C277.168 235.935 277.344 235.935 277.344 235.759C277.696 236.111 278.049 236.64 278.577 236.992C279.634 237.873 281.22 236.287 280.163 235.407C279.81 235.054 279.458 234.878 279.106 234.526C279.634 234.349 279.986 233.821 280.163 233.116ZM278.753 217.084C279.81 217.613 281.22 216.204 280.163 215.323C279.458 214.794 278.753 214.266 277.872 213.913C278.225 213.561 278.577 213.032 278.753 212.68C279.282 211.623 278.049 210.742 277.168 211.447C276.639 211.799 276.287 212.328 275.934 212.856C275.23 212.504 274.525 211.975 273.644 211.975C273.116 211.975 272.763 212.68 273.116 213.032C273.468 213.737 274.173 214.089 274.877 214.618C273.997 215.675 273.116 216.908 272.587 217.965C272.235 218.67 273.116 219.375 273.644 218.846C274.701 217.965 275.582 216.732 276.463 215.851L276.639 215.675C276.991 216.027 277.872 216.556 278.753 217.084ZM278.577 195.239C279.458 195.591 280.163 194.358 279.81 193.653C279.282 192.949 278.577 192.244 277.696 191.715C278.225 191.187 278.929 190.834 279.458 190.13C280.163 189.425 279.282 188.016 278.225 188.72C277.52 189.249 276.815 189.954 276.111 190.658C274.877 189.777 273.82 189.073 272.763 188.192C271.882 187.663 270.825 188.896 271.706 189.601C272.763 190.482 273.644 191.187 274.701 192.068C274.349 192.42 273.997 192.772 273.644 193.125C272.939 193.829 273.997 194.886 274.701 194.182C275.054 193.829 275.406 193.477 275.934 193.125C276.639 194.182 277.52 194.886 278.577 195.239Z" fill="#F4D747"/>
<path d="M340.414 405.239C320.507 404.182 299.542 403.477 279.634 405.063C292.143 379.517 325.616 385.507 340.414 405.239Z" fill="#F1CE30"/>
<path d="M296.195 292.487C296.723 292.663 296.899 293.016 296.899 293.72C296.723 296.011 296.371 298.125 295.842 300.415C295.666 300.943 295.314 301.12 294.961 301.12C294.785 301.472 294.433 301.648 293.904 301.824C265.893 304.995 235.767 305.172 207.931 301.12C207.579 301.12 207.403 300.767 207.579 300.415C207.403 300.239 207.226 300.063 207.05 299.886C206.346 297.948 205.993 294.601 207.226 292.663C207.05 292.135 207.403 291.606 208.107 291.43C236.648 289.492 266.597 290.549 295.137 291.782C295.666 291.782 296.195 292.135 296.195 292.487ZM294.08 299.005C294.08 297.42 294.257 295.834 294.433 294.073C266.421 294.777 237.352 295.482 209.517 293.192C209.341 293.896 209.164 294.425 208.988 295.13C208.812 296.363 208.812 297.772 208.988 299.182C208.988 299.358 208.988 299.534 208.988 299.71C237.352 300.063 265.364 300.239 294.08 299.005C293.904 299.005 294.08 299.005 294.08 299.005Z" fill="#222221"/>
<path d="M294.257 294.249C294.08 295.834 294.08 297.42 294.08 299.005C265.54 300.239 237.352 300.062 208.812 299.886C208.812 299.71 208.988 299.534 208.812 299.358C208.636 298.125 208.636 296.715 208.812 295.306C208.988 294.601 209.164 294.073 209.34 293.368C237.176 295.658 266.421 294.953 294.257 294.249Z" fill="#FBF5CC"/>
<path d="M279.106 232.059C279.81 231.883 280.515 232.588 280.163 233.116C279.986 233.821 279.458 234.349 278.929 234.702C279.282 235.054 279.634 235.23 279.986 235.583C281.044 236.464 279.458 238.049 278.401 237.168C278.049 236.816 277.696 236.464 277.168 235.935L276.992 236.111C275.758 236.992 274.349 237.697 272.939 238.225C272.235 238.578 271.882 237.344 272.411 236.992C273.468 236.287 274.701 235.406 275.758 234.526C275.23 233.997 274.701 233.292 274.173 232.764C273.644 232.235 274.349 231.354 274.877 231.883C275.582 232.412 276.287 232.94 276.992 233.469C277.696 232.764 278.401 232.235 279.106 232.059Z" fill="#222221"/>
<path d="M280.163 215.323C281.22 216.204 279.81 217.437 278.753 217.084C277.872 216.732 276.991 216.204 276.287 215.499L276.111 215.675C275.23 216.732 274.349 217.789 273.292 218.67C272.763 219.198 271.882 218.494 272.235 217.789C272.939 216.556 273.82 215.499 274.525 214.442C273.82 214.089 273.292 213.561 272.763 212.856C272.411 212.504 272.763 211.799 273.292 211.799C274.173 211.975 274.877 212.328 275.582 212.68C275.934 212.152 276.287 211.623 276.815 211.271C277.696 210.566 278.929 211.447 278.401 212.504C278.225 213.032 277.872 213.385 277.52 213.737C278.577 214.266 279.458 214.618 280.163 215.323Z" fill="#222221"/>
<path d="M279.81 193.829C280.339 194.534 279.458 195.591 278.577 195.415C277.52 195.063 276.639 194.358 275.934 193.477C275.406 193.653 275.054 194.006 274.701 194.358C273.997 195.063 272.763 194.006 273.644 193.301C273.997 192.948 274.349 192.596 274.701 192.244C273.644 191.363 272.763 190.658 271.706 189.777C270.825 189.073 271.882 187.663 272.763 188.368C273.997 189.249 275.054 189.954 276.111 190.834C276.815 190.13 277.52 189.425 278.225 188.896C279.106 188.192 279.986 189.601 279.458 190.306C278.929 190.834 278.225 191.363 277.696 191.891C278.401 192.42 279.282 192.948 279.81 193.829Z" fill="#222221"/>
<path d="M264.131 186.078C264.483 205.105 262.898 226.069 265.893 244.744C246.69 244.568 227.487 244.391 208.284 244.391C211.807 229.24 214.45 212.856 225.372 200.876C235.414 190.13 249.861 187.135 264.131 186.078ZM235.238 220.784C236.824 216.38 232.596 211.271 227.839 213.385C227.134 213.737 226.606 214.089 226.077 214.618C225.549 214.97 225.196 215.323 224.844 215.851C223.435 217.613 223.435 220.079 224.844 222.017C227.663 225.893 233.653 225.188 235.238 220.784Z" fill="#F6E16F"/>
<path d="M259.198 406.296C259.022 406.296 259.022 406.12 258.846 406.12C258.141 406.12 257.436 405.943 256.555 405.943C256.203 405.943 255.851 405.943 255.674 406.12C237 405.943 218.325 406.296 199.827 407.705C203.527 395.197 214.097 389.383 227.134 389.031C238.938 388.854 256.908 391.849 259.198 406.296Z" fill="#F1CE30"/>
<path d="M234.357 356.967C247.218 358.905 248.627 377.051 249.508 388.854C237.881 383.217 221.497 383.217 210.045 389.207C210.221 375.289 217.268 354.324 234.357 356.967Z" fill="#F6E16F"/>
<path d="M236.824 349.215C237 350.801 237 352.21 237.176 353.796C235.767 353.443 234.181 353.091 232.419 353.091C228.367 353.091 224.844 354.148 221.673 355.91C222.025 353.62 222.377 351.329 222.554 348.863C227.134 349.039 231.891 349.215 236.824 349.215Z" fill="#FBF5CC"/>
<path d="M236.295 340.583C236.295 342.697 236.471 344.811 236.471 346.749C231.715 346.749 227.134 346.925 222.377 347.101C222.554 344.811 222.554 342.521 222.377 340.23C227.134 340.759 231.715 340.759 236.295 340.583Z" fill="#FBF5CC"/>
<path d="M236.119 333.536C236.119 334.945 236.119 336.354 236.295 337.764C231.715 337.588 227.134 337.764 222.554 338.116C222.377 336.178 222.201 334.417 222.025 332.479C226.606 333.007 231.362 333.183 236.119 333.536Z" fill="#FBF5CC"/>
<path d="M236.119 325.432C236.119 327.193 236.119 329.131 236.119 330.893C231.362 330.364 226.429 330.188 221.673 330.893C221.32 329.131 221.144 327.369 220.616 325.608C225.725 325.432 231.01 325.432 236.119 325.432Z" fill="#FBF5CC"/>
<path d="M228.015 213.385C232.596 211.271 237 216.38 235.414 220.784C233.653 225.188 227.839 225.893 225.196 222.017C223.963 220.256 223.963 217.789 225.196 215.851C225.549 215.323 225.901 214.97 226.429 214.618C226.782 214.089 227.31 213.561 228.015 213.385Z" fill="#222221"/>
<path d="M204.76 213.737C206.874 209.333 211.455 207.219 215.859 208.452C212.512 214.618 210.221 221.313 208.636 228.183C207.403 227.479 206.169 226.95 204.936 226.245C204.584 225.541 204.408 224.836 204.055 224.131C203.703 223.074 203.527 221.841 203.351 220.608C203.351 218.318 203.703 215.851 204.76 213.737Z" fill="#F1CE30"/>
<path d="M185.557 264.828C185.733 276.984 185.733 289.14 186.085 301.296C175.515 300.767 166.178 292.311 165.825 281.212C165.297 268.175 175.691 266.589 185.557 264.828Z" fill="#F1CE30"/>
<path d="M174.81 360.843C174.81 361.9 173.753 363.133 172.696 363.485C171.639 363.838 170.406 363.662 169.349 363.662C168.997 363.485 168.468 363.133 168.116 362.957C168.292 362.604 168.468 362.252 168.644 361.9C168.997 360.843 169.349 359.962 169.525 358.905C171.287 358.729 174.634 358.376 174.81 360.843Z" fill="#F6E16F"/>
<path d="M175.339 301.824C173.225 303.938 171.287 306.229 169.525 308.695C169.525 308.695 169.349 308.695 169.349 308.519C163.711 306.757 158.426 304.643 153.141 301.824C156.312 297.244 160.012 293.016 164.24 288.611C166.354 294.249 170.23 299.182 175.339 301.824Z" fill="#FBF5CC"/>
<path d="M158.778 344.635C166.002 347.982 168.644 356.262 164.064 363.309C159.836 369.651 151.555 372.294 144.332 370.356C136.58 368.242 130.767 359.786 134.819 351.858C138.871 343.578 150.851 344.106 158.602 344.811C158.602 344.635 158.602 344.635 158.778 344.635Z" fill="#F1CE30"/>
<path d="M167.587 311.514C165.297 315.213 163.359 319.089 161.773 323.141C156.312 320.851 149.794 319.265 143.627 318.561C145.742 313.452 148.56 308.519 151.731 303.762C156.664 307.109 161.95 309.752 167.587 311.514Z" fill="#FBF5CC"/>
<path d="M158.25 372.118C158.602 373.527 159.483 374.584 159.307 375.994C159.131 377.403 157.898 378.989 156.136 378.812C153.846 378.46 153.846 375.641 154.022 373.527C155.431 373.175 156.841 372.822 158.25 372.118Z" fill="#F6E16F"/>
<path d="M160.716 325.96C159.659 328.955 158.955 332.126 158.25 335.121C151.731 334.417 145.565 333.536 139.047 332.479C139.928 328.427 141.161 324.551 142.57 320.851C148.56 322.965 154.726 324.903 160.716 325.96Z" fill="#FBF5CC"/>
<path d="M157.898 338.468C157.721 339.349 157.721 340.23 157.545 341.111C157.369 341.111 157.369 341.111 157.193 341.111C156.488 341.111 156.136 341.463 155.96 341.992C149.617 340.583 142.042 341.287 136.58 344.987C136.58 344.458 136.58 344.106 136.58 343.578C136.58 343.401 136.58 343.225 136.58 343.049C137.285 342.697 137.638 342.344 137.814 341.64C137.99 339.349 138.342 337.059 138.871 334.769C144.684 337.059 151.555 338.292 157.898 338.468Z" fill="#FBF5CC"/>
<path d="M142.042 372.823C141.866 373.88 142.218 374.937 142.042 376.17C141.69 379.165 137.99 378.46 135.876 377.579C136.404 375.113 136.757 372.646 137.109 370.004C138.518 371.237 140.28 372.294 142.042 372.823Z" fill="#F6E16F"/>
</g>
</g>
<defs>
<linearGradient id="paint0_linear_11845_50679" x1="143.5" y1="0" x2="143.5" y2="422" gradientUnits="userSpaceOnUse">
<stop stop-color="#4778EC"/>
<stop offset="1" stop-color="#4A47EC" stop-opacity="0.74"/>
</linearGradient>
<linearGradient id="paint1_linear_11845_50679" x1="216.719" y1="112.386" x2="216.719" y2="479.811" gradientUnits="userSpaceOnUse">
<stop stop-color="#96F1D8"/>
<stop offset="0.71916" stop-color="#279979"/>
</linearGradient>
</defs>
</svg>
