<svg width="287" height="422" viewBox="0 0 287 422" fill="none" xmlns="http://www.w3.org/2000/svg">
<mask id="mask0_11845_50449" style="mask-type:alpha" maskUnits="userSpaceOnUse" x="0" y="0" width="287" height="422">
<rect width="287" height="422" rx="10" fill="url(#paint0_linear_11845_50449)"/>
</mask>
<g mask="url(#mask0_11845_50449)">
<path d="M99.9999 265.5C45.5999 306.7 75 389 116.5 405C136 415.5 126 425 131.5 452.5C137 480 221 511 318.5 412.5C416 314 326.5 145 304.5 130C282.5 115 250.113 105.536 210.5 118.5C183 127.5 165 146.5 162.5 176C160 205.5 168 214 99.9999 265.5Z" fill="url(#paint1_linear_11845_50449)"/>
<g opacity="0.7">
<path d="M324.603 370.333C333.281 376.109 332.858 392.155 321.584 394.909C320.861 395.055 320.283 394.477 320.282 393.898C318.547 393.177 316.812 392.166 315.654 390.721C315.654 390.721 315.654 390.721 315.654 390.577C314.931 390.288 314.497 389.421 315.219 388.842C316.375 387.974 317.386 386.672 317.674 385.227C318.106 382.769 316.659 380.601 314.058 381.471C310.878 382.485 310.158 386.099 310.593 388.845C310.739 389.713 309.872 390.436 309.004 390.003C307.703 389.425 306.401 388.993 305.1 388.415C304.666 388.56 304.377 388.271 304.232 387.838C304.232 387.693 304.232 387.693 304.232 387.549C303.071 380.177 307.112 371.356 313.616 368.75C313.616 368.605 313.616 368.605 313.616 368.461C315.195 352.703 315.759 331.019 304.475 318.449C302.597 320.475 300.285 321.777 297.394 321.345C297.54 324.092 297.542 326.838 297.688 329.585C298.421 344.185 300.165 358.64 300.464 373.24C300.465 374.83 298.586 374.976 297.862 373.964C298.008 374.832 297.43 375.844 296.274 375.989C288.612 376.139 280.951 376.433 273.289 376.583C277.053 384.82 277.06 394.65 273.162 402.892C278.801 404.768 282.996 409.246 282.134 416.186C281.989 416.764 281.701 417.198 281.123 417.343C280.978 417.777 280.545 418.211 279.822 418.211C269.848 418.941 259.584 418.947 249.61 418.52C248.309 418.521 248.307 416.642 249.608 416.497L249.753 416.497C248.881 409.992 252.492 405.508 257.839 403.336C257.695 403.192 257.695 403.047 257.839 402.758C260.001 393.794 259.128 385.555 255.509 377.173C246.546 377.468 237.584 377.763 228.477 378.058C225.736 386.011 224.873 393.239 225.457 401.623C227.048 402.345 228.639 403.356 230.085 404.367C234.713 407.689 233.703 410.725 234.718 415.784C236.02 416.217 235.876 418.096 234.286 418.242C223.156 419.261 211.302 418.546 200.315 417.975C199.303 417.976 199.157 416.53 200.025 416.241C196.84 409.448 202.762 402.65 209.265 400.044C207.092 392.962 207.087 385.445 208.673 378.216C203.324 378.22 197.975 378.223 192.627 378.082C191.904 378.083 191.614 377.649 191.47 377.216C190.747 377.216 189.879 376.638 189.878 375.771C189.434 360.159 189.424 344.402 189.413 328.79C189.412 326.477 189.41 324.164 189.264 321.851C185.94 321.998 182.758 320.265 180.443 317.665C178.71 319.545 177.121 321.57 175.677 323.595C175.677 324.029 175.388 324.318 175.099 324.463C172.211 328.657 169.756 332.851 168.025 337.333L168.025 337.478C164.706 346.298 163.989 355.695 166.454 366.101C174.549 366.096 181.638 374.331 182.655 382.57C182.655 382.715 182.655 382.715 182.655 382.715C183.378 382.859 183.812 383.726 183.234 384.304C181.501 385.896 178.031 385.898 175.718 385.321C175.285 385.466 174.851 385.322 174.561 384.888C173.693 383.588 173.114 381.998 172.246 380.698C171.233 379.108 168.919 377.375 167.474 379.544C165.453 382.726 170.08 385.47 172.25 386.914C172.973 387.347 172.974 388.359 172.251 388.793C170.951 389.661 169.795 390.529 168.639 391.397C168.35 391.687 167.916 391.543 167.771 391.253C162.422 390.101 156.493 387.358 154.61 381.866C153.307 377.819 154.605 373.192 157.494 370.155C152.419 348.041 158.763 322.45 175.81 306.971C175.955 306.826 175.955 306.826 176.099 306.826C176.383 298.73 183.32 295.112 190.547 294.095C190.979 292.36 191.412 290.77 191.989 289.179C192.133 288.89 192.278 288.745 192.423 288.745C192.567 288.311 193 288.022 193.578 287.877C204.853 286.713 216.273 285.983 227.693 285.83L228.994 285.83C238.535 285.679 248.22 285.672 257.761 285.955L258.917 285.954C270.627 286.236 282.192 286.806 293.757 287.521C295.058 287.665 295.493 288.676 295.349 289.688C295.493 289.688 295.638 289.688 295.638 289.688C296.216 289.688 296.794 289.977 296.795 290.699C296.94 291.278 296.94 291.856 297.085 292.434C297.23 292.434 297.519 292.289 297.808 292.433C305.471 294.018 309.812 301.243 308.805 308.906C308.95 308.906 308.95 309.05 308.95 309.05C324.717 324.507 329.793 349.224 324.748 370.188C324.748 370.043 324.748 370.188 324.603 370.333ZM328.226 383.629C328.946 378.714 326.629 373.801 322.147 371.635C311.735 366.583 306.105 378.585 305.966 387.114C306.834 387.258 307.557 387.546 308.424 387.69C307.988 383.354 311.309 378.437 315.935 378.867C321.718 379.442 320.567 386.815 317.388 389.997C318.834 390.575 320.136 391.296 321.582 391.874C321.727 392.018 321.871 392.018 322.016 392.163C325.05 389.992 327.506 387.822 328.226 383.629ZM323.728 358.768C323.871 355.443 323.868 352.119 323.577 348.939C321.409 349.085 319.096 348.797 317.072 348.654C317.219 351.979 317.221 355.303 316.934 358.628C319.247 358.482 321.56 358.625 323.728 358.768ZM317.071 347.064C319.094 346.773 321.407 346.627 323.431 346.626C322.995 343.157 322.27 339.832 321.4 336.363C320.533 336.509 319.666 336.509 318.654 336.654C317.642 336.8 316.775 337.089 315.908 337.524C316.488 340.703 316.779 343.884 317.071 347.064ZM322.434 369.033C323.01 366.286 323.442 363.539 323.73 360.937C321.561 360.794 319.248 360.506 317.079 360.218C316.792 362.965 316.505 365.712 316.073 368.17C317.952 367.735 320.121 368.167 322.434 369.033ZM320.676 334.485C319.517 330.727 317.925 326.969 316.043 323.357C315.031 323.791 314.164 324.37 313.153 324.804C312.719 324.949 312.43 324.805 312.285 324.516C312.14 324.227 312.285 323.937 312.574 323.793C313.441 323.214 314.597 322.779 315.319 322.056C313.293 318.154 310.977 314.398 308.228 310.785C307.652 312.954 306.641 315.268 305.342 317.148C307.8 319.315 309.681 321.915 311.274 324.95C313.011 328.274 314.314 332.176 315.329 336.078C317.208 335.499 318.942 334.63 320.676 334.485ZM297.392 319.466C303.608 319.607 306.639 311.22 306.635 306.305C306.631 300.523 303.159 295.899 297.665 294.602C297.957 298.938 297.382 303.42 297.384 307.612C297.098 311.516 297.245 315.563 297.392 319.466ZM296.271 372.52C296.85 372.519 297.283 372.808 297.573 373.242C295.829 359.51 295.386 345.343 294.509 331.611C294.071 324.817 293.778 318.167 293.773 311.373C293.769 305.735 296.365 296.048 294.193 290.701C294.048 290.701 293.904 290.846 293.759 290.701C260.51 288.989 227.407 290.312 194.158 290.19C191.421 303.78 192.732 318.813 192.741 332.691C192.751 347.147 193.049 361.458 193.203 375.913C227.317 372.566 262.011 373.121 296.271 372.52ZM251.487 416.206C260.739 415.477 270.279 415.037 279.531 415.32C278.653 399.853 252.634 401.027 251.487 416.206ZM273.156 393.93C273.444 391.472 273.298 389.159 273.151 386.846C273.007 386.847 273.007 386.991 272.862 386.991C270.694 387.282 268.526 386.994 266.357 386.996C264.623 386.997 262.743 386.998 261.008 386.565C261.444 389.312 261.446 392.058 261.159 394.95C262.893 394.804 264.628 394.803 266.362 394.657C268.675 394.511 270.988 394.22 273.156 393.93ZM272.716 384.534C272.281 381.932 271.556 379.331 270.543 376.585C266.495 376.732 262.303 376.879 258.255 377.026C259.414 379.628 260.283 382.229 260.863 384.975C262.597 384.396 264.621 384.539 266.356 384.394C268.38 384.537 270.692 384.246 272.716 384.534ZM271.427 402.315C272.004 400.436 272.436 398.412 272.724 396.532C268.966 396.968 264.629 397.26 261.015 396.54C260.727 398.564 260.295 400.588 259.574 402.612C263.331 401.453 267.668 401.306 271.427 402.315ZM231.971 415.497C231.102 412.606 230.811 409.281 228.641 406.825C226.326 404.08 220.976 402.638 217.507 402.207C212.447 401.487 207.099 402.792 204.066 407.131C202.189 410.023 202.046 412.914 201.47 416.095C211.444 415.221 222.141 414.636 231.971 415.497ZM223.567 385.289C224.144 382.832 224.865 380.374 225.875 378.204C220.96 378.352 216.045 378.356 211.275 378.359C210.843 380.383 210.555 382.262 210.411 384.286C214.314 383.416 219.373 382.69 222.699 383.989C223.277 384.133 223.567 384.856 223.422 385.289C223.278 385.579 223.134 385.868 222.7 385.868C220.677 386.448 218.363 386.016 216.195 386.017C214.171 386.018 212.292 386.02 210.268 385.877C210.125 388.045 210.126 390.069 210.272 392.237C214.175 391.801 218.512 391.509 222.415 391.651C222.559 391.651 222.704 391.651 222.704 391.795C222.847 389.482 223.135 387.313 223.567 385.289ZM223.722 400.757C223.142 398.589 222.851 396.132 222.85 393.819C222.705 393.819 222.705 393.963 222.561 393.964C218.658 394.4 214.466 394.258 210.418 394.116C210.564 395.995 210.71 397.73 211 399.609C211.723 399.464 212.445 399.174 213.168 399.174C216.637 398.883 220.252 399.458 223.722 400.757ZM189.408 320.116C189.113 312.166 188.819 303.926 190.259 296.119C185.056 298.146 179.419 299.451 178.99 306.246C178.561 312.462 183.48 318.819 189.408 320.116ZM180.343 383.15C180.342 383.005 180.198 383.005 180.198 382.861C178.891 374.188 169.922 364.22 160.819 370.875C160.675 371.02 160.385 371.165 160.241 371.309C160.097 371.888 159.663 372.322 159.085 372.322C156.196 375.649 155.91 380.42 158.948 384.031C161.263 386.777 164.878 388.364 168.204 389.808C168.782 389.229 169.36 388.65 170.082 388.072C166.611 385.906 162.85 381.716 166.172 377.811C167.472 376.075 169.64 375.929 171.52 376.795C174.123 378.239 174.993 381.274 176.44 383.731C177.452 383.73 178.464 383.729 179.475 383.584C179.62 383.295 180.053 383.15 180.343 383.15ZM179.141 315.786C177.694 313.619 176.536 311.018 176.39 308.56C173.79 311.887 171.335 315.503 169.313 318.973C170.181 319.551 170.904 319.984 171.772 320.417C172.495 320.85 173.218 321.139 174.085 321.572C175.53 319.547 177.263 317.522 179.141 315.786ZM172.641 323.308C171.918 322.875 171.339 322.441 170.761 322.008C170.038 321.43 169.17 320.853 168.447 320.275C165.848 324.758 163.827 329.53 162.24 334.301C163.397 334.59 164.698 335.022 165.855 335.311C167.587 331.117 169.897 327.068 172.641 323.308ZM165.297 365.957C164.573 364.079 163.849 362.055 163.414 360.032C161.968 360.033 160.378 359.889 158.788 359.89C158.934 362.637 159.225 365.239 159.661 367.985C161.684 366.827 163.418 366.248 165.297 365.957ZM165.278 337.19C164.121 336.757 162.964 336.324 161.952 335.747C160.798 339.651 159.933 343.554 159.358 347.602C159.792 347.602 160.225 347.457 160.514 347.457C161.237 347.457 162.104 347.312 162.827 347.456C163.114 343.986 163.979 340.516 165.278 337.19ZM162.684 349.335C161.961 349.48 161.383 349.336 160.66 349.192C160.226 349.192 159.793 349.048 159.214 349.048C158.927 352.229 158.785 355.554 158.932 358.878C160.377 358.733 161.823 358.732 163.268 358.731C162.544 355.696 162.397 352.515 162.684 349.335Z" fill="#222221"/>
<path d="M305.002 241.833C305.149 245.592 306.455 253.252 304 256.579C302.267 259.037 297.785 258.173 295.038 257.452C294.895 259.91 294.752 262.367 294.609 264.825C294.61 265.403 294.321 265.692 294.032 265.982C294.611 266.849 294.178 268.295 292.877 268.295C281.746 268.303 270.47 268.166 259.339 267.884C259.341 270.052 259.342 272.221 259.343 274.389C259.344 274.678 259.344 274.823 259.344 275.112C259.346 278.581 259.204 282.195 259.062 285.665L257.905 285.666C257.905 284.509 257.759 283.497 257.759 282.486C248.507 282.781 238.966 282.787 229.714 282.215C229.57 283.372 229.427 284.528 229.283 285.54L227.982 285.541C227.257 282.506 227.544 279.181 227.686 276C227.829 273.254 227.827 270.363 228.114 267.616C217.128 267.623 206.141 267.486 195.299 266.337C194.865 266.337 194.576 265.903 194.431 265.614C193.997 265.47 193.708 265.326 193.708 264.892C193.128 262.29 192.837 259.544 192.401 256.942C189.799 257.089 187.053 256.946 185.172 255.068C182.713 252.467 182.999 248.13 182.997 244.806C182.849 240.18 182.122 233.386 184.143 228.903C185.731 225.578 188.912 226.587 191.947 226.296C192.092 226.296 192.236 226.296 192.236 226.296C192.812 222.971 193.822 219.645 195.844 217.042C199.022 212.848 203.213 211.833 208.128 211.54C217.524 211.1 226.92 211.383 236.317 211.522C237.326 207.329 238.335 202.847 239.633 198.654C238.766 198.365 238.042 197.932 237.464 197.354C237.319 197.21 237.174 196.921 237.174 196.632C234.571 194.176 234.278 189.695 236.879 187.091C239.479 184.487 244.105 184.339 246.853 186.94C249.457 189.54 249.605 194.31 246.86 197.059C246.282 197.637 245.415 198.216 244.548 198.506C244.693 198.65 244.837 198.795 244.837 198.939C245.418 203.131 246.289 207.323 246.725 211.37C255.109 211.365 263.349 211.359 271.733 211.353C277.082 211.35 284.888 210.188 289.66 213.654C293.71 216.687 294.436 222.036 294.873 226.95C304.991 224.631 304.852 233.593 305.002 241.833ZM302.407 251.954C303.128 250.074 302.548 246.75 302.547 244.87C302.544 240.1 303.836 227.812 295.309 229.841C295.164 229.841 295.02 229.841 294.875 229.842C294.876 230.42 294.876 230.998 295.021 231.432C295.604 239.671 295.755 247.911 295.326 256.006C298.073 255.571 300.819 256.003 302.407 251.954ZM291.857 255.864C291.998 251.383 292.14 247.046 291.992 242.565C291.842 233.313 293.566 217.41 281.132 214.961C274.626 213.664 266.965 214.826 260.316 214.83C253.666 214.835 246.872 214.839 240.222 214.699C228.657 214.707 200.031 209.667 195.415 223.403C192.241 232.946 193.549 244.22 194.568 254.772C210.614 254.617 226.516 255.04 242.562 255.174C258.608 255.308 274.798 254.285 290.7 254.997C291.423 255.286 291.712 255.575 291.857 255.864ZM291.285 264.972C291.427 262.369 291.57 259.623 291.713 257.021C291.569 257.31 291.28 257.599 290.846 257.599C274.945 258.911 258.61 258.199 242.708 258.065C226.807 257.931 210.761 257.797 194.859 256.652C195.15 259.398 195.296 262 195.442 264.602C211.487 263.435 227.823 264.58 243.869 264.714C259.626 264.993 275.528 264.982 291.285 265.55C291.285 265.261 291.285 265.116 291.285 264.972ZM257.468 280.173C257.467 278.727 257.322 277.426 257.321 275.981C248.213 275.698 238.961 275.415 229.854 274.409C229.854 275.132 229.71 275.999 229.711 276.722C229.567 278.023 229.568 279.324 229.569 280.625C238.675 279.752 248.361 279.601 257.468 280.173ZM257.319 273.379C257.318 271.499 257.317 269.765 257.315 267.885C252.834 267.744 248.353 267.747 243.871 267.605C239.39 267.608 234.909 267.611 230.283 267.614C230.139 269.349 230.14 271.084 229.997 272.963C234.623 272.816 239.249 272.812 243.73 272.954C248.067 273.096 252.404 273.237 256.741 273.379L257.319 273.379ZM244.835 195.47C246.569 193.734 246.422 190.554 244.686 188.82C242.95 187.087 239.77 187.234 238.181 189.114C236.448 190.994 236.739 193.741 238.041 195.619C238.185 195.619 238.33 195.619 238.475 195.763C239.053 196.052 239.632 196.341 240.21 196.485C240.498 195.762 241.511 196.05 241.656 196.629C242.812 196.772 243.968 196.338 244.835 195.47ZM238.485 211.52C240.509 211.519 242.388 211.518 244.412 211.516C243.542 207.614 243.106 203.566 242.525 199.519C242.525 199.23 242.525 199.085 242.524 198.941C242.091 198.941 241.513 199.086 241.079 198.942C239.925 203.135 238.482 207.328 237.184 211.377C237.618 211.521 238.051 211.52 238.485 211.52ZM191.375 235.115C191.374 233.091 191.517 230.922 191.66 228.754C190.648 228.899 189.636 228.9 188.624 228.756C186.457 230.492 185.446 232.661 185.593 235.263C185.305 237.287 185.306 239.455 185.308 241.479C185.309 243.503 185.021 245.816 185.456 247.695C186.326 251.598 188.641 253.62 191.966 254.34C191.384 248.125 191.235 241.62 191.375 235.115Z" fill="#222221"/>
<path d="M297.573 373.097C297.283 372.664 296.849 372.375 296.271 372.375C262.011 372.976 227.317 372.421 193.203 375.624C193.049 361.168 192.75 346.857 192.741 332.402C192.731 318.524 191.276 303.635 194.158 289.9C227.406 290.023 260.509 288.555 293.759 290.412C293.904 290.412 294.048 290.412 294.193 290.412C296.365 295.904 293.769 305.446 293.773 311.084C293.777 317.878 294.071 324.528 294.509 331.322C295.386 345.343 295.829 359.365 297.573 373.097ZM280.47 305.455C281.192 304.587 280.902 302.853 279.456 302.854C258.205 302.145 236.81 301.292 215.56 301.017C212.235 301.019 209.054 300.299 206.888 303.047C205.01 305.505 206.171 311.432 206.028 314.323C205.887 319.672 205.457 325.021 206.183 330.369C206.183 330.369 206.183 330.369 206.183 330.513C206.039 331.236 206.618 331.67 207.196 331.814C206.907 332.392 207.197 333.115 207.92 333.114C231.339 334.833 254.902 334.239 278.321 334.657C279.333 334.657 279.766 333.934 279.765 333.066C280.054 332.922 280.343 332.777 280.343 332.343C280.482 323.525 280.62 314.418 280.47 305.455ZM277.321 352.583C281.944 348.099 278.18 339.573 271.531 341.023C270.808 340.878 270.085 341.023 269.363 341.313C269.218 341.313 269.218 341.458 269.074 341.458C266.906 342.038 265.172 343.773 265.029 346.231C264.74 346.231 264.451 346.52 264.451 346.81C264.889 353.314 272.264 357.357 277.321 352.583ZM246.386 353.616C250.575 348.12 245.366 342.052 239.584 341.767C239.584 341.622 239.439 341.622 239.295 341.622C238.861 341.478 238.283 341.623 237.849 341.623L237.705 341.623C237.415 341.623 237.271 341.624 237.126 341.768C234.958 342.348 233.08 343.939 232.648 346.253C232.504 346.831 232.504 347.409 232.649 347.987C231.497 354.782 242.342 358.967 246.386 353.616ZM219.064 353.49C224.41 349.149 221.368 340.189 214.286 341.061C213.852 340.916 213.418 340.917 212.985 341.062C212.84 340.917 212.84 340.917 212.551 340.773C209.226 340.197 206.481 343.234 206.483 346.415C206.483 346.848 206.628 347.426 206.773 347.86C205.763 350.174 207.644 352.919 209.813 354.074C212.561 355.662 216.464 355.515 219.064 353.49Z" fill="#E09E25"/>
<path d="M291.993 242.709C292.14 247.19 291.998 251.527 291.857 256.009C291.712 255.72 291.423 255.431 290.989 255.431C274.943 254.719 258.897 255.597 242.851 255.608C226.805 255.474 210.903 255.051 194.858 255.206C193.839 244.654 192.53 233.379 195.704 223.836C200.321 210.1 228.947 214.996 240.511 215.133C247.161 215.128 253.955 215.268 260.605 215.264C267.255 215.26 274.916 214.098 281.422 215.395C293.566 217.41 291.842 233.313 291.993 242.709ZM286.353 240.111C286.496 238.231 285.339 236.642 283.604 235.92C282.881 235.632 282.013 235.488 281.29 235.488C278.255 235.779 276.378 239.25 277.536 241.996C277.971 243.152 278.983 243.73 279.995 244.018C279.995 244.018 280.14 244.018 280.14 244.163C283.032 245.317 286.066 243.002 286.353 240.111ZM206.993 244.645C209.16 241.608 207.278 237.272 203.519 236.986C202.652 236.842 201.929 237.131 201.206 237.566C198.605 238.579 196.872 241.472 198.464 244.073C200.345 247.107 204.972 247.538 206.993 244.645Z" fill="#E8C280"/>
<path d="M291.713 256.876C291.57 259.478 291.427 262.225 291.285 264.827C291.285 264.972 291.285 265.116 291.285 265.261C275.528 264.838 259.626 264.704 243.869 264.425C227.823 264.147 211.487 263.146 195.442 264.313C195.296 261.711 195.149 259.109 194.859 256.362C210.761 257.508 226.662 257.642 242.708 257.776C258.61 257.91 274.945 258.622 290.846 257.31C291.28 257.455 291.569 257.165 291.713 256.876Z" fill="#E09E25"/>
<path d="M283.748 235.776C285.339 236.497 286.641 238.087 286.498 239.966C286.211 243.002 283.176 245.172 280.284 244.018L280.14 243.873C279.128 243.585 278.115 242.863 277.681 241.851C276.523 239.105 278.4 235.635 281.435 235.344C282.158 235.343 282.881 235.487 283.748 235.776C283.604 235.776 283.604 235.776 283.748 235.776Z" fill="#222221"/>
<path d="M279.456 302.998C280.902 302.997 281.192 304.732 280.47 305.6C280.62 314.562 280.482 323.67 280.488 332.632C280.488 333.066 280.199 333.211 279.91 333.355C279.91 334.078 279.477 334.946 278.465 334.947C255.047 334.528 231.339 335.123 208.064 333.403C207.342 333.404 207.052 332.681 207.341 332.103C206.618 331.959 206.184 331.525 206.328 330.802C206.328 330.802 206.328 330.802 206.328 330.658C205.602 325.31 206.032 319.961 206.173 314.612C206.315 311.721 205.155 305.795 207.032 303.336C209.199 300.443 212.38 301.164 215.705 301.306C236.81 301.437 258.061 302.29 279.456 302.998ZM278.463 331.766C278.608 331.766 278.608 331.766 278.753 331.911C278.317 329.02 278.026 326.129 277.879 323.238C277.735 323.382 277.446 323.527 277.012 323.672C273.977 323.963 270.941 324.399 267.906 324.69C267.183 324.835 266.604 323.968 266.604 323.39C266.313 320.21 265.877 317.319 265.152 314.428C264.432 318.187 263.856 322.091 263.425 325.849C263.282 327.295 261.403 327.585 260.968 326.14C259.664 322.382 258.361 318.625 257.057 314.867C256.769 316.313 256.481 317.759 256.193 319.205C256.193 319.927 255.615 320.361 254.893 320.506C250.267 320.943 245.497 321.235 240.871 321.672C240.293 321.673 239.859 321.239 239.714 320.806C238.99 318.493 238.41 316.181 237.686 313.868C236.821 317.627 235.812 321.242 234.513 325.001C234.369 325.58 233.791 325.869 233.213 325.87C232.779 325.87 232.49 325.725 232.345 325.292C230.463 320.956 228.87 316.765 227.71 312.429C226.989 314.598 226.123 316.767 225.402 318.936C225.258 319.37 224.824 319.804 224.246 319.804C219.042 319.518 213.693 319.233 208.488 318.658C208.346 322.272 208.349 325.886 207.773 329.5C208.062 329.645 208.351 329.789 208.351 330.223C208.352 330.512 208.352 330.801 208.063 330.946C208.207 330.946 208.207 331.09 208.208 331.235C216.447 330.796 224.687 330.79 232.927 330.785C248.25 331.064 263.429 331.632 278.463 331.766ZM278.157 305.89C273.676 305.749 269.339 305.607 265.002 305.466C255.75 305.183 246.643 304.9 237.391 304.761C235.078 304.763 232.909 304.62 230.596 304.621C226.838 304.479 223.079 304.337 219.321 304.34C212.671 304.199 210.646 303.189 209.206 310.996C208.774 313.165 208.631 315.478 208.632 317.646C212.102 317.644 216.005 318.219 219.329 317.639C224.822 316.623 225.253 313.009 226.985 308.238C227.418 307.225 229.008 307.08 229.298 308.236C230.313 312.717 231.616 316.908 233.354 321.099C234.652 316.906 235.661 312.569 236.381 308.087C236.525 307.508 236.959 307.219 237.537 307.219C238.115 307.218 238.694 307.507 238.838 308.085C240.577 314.155 241.738 321.093 249.976 318.341C254.746 316.748 254.021 313.713 255.897 309.519C256.475 308.507 257.921 308.94 258.21 309.807C259.514 313.275 260.673 316.744 261.831 320.068C262.407 316.165 262.983 312.406 263.992 308.647C264.136 308.068 264.57 307.779 265.148 307.778C265.726 307.778 266.305 308.067 266.45 308.645C267.318 310.957 267.757 318.329 269.204 319.919C271.374 322.375 274.264 321.072 277.299 320.781C277.589 320.78 277.733 320.78 278.022 320.925C277.441 315.866 277.582 310.806 278.157 305.89Z" fill="#222221"/>
<path d="M278.752 331.911C278.608 331.911 278.608 331.911 278.463 331.766C263.429 331.632 248.25 331.064 233.216 330.929L233.212 325.581C233.79 325.58 234.368 325.146 234.512 324.712C235.811 321.098 236.82 317.338 237.685 313.579C238.41 315.892 238.989 318.204 239.714 320.517C239.859 320.95 240.437 321.528 240.871 321.383C245.496 320.946 250.267 320.654 254.892 320.217C255.615 320.217 256.193 319.638 256.192 318.916C256.48 317.47 256.769 316.024 257.057 314.578C258.36 318.336 259.664 322.094 260.967 325.851C261.402 327.296 263.281 326.862 263.425 325.56C263.856 321.657 264.431 317.898 265.152 314.139C265.876 317.03 266.312 319.921 266.603 323.101C266.604 323.679 267.183 324.546 267.905 324.401C270.941 324.11 273.976 323.674 277.012 323.383C277.301 323.383 277.59 323.238 277.879 322.949C278.025 326.129 278.317 329.02 278.752 331.911Z" fill="#E8C280"/>
<path d="M264.857 305.466C269.338 305.607 273.675 305.749 278.012 305.891C277.437 310.806 277.296 316.01 277.589 321.07C277.444 320.925 277.155 320.925 276.866 320.925C273.83 321.217 270.94 322.52 268.77 320.064C267.323 318.474 266.885 311.102 266.016 308.79C265.871 308.212 265.292 307.923 264.714 307.923L264.857 305.466Z" fill="#E8C280"/>
<path d="M271.531 341.023C278.179 339.573 281.944 348.099 277.321 352.583C272.264 357.357 264.889 353.314 264.596 346.954C264.596 346.665 264.885 346.376 265.174 346.375C265.317 343.918 267.05 342.182 269.218 341.602C269.363 341.602 269.363 341.458 269.507 341.458C270.085 341.024 270.808 340.878 271.531 341.023ZM276.304 345.212C277.173 348.391 274.574 351.718 271.538 352.154C270.815 352.299 270.093 352.155 269.37 352.01C271.105 353.021 273.129 353.164 275.152 351.862C278.186 349.836 277.895 346.512 276.014 344.634C276.159 344.633 276.304 344.922 276.304 345.212ZM271.536 349.551C273.415 349.117 274.57 346.947 273.702 345.213C272.833 343.479 271.388 343.336 269.653 343.192C268.352 343.916 267.342 345.507 267.632 346.952C267.922 348.542 269.802 349.986 271.536 349.551Z" fill="#222221"/>
<path d="M279.531 415.32C270.279 415.037 260.739 415.477 251.487 416.206C252.634 401.027 278.653 399.853 279.531 415.32Z" fill="#CF752F"/>
<path d="M271.538 352.154C274.718 351.718 277.173 348.391 276.304 345.212C276.303 344.923 276.159 344.778 276.014 344.489C277.895 346.367 278.041 349.692 275.152 351.718C273.129 353.02 271.105 352.877 269.369 351.866C270.092 352.155 270.815 352.154 271.538 352.154Z" fill="#CF752F"/>
<path d="M273.702 345.069C274.57 346.803 273.415 348.972 271.536 349.407C269.802 349.842 267.922 348.398 267.631 346.663C267.341 345.218 268.352 343.627 269.653 342.903C271.243 343.336 272.833 343.479 273.702 345.069Z" fill="#CF752F"/>
<path d="M273.152 386.846C273.442 389.159 273.444 391.617 273.156 393.93C270.988 394.076 268.675 394.366 266.507 394.512C264.772 394.658 263.038 394.659 261.303 394.805C261.59 392.058 261.444 389.167 261.153 386.421C262.888 386.853 264.767 386.852 266.502 386.851C268.67 386.994 270.839 387.137 273.007 386.846C272.863 386.991 273.007 386.846 273.152 386.846Z" fill="#F6E9D3"/>
<path d="M272.716 384.534C270.547 384.246 268.379 384.537 266.211 384.538C264.331 384.54 262.452 384.541 260.718 385.12C260.138 382.374 259.413 379.628 258.111 377.171C262.303 377.024 266.35 376.877 270.398 376.729C271.556 379.331 272.28 381.932 272.716 384.534Z" fill="#F6E9D3"/>
<path d="M272.869 396.532C272.581 398.411 272.149 400.291 271.572 402.315C267.813 401.45 263.476 401.453 259.718 402.612C260.44 400.588 260.872 398.564 261.16 396.54C264.774 397.405 269.111 397.113 272.869 396.532Z" fill="#F6E9D3"/>
<path d="M264.858 305.466L264.859 307.778C264.281 307.779 263.847 308.068 263.703 308.647C262.838 312.406 262.118 316.309 261.543 320.068C260.384 316.6 259.225 313.131 257.922 309.807C257.632 308.94 256.041 308.363 255.609 309.519C253.732 313.713 254.312 316.748 249.688 318.341C241.449 320.949 240.433 314.155 238.55 308.085C238.405 307.507 237.826 307.218 237.248 307.219L237.247 304.906C246.498 305.044 255.75 305.182 264.858 305.466Z" fill="#E8C280"/>
<path d="M257.614 282.341C257.614 283.353 257.76 284.51 257.76 285.521C248.219 285.239 238.534 285.101 228.993 285.396C229.282 284.384 229.425 283.227 229.425 282.071C238.677 282.643 248.217 282.637 257.614 282.341Z" fill="#F6E9D3"/>
<path d="M257.321 275.981C257.322 277.426 257.323 278.727 257.468 280.173C248.361 279.6 238.676 279.752 229.569 280.625C229.568 279.324 229.712 278.023 229.711 276.722C229.71 275.999 229.854 275.132 229.854 274.409C238.962 275.415 248.214 275.553 257.321 275.981Z" fill="#F6E9D3"/>
<path d="M257.315 267.885C257.316 269.62 257.318 271.499 257.319 273.379L256.885 273.379C252.548 273.237 248.211 272.951 243.875 272.954L244.016 267.75C248.353 267.747 252.834 267.888 257.315 267.885Z" fill="#F6E9D3"/>
<path d="M239.728 341.767C245.511 342.196 250.719 348.12 246.53 353.616C242.486 358.967 231.497 354.638 232.649 347.987C232.504 347.409 232.504 346.831 232.648 346.253C233.08 343.939 234.958 342.203 237.126 341.768C237.271 341.624 237.415 341.624 237.704 341.623L237.849 341.623C238.283 341.623 238.861 341.478 239.295 341.622C239.439 341.622 239.584 341.622 239.728 341.767ZM245.517 351.593C246.816 348.556 245.369 345.955 243.055 344.656C243.634 345.667 244.068 346.823 243.925 348.124C243.638 351.449 240.315 353.909 237.134 353.188C236.989 353.189 236.845 353.044 236.845 353.044C239.882 354.921 244.074 355.063 245.517 351.593ZM237.132 350.297C239.156 351.308 241.468 349.572 241.467 347.403C241.465 345.09 239.296 344.224 237.561 343.647L237.417 343.647C236.405 344.226 235.538 344.95 235.25 346.251C234.817 347.841 235.541 349.576 237.132 350.297Z" fill="#222221"/>
<path d="M243.055 344.656C245.368 345.955 246.816 348.556 245.517 351.593C243.929 355.063 239.737 354.922 236.7 353.044C236.844 353.044 236.989 353.189 236.989 353.189C240.17 353.909 243.493 351.45 243.78 348.125C244.068 346.679 243.778 345.523 243.055 344.656Z" fill="#CF752F"/>
<path d="M244.686 188.82C246.422 190.554 246.569 193.734 244.835 195.47C243.969 196.338 242.812 196.772 241.656 196.773C241.511 196.05 240.499 195.906 240.21 196.629C239.632 196.485 239.054 196.197 238.475 195.908C238.33 195.763 238.186 195.763 238.041 195.764C236.739 193.741 236.593 190.994 238.182 189.258C239.77 187.378 242.951 187.231 244.686 188.82Z" fill="#CF752F"/>
<path d="M244.412 211.661C242.388 211.662 240.509 211.663 238.485 211.665C238.052 211.665 237.618 211.665 237.04 211.666C238.483 207.617 239.925 203.424 240.935 199.231C241.513 199.231 241.946 199.23 242.38 199.23C242.236 199.375 242.236 199.664 242.381 199.808C243.106 203.566 243.687 207.614 244.412 211.661Z" fill="#E09E25"/>
<path d="M243.871 267.605L243.73 272.81C239.104 272.668 234.478 272.671 229.997 272.819C230.14 271.084 230.284 269.349 230.282 267.47C234.908 267.611 239.39 267.608 243.871 267.605Z" fill="#F6E9D3"/>
<path d="M241.467 347.403C241.468 349.571 239.157 351.308 237.132 350.297C235.686 349.575 234.818 347.841 235.25 346.251C235.539 345.094 236.405 344.226 237.417 343.647L237.561 343.647C239.297 344.224 241.321 345.09 241.467 347.403Z" fill="#CF752F"/>
<path d="M237.39 304.761L237.392 307.074C236.813 307.075 236.38 307.364 236.236 307.942C235.516 312.424 234.507 316.762 233.209 320.955C231.471 316.764 230.167 312.572 229.153 308.092C228.863 306.935 227.273 307.081 226.84 308.093C225.108 312.865 224.821 316.479 219.184 317.495C216.004 318.075 211.956 317.499 208.487 317.502C208.63 315.333 208.629 313.02 209.061 310.852C210.357 303.045 212.381 304.055 219.175 304.195C222.934 304.337 226.693 304.479 230.451 304.477C232.764 304.62 235.077 304.618 237.39 304.761Z" fill="#E8C280"/>
<path d="M233.213 325.58L233.216 330.929C224.977 330.934 216.737 330.94 208.497 331.379C208.497 331.234 208.352 331.09 208.352 331.09C208.497 330.945 208.641 330.656 208.641 330.367C208.641 329.933 208.352 329.644 208.062 329.645C208.638 326.03 208.78 322.416 208.778 318.802C213.982 319.377 219.331 319.663 224.536 319.948C225.114 319.948 225.403 319.514 225.691 319.08C226.413 316.911 227.279 314.742 228 312.573C229.159 316.909 230.608 320.956 232.49 325.147C232.49 325.436 232.779 325.58 233.213 325.58Z" fill="#E8C280"/>
<path d="M228.785 406.825C230.955 409.281 231.102 412.606 232.116 415.497C222.141 414.636 211.588 415.221 201.759 416.095C202.335 412.914 202.478 409.879 204.355 407.131C207.388 402.792 212.736 401.487 217.796 402.207C221.121 402.638 226.47 404.08 228.785 406.825Z" fill="#CF752F"/>
<path d="M226.019 378.06C225.009 380.374 224.143 382.687 223.711 385.145L223.422 385.145C223.566 384.711 223.276 383.989 222.698 383.845C219.372 382.69 214.313 383.272 210.411 384.142C210.554 382.263 210.842 380.239 211.274 378.215C216.189 378.356 221.104 378.208 226.019 378.06Z" fill="#F6E9D3"/>
<path d="M223.422 385.29L223.711 385.289C223.279 387.313 222.991 389.482 222.848 391.651C222.704 391.651 222.704 391.506 222.559 391.506C218.511 391.364 214.319 391.656 210.417 392.092C210.271 389.924 210.269 387.9 210.412 385.732C212.436 385.731 214.315 385.729 216.339 385.873C218.508 385.871 220.676 386.303 222.844 385.724C223.133 385.723 223.278 385.434 223.422 385.29Z" fill="#F6E9D3"/>
<path d="M222.849 393.964C222.851 396.277 223.142 398.589 223.721 400.902C220.396 399.603 216.781 398.883 213.168 399.319C212.445 399.464 211.722 399.609 210.999 399.754C210.709 397.875 210.563 395.996 210.418 394.261C214.321 394.548 218.658 394.545 222.56 394.108C222.56 393.964 222.705 393.964 222.849 393.964Z" fill="#F6E9D3"/>
<path d="M214.141 341.061C221.224 340.044 224.266 349.149 218.92 353.49C216.319 355.515 212.561 355.662 209.668 354.219C207.499 353.064 205.618 350.463 206.629 348.005C206.484 347.571 206.339 346.993 206.339 346.559C206.336 343.379 209.081 340.341 212.406 340.917C212.551 340.917 212.695 341.062 212.84 341.206C213.274 341.061 213.707 341.061 214.141 341.061ZM218.34 351.755C221.085 349.007 220.36 344.96 217.467 343.372C217.757 343.95 218.046 344.383 218.047 345.106C218.627 348.43 215.883 351.757 212.703 352.337C210.968 352.628 209.522 352.05 208.365 350.895C210.102 353.64 215.884 354.07 218.34 351.755ZM215.59 345.83C215.589 344.096 213.998 342.94 212.408 343.519C211.83 343.664 211.396 343.376 211.251 342.942C210.095 343.666 209.228 344.533 209.085 345.979C208.941 347.714 210.099 349.737 212.123 349.591C213.713 349.445 215.446 347.42 215.59 345.83Z" fill="#222221"/>
<path d="M217.467 343.227C220.359 344.815 221.085 349.007 218.34 351.611C215.884 353.925 210.102 353.64 208.365 350.606C209.522 351.617 210.968 352.339 212.703 352.048C215.883 351.468 218.627 347.997 218.046 344.817C218.046 344.383 217.757 343.805 217.467 343.227Z" fill="#CF752F"/>
<path d="M212.264 343.52C213.853 343.085 215.589 344.096 215.445 345.83C215.302 347.421 213.569 349.446 211.979 349.591C210.099 349.737 208.941 347.569 208.94 345.979C209.084 344.534 209.951 343.521 211.107 342.942C211.251 343.231 211.685 343.664 212.264 343.52Z" fill="#CF752F"/>
<path d="M203.519 236.986C207.278 237.272 209.16 241.608 206.993 244.645C204.827 247.682 200.346 247.252 198.464 244.073C196.872 241.327 198.605 238.435 201.206 237.566C201.929 237.131 202.796 236.842 203.519 236.986Z" fill="#222221"/>
<path d="M191.66 228.898C191.372 230.922 191.373 233.091 191.375 235.115C191.234 241.475 191.383 247.98 191.966 254.485C188.641 253.765 186.326 251.598 185.456 247.84C185.021 245.816 185.309 243.503 185.308 241.624C185.306 239.6 185.305 237.432 185.593 235.408C185.446 232.806 186.457 230.781 188.624 228.9C189.636 229.044 190.648 229.044 191.66 228.898Z" fill="#CF752F"/>
<path d="M190.259 296.264C188.818 303.926 189.113 312.31 189.408 320.261C183.48 318.819 178.561 312.607 178.846 306.39C179.419 299.596 185.056 298.146 190.259 296.264Z" fill="#CF752F"/>
<path d="M180.198 382.716C180.198 382.861 180.343 382.86 180.343 383.005C180.054 383.15 179.62 383.15 179.331 383.295C178.319 383.44 177.307 383.441 176.295 383.441C174.848 381.129 173.979 377.95 171.376 376.506C169.496 375.495 167.328 375.786 166.028 377.521C162.85 381.571 166.467 385.616 169.938 387.782C169.36 388.361 168.637 388.94 168.06 389.518C164.878 388.075 161.119 386.632 158.804 383.742C155.91 380.13 156.196 375.36 158.941 372.033C159.519 371.888 159.952 371.599 160.097 371.02C160.241 370.876 160.386 370.731 160.675 370.586C169.922 364.075 178.891 374.188 180.198 382.716Z" fill="#CF752F"/>
<path d="M176.39 308.56C176.681 311.018 177.694 313.474 179.141 315.786C177.263 317.667 175.53 319.692 173.941 321.717C173.218 321.283 172.351 320.995 171.627 320.562C170.76 320.129 170.037 319.551 169.169 319.118C171.335 315.502 173.646 311.887 176.39 308.56Z" fill="#F6E9D3"/>
<path d="M170.76 322.008C171.339 322.441 172.062 322.875 172.64 323.308C169.896 327.068 167.586 331.117 165.854 335.311C164.697 334.878 163.541 334.59 162.24 334.301C163.827 329.53 165.847 324.903 168.446 320.275C169.17 320.997 170.037 321.575 170.76 322.008Z" fill="#F6E9D3"/>
<path d="M163.414 360.176C163.849 362.2 164.429 364.079 165.297 366.102C163.418 366.392 161.684 366.972 159.805 368.129C159.37 365.383 159.079 362.637 158.933 360.035C160.378 360.034 161.969 360.177 163.414 360.176Z" fill="#F6E9D3"/>
<path d="M161.808 335.747C162.964 336.18 163.977 336.757 165.133 337.19C163.979 340.516 163.114 343.986 162.683 347.456C161.96 347.311 161.237 347.457 160.37 347.457C159.936 347.457 159.503 347.602 159.213 347.602C159.789 343.554 160.654 339.651 161.808 335.747Z" fill="#F6E9D3"/>
<path d="M160.515 349.336C161.238 349.336 161.961 349.48 162.539 349.48C162.397 352.516 162.543 355.696 163.124 358.876C161.678 358.877 160.233 359.022 158.787 359.023C158.64 355.698 158.783 352.518 159.07 349.193C159.648 349.192 160.081 349.192 160.515 349.336Z" fill="#F6E9D3"/>
</g>
</g>
<defs>
<linearGradient id="paint0_linear_11845_50449" x1="143.497" y1="-2.68216e-09" x2="143.497" y2="422" gradientUnits="userSpaceOnUse">
<stop stop-color="#A0A1A2"/>
<stop offset="1" stop-color="#D6DFEF"/>
<stop offset="1" stop-color="#0A44B4"/>
</linearGradient>
<linearGradient id="paint1_linear_11845_50449" x1="216.719" y1="112.386" x2="216.719" y2="479.811" gradientUnits="userSpaceOnUse">
<stop stop-color="#E8E8E8"/>
<stop offset="0.71916" stop-color="#8C8D8F"/>
</linearGradient>
</defs>
</svg>
