<svg width="286" height="422" viewBox="0 0 286 422" fill="none" xmlns="http://www.w3.org/2000/svg">
<mask id="mask0_11845_50516" style="mask-type:alpha" maskUnits="userSpaceOnUse" x="0" y="0" width="286" height="422">
<rect width="286" height="422" rx="10" fill="url(#paint0_linear_11845_50516)"/>
</mask>
<g mask="url(#mask0_11845_50516)">
<path d="M99.9999 265.5C45.5999 306.7 75 389 116.5 405C136 415.5 126 425 131.5 452.5C137 480 221 511 318.5 412.5C416 314 326.5 145 304.5 130C282.5 115 250.113 105.536 210.5 118.5C183 127.5 165 146.5 162.5 176C160 205.5 168 214 99.9999 265.5Z" fill="url(#paint1_linear_11845_50516)"/>
<g opacity="0.7">
<path d="M391.024 219.239C391.17 219.679 391.024 220.12 390.73 220.56C390.73 220.707 390.877 221.001 390.73 221.294C386.184 233.041 375.771 237.152 364.771 233.334C363.158 235.977 361.251 238.473 359.051 240.823C359.051 240.969 358.905 240.969 358.905 240.969C351.571 248.458 341.012 253.744 330.305 255.799C330.012 256.24 329.279 256.386 328.839 256.093C323.852 256.827 318.719 256.974 314.026 256.093C314.172 260.057 314.026 264.022 312.999 267.252C312.852 267.839 312.412 267.986 311.826 268.133C310.066 268.28 308.453 267.986 306.839 267.545C306.693 274.887 306.693 282.228 306.546 289.57C306.399 299.407 309.332 313.65 299.946 320.257C290.413 326.864 274.72 324.368 262.84 323.34C274.867 336.555 277.067 363.571 278.24 377.961C278.387 378.842 277.8 379.282 277.213 379.429C276.92 379.576 276.627 379.723 276.333 379.723C273.84 379.869 271.347 379.869 268.707 380.016C269.88 388.532 268.267 399.104 264.307 406.886C260.64 414.08 253.601 416.283 245.974 416.283C225.441 416.43 221.335 396.461 223.535 379.723C220.161 379.429 216.788 379.135 213.415 378.695C212.975 378.695 212.682 378.401 212.535 377.961C212.388 377.814 212.242 377.667 212.242 377.373C208.868 361.369 212.535 336.114 226.028 323.34C218.548 324.074 210.922 323.928 203.442 323.928C199.335 323.928 191.415 325.102 187.749 322.313C184.522 319.816 184.669 314.531 184.376 310.86C183.642 302.197 183.789 293.387 184.082 284.724C184.229 277.823 184.376 270.923 184.669 264.022C183.789 264.168 182.909 264.315 181.882 264.315C180.709 264.315 179.389 264.462 178.509 263.875C178.216 263.728 178.069 263.434 178.069 263.141C178.069 262.994 177.922 262.994 177.922 262.994C177.042 256.974 176.749 250.807 176.749 244.787C176.602 244.934 176.456 245.081 176.309 245.227C150.643 259.91 144.63 285.752 155.336 311.594C164.576 312.328 173.083 318.055 174.843 327.892C174.989 329.067 174.109 329.801 173.229 329.801C172.349 330.535 170.883 330.975 169.856 331.416C168.389 332.15 167.069 332.884 165.603 333.765C164.723 334.206 163.843 333.325 163.989 332.591C163.843 332.444 163.843 332.297 163.696 332.15C162.376 328.626 158.123 324.221 154.016 325.249C148.59 326.424 153.136 335.38 154.75 338.023V338.17C155.043 338.757 155.043 339.638 154.456 340.226C152.843 341.4 151.083 342.428 149.177 343.309C148.297 343.75 147.417 344.19 146.537 344.484C146.243 344.63 144.923 344.777 144.483 345.071C144.483 345.218 144.337 345.218 144.337 345.365C144.19 345.365 144.19 345.511 144.043 345.511C143.897 345.511 143.897 345.511 143.75 345.658C143.897 346.246 143.163 346.833 142.577 346.246C134.07 338.17 131.284 321.872 141.843 314.971C140.67 311.007 139.79 306.896 139.203 302.638C138.177 302.491 138.177 301.169 138.91 300.876C138.03 292.947 138.03 284.724 139.35 276.942C138.763 276.649 138.91 275.474 139.643 275.474C143.31 256.24 154.31 239.648 176.309 236.565C176.456 233.188 176.456 229.664 176.602 226.287C176.602 225.552 177.189 224.965 177.922 224.965C180.416 225.112 182.909 225.259 185.402 225.406C186.136 220.267 188.189 217.477 196.109 216.89C206.375 216.155 216.788 215.862 227.055 215.715C226.761 213.513 226.321 211.163 226.761 208.961C226.761 208.52 227.201 208.227 227.495 208.227C228.228 207.933 228.961 207.786 229.841 207.786C229.694 207.639 229.694 207.639 229.694 207.493C226.175 195.599 231.308 180.182 244.947 178.861C259.467 177.539 263.867 195.599 261.96 206.758C261.96 207.052 261.814 207.199 261.667 207.346H263.72C264.454 207.346 265.04 207.933 265.04 208.667C264.894 210.87 264.747 213.219 264.6 215.421C268.414 215.568 272.227 215.568 276.04 215.715C283.666 216.009 292.026 215.274 299.506 216.743C304.346 217.771 306.399 220.854 307.133 224.525C309.039 224.378 311.239 224.525 313.146 224.818C313.439 224.818 313.586 224.965 313.732 225.259C314.026 225.406 314.319 225.699 314.319 226.287C314.172 231.426 314.026 236.418 313.879 241.557C314.026 241.557 314.172 241.41 314.319 241.557C328.105 242.878 346.585 237.446 352.158 223.203C348.492 216.596 348.785 208.52 357.291 204.556C358.171 204.115 358.758 205.143 358.318 205.731C361.691 207.199 364.918 208.814 368.438 210.282C369.318 210.723 369.318 212.191 368.438 212.632C367.118 213.219 365.651 213.806 364.624 214.834C362.864 216.449 364.624 220.12 366.971 220.12C370.344 219.973 372.104 217.771 374.011 215.421C374.598 214.687 375.624 214.687 376.064 215.274C379.291 216.449 382.664 217.33 386.184 217.624C387.797 217.771 390.144 217.183 391.024 219.239ZM388.237 220.56C388.091 220.56 388.091 220.56 388.237 220.56C387.357 220.56 385.157 220.56 385.011 220.413C383.837 220.267 382.664 220.12 381.637 219.826C379.584 219.386 377.531 218.505 375.771 217.624C373.718 221.882 367.264 224.671 363.011 222.175C360.811 221.001 360.078 218.505 360.811 216.155C361.545 214.1 363.158 212.632 364.918 211.604C362.278 210.135 359.785 208.814 357.145 207.346C356.998 207.346 356.998 207.199 356.851 207.052C346.732 215.862 357.145 228.195 367.411 230.838C378.117 233.628 382.371 228.195 388.237 220.56ZM361.838 232.307C361.545 232.16 361.251 232.013 360.811 231.866C358.025 230.545 355.385 228.195 353.478 225.552C352.745 228.342 351.131 230.838 349.371 233.041C350.691 233.922 352.158 234.803 353.478 235.684C354.651 236.418 355.971 237.299 357.291 238.033C359.051 236.271 360.518 234.362 361.838 232.307ZM355.385 239.942C354.211 239.061 352.891 238.033 351.718 237.152C350.545 236.271 349.371 235.39 348.198 234.362C345.852 236.711 342.918 238.62 339.692 240.235C340.572 241.116 341.598 241.997 342.332 242.878C343.505 244.053 344.972 245.521 345.705 246.989C349.225 244.934 352.451 242.585 355.385 239.942ZM343.505 248.164C342.478 247.136 341.598 245.668 340.718 244.493C339.692 243.319 338.665 242.291 337.638 241.116C333.679 242.731 329.572 243.906 325.465 244.493C326.199 245.815 326.932 247.283 327.519 248.751C328.252 250.22 328.985 251.541 329.572 253.009C334.412 251.982 339.105 250.22 343.505 248.164ZM327.079 253.597C326.492 252.275 325.905 250.954 325.465 249.632C324.732 248.017 324.145 246.402 323.559 244.787C320.332 245.081 317.106 245.081 314.466 244.787C314.319 244.787 314.026 244.64 313.879 244.64C313.879 246.108 313.732 247.724 313.732 249.192C313.732 250.807 313.732 252.569 313.879 254.331C317.986 254.625 322.532 254.331 327.079 253.597ZM311.092 247.577C311.239 240.676 311.386 233.922 311.679 227.021C310.212 227.168 308.746 227.168 307.279 227.168C307.573 230.985 306.986 235.096 306.986 238.767C306.839 247.87 306.693 256.827 306.546 265.93C312.999 264.903 310.946 252.863 311.092 247.577ZM303.759 233.188C303.906 219.239 293.933 219.679 283.52 219.239C268.267 218.652 253.161 218.358 237.908 218.358C229.694 218.358 221.481 218.505 213.122 218.798C205.495 218.945 191.415 216.743 187.749 225.552C188.336 226.287 188.042 227.461 187.162 227.755C186.136 233.628 187.456 242.585 187.309 247.87C187.162 255.212 187.016 262.7 186.869 270.042C186.576 284.137 185.402 298.673 187.016 312.769C187.749 318.935 189.509 319.67 195.522 320.844C199.042 321.432 203.148 321.138 206.668 321.138C214.002 321.138 221.335 320.697 228.668 320.844C232.334 318.201 236.441 316.439 241.428 315.705C248.467 314.824 254.041 316.439 258.587 319.67C266.507 319.963 274.427 320.257 282.346 320.404C287.333 320.404 292.32 320.551 296.573 317.614C302.439 313.503 302.586 307.336 302.733 300.729C302.879 285.752 303.173 270.629 303.466 255.652C303.466 248.164 303.613 240.676 303.759 233.188ZM263.427 398.81C265.04 392.79 266.067 386.477 265.334 380.163V380.016C251.987 380.457 238.494 380.75 225.148 379.869C225.148 394.552 225.881 413.346 245.534 413.053C255.361 413.053 260.934 408.06 263.427 398.81ZM214.002 376.786C234.241 376.345 254.481 377.373 274.72 376.639C273.107 356.817 269.88 315.412 241.721 318.789C216.201 321.872 212.682 356.964 214.002 376.786ZM261.667 215.421C262.107 210.87 261.96 209.989 256.827 209.989H245.974C242.014 209.989 237.761 209.548 233.801 209.989C229.401 210.429 228.668 211.31 228.228 215.421C235.268 215.274 242.308 215.274 249.201 215.274C253.454 215.274 257.56 215.274 261.667 215.421ZM249.494 207.346C253.014 207.346 256.387 207.346 259.907 207.346C259.614 207.199 259.467 206.758 259.467 206.465C259.32 203.969 259.174 200.885 258.88 197.949C257.854 189.286 255.067 180.329 244.361 181.944C232.041 183.706 230.721 196.921 231.454 206.905C231.454 207.052 231.454 207.199 231.454 207.199C233.948 207.052 236.588 207.199 239.228 207.346C239.081 204.556 238.641 202.06 238.201 199.417C238.054 199.564 237.908 199.857 237.908 200.151C238.054 200.885 236.734 201.032 236.588 200.298C236.294 198.83 236.881 197.802 237.761 197.068C237.614 196.04 237.321 195.159 237.174 194.131C236.881 193.103 238.494 192.222 238.934 193.397C239.374 194.278 239.668 195.159 239.961 196.04C240.254 195.893 240.694 195.893 240.988 195.746C243.041 195.306 245.387 195.599 247.441 196.187C247.881 196.334 248.174 196.48 248.614 196.627C249.201 194.572 249.934 192.663 250.961 190.754C251.694 189.433 253.747 190.607 253.014 191.929C252.134 193.837 251.547 195.746 250.961 197.508C252.427 198.096 253.747 198.242 255.507 197.215C256.24 196.774 256.974 197.361 257.12 197.949C257.12 198.242 257.12 198.683 256.827 198.976C255.361 200.885 253.014 200.885 250.814 200.151C250.667 200.151 250.521 200.004 250.374 200.004C249.787 202.354 249.494 204.85 249.494 207.346ZM243.334 207.493C244.801 207.493 246.267 207.493 247.881 207.493C247.441 204.703 247.441 201.913 247.881 199.123C247.294 198.83 246.707 198.536 245.974 198.389C244.801 198.096 243.334 197.949 242.161 197.949C241.721 197.949 240.988 198.096 240.254 198.242C240.841 201.326 240.988 204.556 240.694 207.493C241.574 207.493 242.454 207.493 243.334 207.493ZM184.962 233.041C184.962 231.132 185.109 229.37 185.109 227.755C182.762 227.461 180.416 227.021 178.949 228.783C177.629 230.251 178.509 238.033 178.509 240.088C178.362 247.43 178.656 254.625 178.656 261.966C179.536 261.966 180.269 262.26 181.149 262.406C182.176 262.553 183.202 262.553 184.229 262.7C184.522 252.863 184.816 242.878 184.962 233.041ZM176.162 243.759C176.162 242.144 176.162 240.676 176.162 239.061C170.883 239.942 166.043 241.85 161.79 244.64C162.669 245.227 163.403 245.815 164.283 246.402C165.016 246.989 166.043 247.43 166.776 248.164C169.123 246.255 171.763 244.64 174.549 243.319C175.136 242.731 175.869 243.172 176.162 243.759ZM168.536 329.067C169.416 328.626 170.589 327.892 171.616 327.452C168.829 316.439 156.363 312.035 146.097 315.852C132.897 320.844 138.03 334.499 142.723 343.603C143.31 342.428 145.217 341.988 146.39 341.4C148.59 340.372 150.496 339.051 152.55 337.73C149.47 333.912 146.243 325.102 151.963 322.753C157.683 320.404 163.843 325.69 165.896 330.682C166.629 330.094 167.509 329.507 168.536 329.067ZM164.869 249.486C164.283 249.045 163.696 248.458 162.963 247.87C162.083 247.136 161.056 246.402 160.176 245.521C155.63 248.751 151.67 252.863 148.59 257.708C149.763 258.148 150.936 258.442 151.963 258.883C153.136 259.323 154.31 259.617 155.483 260.057C157.976 256.24 161.203 252.569 164.869 249.486ZM144.777 313.062C147.71 311.888 150.643 311.447 153.723 311.447C151.816 308.511 150.35 305.427 149.323 302.344C149.323 302.344 149.323 302.344 149.177 302.344C146.83 302.931 144.043 302.637 141.55 302.491C142.137 306.308 142.723 309.979 143.457 313.796C143.897 313.503 144.19 313.209 144.777 313.062ZM154.016 262.406C152.843 261.966 151.816 261.379 150.643 260.938C149.616 260.498 148.443 260.057 147.417 259.617C146.683 260.938 145.95 262.26 145.363 263.581C143.603 267.399 142.283 271.363 141.55 275.327C143.897 275.474 146.243 275.768 148.443 276.208C149.616 271.363 151.523 266.664 154.016 262.406ZM141.257 300.288C143.75 300.141 146.39 299.848 148.737 300.288C146.537 293.24 146.537 285.752 147.857 278.558C145.657 278.264 143.457 277.677 141.257 277.089C139.937 284.724 140.23 292.653 141.257 300.288Z" fill="#222221"/>
<path d="M283.52 219.239C293.933 219.68 303.906 219.239 303.759 233.188C303.613 240.676 303.466 248.164 303.466 255.653C303.173 270.629 303.026 285.752 302.733 300.729C302.586 307.336 302.439 313.503 296.573 317.614C292.32 320.551 287.333 320.404 282.347 320.404C274.427 320.257 266.507 319.963 258.587 319.67C254.041 316.293 248.467 314.678 241.428 315.705C236.588 316.293 232.334 318.202 228.668 320.844C221.335 320.698 214.002 321.138 206.668 321.138C203.149 321.138 199.042 321.579 195.522 320.844C189.509 319.817 187.749 318.936 187.016 312.769C185.402 298.673 186.429 284.137 186.869 270.042C187.016 262.7 187.162 255.212 187.309 247.871C187.456 242.585 185.989 233.628 187.162 227.902C188.189 227.755 188.336 226.434 187.749 225.699C191.415 216.89 205.495 219.092 213.122 218.945C221.335 218.652 229.548 218.505 237.908 218.505C253.161 218.358 268.267 218.652 283.52 219.239ZM290.266 245.375C292.466 243.025 291.586 238.62 288.506 237.446C287.04 236.858 285.28 237.299 284.106 238.327C283.96 238.474 283.813 238.62 283.666 238.62C281.613 239.208 280.293 242.144 281.613 244.347C283.373 247.577 287.773 248.017 290.266 245.375ZM286.16 281.494C286.6 275.768 286.306 269.895 286.013 264.169C285.866 262.26 286.306 259.47 285.426 257.414C286.306 256.68 286.16 254.918 284.546 254.772C258.294 253.744 231.894 253.01 205.788 253.597C205.495 253.597 205.202 253.744 205.055 253.891C204.615 253.891 204.322 254.184 204.175 254.772C202.855 263.875 202.562 274.447 203.882 283.55C203.735 283.844 203.735 284.284 204.029 284.578C204.175 285.018 204.762 285.018 205.055 284.871C231.161 285.606 258.44 286.34 284.4 283.844C285.426 283.697 285.866 282.816 285.573 282.082C286.013 281.935 286.16 281.788 286.16 281.494ZM210.335 245.375C213.122 244.053 214.295 240.236 212.388 237.739C210.922 235.831 207.842 235.39 205.935 236.858C203.442 237.005 201.829 239.942 202.709 242.438C203.735 245.521 207.402 246.843 210.335 245.375Z" fill="#BFCD30"/>
<path d="M288.506 237.592C291.586 238.767 292.466 243.025 290.266 245.521C287.773 248.164 283.373 247.723 281.613 244.64C280.44 242.438 281.613 239.501 283.667 238.914C283.813 238.767 283.96 238.62 284.107 238.62C285.28 237.299 287.04 237.005 288.506 237.592ZM288.653 243.172C289.386 241.997 288.653 239.942 287.186 239.795C286.746 239.795 286.453 239.795 286.16 239.942L286.013 240.088C285.28 240.676 285.133 241.85 284.547 242.438C284.4 242.584 284.107 242.731 283.96 242.731C284.107 243.172 284.4 243.612 284.84 243.906C285.866 244.787 287.92 244.493 288.653 243.172Z" fill="#222221"/>
<path d="M287.04 239.795C288.506 239.942 289.24 241.997 288.506 243.172C287.773 244.493 285.72 244.787 284.546 243.906C284.106 243.612 283.813 243.172 283.666 242.731C283.96 242.731 284.106 242.585 284.253 242.438C284.986 241.704 284.986 240.676 285.72 240.089L285.866 239.942C286.306 239.942 286.6 239.795 287.04 239.795Z" fill="#E5EA9B"/>
<path d="M286.013 264.168C286.306 269.895 286.6 275.768 286.16 281.494C286.16 281.788 286.013 282.081 285.866 282.228C286.013 282.962 285.72 283.843 284.693 283.99C258.734 286.486 231.454 285.605 205.348 285.018C205.055 285.312 204.468 285.165 204.322 284.724C204.028 284.431 204.028 284.137 204.175 283.696C202.708 274.593 203.002 264.021 204.468 254.918C204.615 254.331 204.908 254.184 205.348 254.037C205.495 253.89 205.788 253.743 206.082 253.743C232.334 253.156 258.734 253.89 284.84 254.918C286.306 254.918 286.6 256.827 285.72 257.561C286.306 259.323 285.866 262.259 286.013 264.168ZM284.106 281.2C283.813 278.851 283.666 276.502 283.52 274.006C278.827 273.859 274.28 274.006 269.587 274.446C268.853 275.034 267.533 274.887 267.387 273.565C267.24 271.363 266.947 269.307 266.507 267.252C266.067 269.454 265.627 271.803 265.187 274.006C264.747 276.355 264.6 277.383 262.84 278.557C262.694 278.704 262.4 278.704 262.254 278.704C261.667 278.704 261.08 278.264 260.934 277.823C260.347 274.153 259.76 270.482 259.32 266.811C258.294 268.72 257.56 270.629 257.12 272.978C256.974 273.565 256.387 274.006 255.8 274.006C250.961 273.859 246.121 273.712 241.281 273.565C240.841 274.006 239.814 274.153 239.521 273.418C238.201 270.482 237.468 267.398 237.028 264.168C235.121 268.573 235.268 274.006 232.334 278.117C232.041 278.411 231.748 278.704 231.308 278.704C230.868 278.704 230.428 278.411 230.281 277.97C228.814 273.859 227.788 269.601 227.494 265.196C226.614 267.105 225.735 268.867 224.855 270.776C224.708 271.216 224.268 271.216 223.975 271.069C223.828 271.216 223.535 271.216 223.388 271.216C217.815 271.069 212.242 270.922 206.668 271.069C206.522 275.18 206.228 279.292 205.788 283.109C214.295 282.522 222.948 282.081 231.601 281.641C241.867 281.054 252.134 280.76 262.254 280.76C269.587 280.613 276.92 280.76 284.106 281.2ZM283.52 271.363C283.52 270.922 283.52 270.335 283.52 269.895C283.373 267.986 283.373 266.077 283.226 264.168C283.226 262.994 283.373 258.882 282.493 257.708C277.067 257.708 271.64 257.561 266.213 257.561C256.827 257.414 247.294 257.267 237.761 256.974C227.348 256.68 216.935 256.239 206.668 255.505C206.815 259.91 206.815 264.609 206.668 269.307C212.242 268.426 217.815 268.279 223.388 268.867C223.681 268.867 223.828 269.014 223.975 269.16C225.001 266.224 226.174 263.14 227.348 260.204C227.788 259.176 229.401 259.176 229.401 260.497C229.401 265.343 230.281 270.188 231.601 274.74C233.801 269.895 233.508 264.168 236.881 259.763C237.028 259.47 237.321 259.47 237.614 259.47C238.201 259.47 238.788 260.057 238.788 260.644C239.081 264.609 239.961 268.133 241.134 271.803C244.654 271.803 252.134 272.831 254.627 270.629C255.067 270.188 255.507 267.692 255.8 266.958C256.534 265.196 257.56 263.728 258.734 262.259C259.32 261.525 260.787 261.966 260.934 262.847C261.52 266.517 261.96 270.041 262.547 273.565C262.84 272.097 262.987 270.335 263.134 269.454L264.747 261.672C264.894 261.085 265.334 260.791 265.774 260.791C266.36 260.791 266.947 261.085 267.093 261.672C268.413 265.196 269.147 268.573 269.44 272.244C274.28 271.216 278.973 270.922 283.52 271.363Z" fill="#222221"/>
<path d="M283.52 274.006C283.667 276.355 283.813 278.851 284.106 281.201C276.92 280.76 269.587 280.613 262.107 280.613V278.851C262.4 278.851 262.547 278.851 262.694 278.704C264.6 277.53 264.6 276.355 265.04 274.153C265.48 271.95 265.92 269.601 266.36 267.399C266.8 269.454 267.24 271.51 267.24 273.712C267.387 274.887 268.707 275.181 269.44 274.593C274.28 274.006 278.827 273.859 283.52 274.006Z" fill="#E5EA9B"/>
<path d="M283.373 269.895C283.373 270.335 283.373 270.923 283.373 271.363C278.827 270.776 274.133 271.216 269.733 272.391C269.44 268.72 268.707 265.343 267.387 261.819C267.24 261.232 266.507 260.938 266.067 260.938V257.561C271.493 257.561 276.92 257.708 282.346 257.708C283.08 258.883 282.933 262.847 283.08 264.169C283.226 266.077 283.226 267.986 283.373 269.895Z" fill="#E5EA9B"/>
<path d="M266.214 257.561V260.938C265.774 260.938 265.334 261.232 265.187 261.819L263.574 269.601C263.427 270.629 263.28 272.244 262.987 273.712C262.4 270.188 261.96 266.518 261.374 262.994C261.227 262.113 259.76 261.672 259.174 262.406C258 263.875 256.974 265.343 256.24 267.105C255.947 267.839 255.507 270.335 255.067 270.776C252.574 273.125 245.094 271.95 241.574 271.95C240.254 268.28 239.374 264.756 239.228 260.791C239.228 260.204 238.641 259.617 238.054 259.617L238.201 257.121C247.147 257.267 256.68 257.414 266.214 257.561Z" fill="#E5EA9B"/>
<path d="M265.334 380.163C266.067 386.477 265.04 392.644 263.427 398.81C260.934 408.061 255.361 413.053 245.534 413.2C225.881 413.493 225.148 394.552 225.148 380.016C238.494 380.897 251.987 380.604 265.334 380.163Z" fill="#858585"/>
<path d="M262.107 278.851V280.613C251.987 280.613 241.721 281.054 231.454 281.494L231.308 278.558C231.601 278.558 232.041 278.411 232.334 277.97C235.268 273.859 235.121 268.573 237.028 264.022C237.468 267.252 238.201 270.188 239.521 273.272C239.814 274.006 240.694 273.859 241.281 273.419C246.121 273.566 250.961 273.712 255.8 273.859C256.387 273.859 256.974 273.419 257.12 272.831C257.56 270.629 258.294 268.573 259.32 266.665C259.907 270.335 260.494 274.006 260.934 277.677C260.934 278.558 261.52 278.851 262.107 278.851Z" fill="#E5EA9B"/>
<path d="M274.573 376.639C254.334 377.373 234.094 376.346 213.855 376.786C212.682 356.964 216.055 321.872 241.574 318.789C269.88 315.412 272.96 356.817 274.573 376.639Z" fill="#8F9924"/>
<path d="M256.827 209.989C261.96 209.989 262.107 210.87 261.667 215.421C257.56 215.421 253.307 215.274 249.201 215.274C242.307 215.274 235.268 215.274 228.228 215.421C228.521 211.31 229.401 210.429 233.801 209.989C237.761 209.548 242.014 209.989 245.974 209.989H256.827Z" fill="#8F9924"/>
<path d="M259.907 207.346C256.387 207.346 253.014 207.346 249.494 207.346C249.494 204.703 249.787 202.354 250.227 200.004C250.374 200.004 250.521 200.151 250.667 200.151C252.867 200.885 255.214 200.885 256.68 198.976C256.974 198.683 256.974 198.242 256.974 197.949L258.734 197.802C259.027 200.885 259.174 203.969 259.32 206.318C259.467 206.758 259.614 207.199 259.907 207.346Z" fill="#F6E16F"/>
<path d="M258.734 197.802L256.974 197.949C256.827 197.215 256.241 196.774 255.361 197.215C253.601 198.242 252.281 197.949 250.814 197.508C251.254 195.599 251.987 193.837 252.867 191.929C253.454 190.607 251.547 189.286 250.814 190.754C249.787 192.516 249.054 194.572 248.467 196.627C248.027 196.48 247.734 196.334 247.294 196.187C245.241 195.599 242.894 195.453 240.841 195.746C240.401 195.746 240.108 195.893 239.814 196.04C239.521 195.159 239.228 194.278 238.788 193.397C238.348 192.369 236.734 193.103 237.028 194.131C237.174 195.159 237.468 196.04 237.614 197.068C236.734 197.802 236.148 198.83 236.441 200.298C236.588 201.032 237.761 200.885 237.761 200.151C237.761 199.857 237.908 199.564 238.054 199.417C238.641 202.06 238.934 204.556 239.081 207.346C236.441 207.199 233.801 207.052 231.308 207.199C231.308 207.052 231.308 207.052 231.308 206.905C230.575 196.921 231.895 183.706 244.214 181.944C254.921 180.329 257.707 189.286 258.734 197.802Z" fill="#F6E16F"/>
<path d="M247.881 207.493C246.414 207.493 244.947 207.493 243.334 207.493C242.454 207.493 241.574 207.493 240.694 207.346C240.988 204.409 240.841 201.179 240.254 198.096C240.988 197.949 241.721 197.802 242.161 197.802C243.481 197.802 244.801 197.949 245.974 198.242C246.707 198.389 247.294 198.683 247.881 198.977C247.441 201.766 247.441 204.703 247.881 207.493Z" fill="#F6E16F"/>
<path d="M237.761 256.974L237.614 259.47C237.321 259.47 237.174 259.617 236.881 259.763C233.508 264.168 233.801 269.895 231.601 274.74C230.134 270.041 229.401 265.343 229.401 260.498C229.401 259.176 227.788 259.176 227.348 260.204C226.175 263.14 225.001 266.077 223.975 269.16C223.828 269.014 223.681 268.867 223.388 268.867C217.961 268.279 212.242 268.426 206.668 269.307C206.815 264.609 206.815 260.057 206.668 255.505C216.935 256.24 227.348 256.68 237.761 256.974Z" fill="#E5EA9B"/>
<path d="M231.308 278.557L231.454 281.494C222.801 281.934 214.148 282.522 205.642 282.962C206.082 278.998 206.375 275.033 206.522 270.922C212.095 270.775 217.668 270.775 223.241 271.069C223.535 271.069 223.681 270.922 223.828 270.922C224.121 271.069 224.561 271.069 224.708 270.629C225.588 268.867 226.468 266.958 227.348 265.049C227.788 269.454 228.668 273.712 230.134 277.823C230.428 278.264 230.868 278.557 231.308 278.557Z" fill="#E5EA9B"/>
<path d="M212.242 237.739C214.148 240.382 213.121 244.053 210.188 245.374C207.402 246.696 203.735 245.374 202.562 242.291C201.682 239.795 203.295 236.858 205.788 236.711C207.842 235.39 210.775 235.83 212.242 237.739ZM209.015 242.878C210.188 242.291 210.775 240.676 210.042 239.501C209.308 238.326 207.842 238.767 206.962 239.648C206.375 240.235 205.495 240.088 205.055 239.648C204.762 240.382 204.762 241.263 205.348 241.997C206.228 243.172 207.842 243.465 209.015 242.878Z" fill="#222221"/>
<path d="M210.042 239.648C210.775 240.823 210.335 242.438 209.015 243.025C207.842 243.612 206.228 243.319 205.348 242.144C204.762 241.41 204.762 240.529 205.055 239.795C205.495 240.235 206.375 240.529 206.962 239.795C207.842 238.914 209.162 238.473 210.042 239.648Z" fill="#E5EA9B"/>
<path d="M185.109 227.755C184.962 229.37 184.962 231.132 184.962 233.04C184.669 242.878 184.522 252.862 184.229 262.7C183.202 262.7 182.176 262.553 181.149 262.406C180.269 262.259 179.536 261.966 178.656 261.966C178.656 254.624 178.362 247.43 178.509 240.088C178.509 238.033 177.629 230.251 178.949 228.782C180.416 227.02 182.909 227.461 185.109 227.755Z" fill="#8F9924"/>
<path d="M176.163 238.914C176.163 240.529 176.163 241.997 176.163 243.612C175.869 243.025 175.136 242.731 174.403 243.025C171.616 244.347 169.123 245.962 166.629 247.87C165.896 247.283 165.016 246.696 164.136 246.108C163.256 245.521 162.523 244.934 161.643 244.347C166.043 241.85 170.883 239.942 176.163 238.914Z" fill="#E5EA9B"/>
<path d="M171.616 327.452C170.443 327.745 169.416 328.479 168.536 329.067C167.656 329.654 166.629 330.095 165.749 330.829C163.696 325.837 157.536 320.551 151.816 322.9C146.243 325.249 149.323 334.059 152.403 337.876C150.35 339.198 148.443 340.519 146.243 341.547C145.07 342.135 143.163 342.575 142.577 343.75C137.883 334.499 132.604 320.844 145.95 315.999C156.363 312.035 168.976 316.439 171.616 327.452Z" fill="#8F9924"/>
<path d="M162.963 247.871C163.549 248.311 164.136 248.898 164.869 249.486C161.203 252.569 158.123 256.24 155.483 260.204C154.456 259.617 153.136 259.323 151.963 259.029C150.79 258.589 149.763 258.295 148.59 257.855C151.67 253.01 155.63 248.898 160.176 245.668C161.056 246.402 162.083 247.136 162.963 247.871Z" fill="#E5EA9B"/>
<path d="M153.723 311.447C150.643 311.447 147.71 311.888 144.777 313.062C144.337 313.209 143.897 313.503 143.457 313.65C142.723 309.979 141.99 306.161 141.55 302.344C144.19 302.491 146.83 302.784 149.177 302.197C149.177 302.197 149.177 302.197 149.323 302.197C150.35 305.427 151.816 308.511 153.723 311.447Z" fill="#E5EA9B"/>
<path d="M150.79 260.938C151.816 261.379 152.99 261.966 154.163 262.407C151.67 266.811 149.617 271.51 148.443 276.355C146.243 275.768 143.897 275.621 141.55 275.474C142.283 271.51 143.603 267.546 145.363 263.728C145.95 262.407 146.683 261.085 147.417 259.764C148.59 260.057 149.617 260.498 150.79 260.938Z" fill="#E5EA9B"/>
<path d="M148.59 300.288C146.243 299.848 143.603 300.141 141.11 300.288C140.23 292.506 139.937 284.724 141.11 277.089C143.31 277.677 145.51 278.264 147.71 278.558C146.537 285.752 146.537 293.241 148.59 300.288Z" fill="#E5EA9B"/>
</g>
</g>
<defs>
<linearGradient id="paint0_linear_11845_50516" x1="143" y1="0" x2="143" y2="422" gradientUnits="userSpaceOnUse">
<stop stop-color="#4778EC"/>
<stop offset="1" stop-color="#4A47EC" stop-opacity="0.74"/>
</linearGradient>
<linearGradient id="paint1_linear_11845_50516" x1="216.719" y1="112.386" x2="216.719" y2="479.811" gradientUnits="userSpaceOnUse">
<stop stop-color="#4778EC"/>
<stop offset="0.71916" stop-color="#0A44B4"/>
</linearGradient>
</defs>
</svg>
