<svg width="287" height="422" viewBox="0 0 287 422" fill="none" xmlns="http://www.w3.org/2000/svg">
<mask id="mask0_11845_50752" style="mask-type:alpha" maskUnits="userSpaceOnUse" x="0" y="0" width="287" height="422">
<rect width="287" height="422" rx="10" fill="url(#paint0_linear_11845_50752)"/>
</mask>
<g mask="url(#mask0_11845_50752)">
<path d="M99.9999 265.5C45.5999 306.7 75 389 116.5 405C136 415.5 126 425 131.5 452.5C137 480 221 511 318.5 412.5C416 314 326.5 145 304.5 130C282.5 115 250.113 105.536 210.5 118.5C183 127.5 165 146.5 162.5 176C160 205.5 168 214 99.9999 265.5Z" fill="url(#paint1_linear_11845_50752)"/>
<g opacity="0.7">
<path d="M364.673 200.435C383.112 234.8 360.146 280.899 322.596 292.299C322.596 294.645 322.596 297.16 322.764 299.507C322.764 300.177 322.093 301.016 321.423 301.016C319.076 300.68 316.729 300.345 314.382 300.01C314.214 300.848 314.214 301.519 314.214 302.357C313.041 312.582 314.214 332.196 305.833 339.907C305.665 340.577 304.995 341.248 304.156 341.248C289.069 341.416 273.982 341.416 258.895 341.248C258.895 345.104 257.889 348.959 257.386 352.815C256.883 357.006 256.38 361.197 255.542 365.387C272.138 365.387 288.734 365.387 305.33 365.387C305.833 365.387 306.168 365.555 306.336 365.89C327.625 370.417 327.458 402.77 306.336 407.632C288.902 411.487 268.618 409.475 251.016 409.475C232.576 409.475 213.801 409.811 195.194 408.47C172.563 409.978 158.146 378.631 181.28 367.902C188.321 364.717 196.535 365.387 203.911 365.387C214.472 365.387 225.033 365.555 235.594 365.555C235.426 365.387 235.258 365.22 235.258 365.052C233.917 357.173 233.079 349.127 232.409 341.08C225.871 340.913 219.165 340.745 212.628 340.577C205.084 340.242 197.038 340.745 189.662 338.901C183.627 338.901 181.28 330.855 180.274 324.987C178.933 315.6 177.927 306.212 177.257 296.657C177.257 296.657 177.257 296.657 177.089 296.657C174.407 297.328 171.725 297.16 169.378 295.651C168.372 294.981 168.54 293.807 169.378 293.304C168.54 291.293 168.875 288.611 169.043 286.264C150.1 283.917 139.036 269.165 134.007 251.563C133.672 251.396 133.504 250.725 133.672 250.222C129.648 234.465 130.319 216.863 134.677 204.29C135.013 203.284 136.354 203.117 136.857 203.62C137.192 203.955 137.36 204.29 137.192 204.961C136.521 207.14 135.851 209.152 135.348 211.499C137.862 212.001 140.545 212.337 142.891 213.343C143.059 213.343 143.059 213.51 143.059 213.51C143.73 211.499 144.735 209.487 145.909 207.643C143.059 207.475 140.042 206.469 137.36 204.123C137.192 203.955 137.024 203.955 137.024 203.787C128.307 196.076 130.654 180.486 142.556 177.636C143.059 177.469 143.394 177.804 143.562 178.307C145.574 179.313 147.418 180.486 149.765 180.989C150.77 181.157 151.106 182.833 150.1 183.336C147.753 184.509 144.233 188.03 145.238 191.215C146.077 193.729 148.591 192.053 149.932 190.544C151.273 189.203 151.944 187.527 152.782 185.683C152.95 185.012 153.62 184.845 154.123 184.845C154.458 184.677 154.794 184.677 155.129 185.012C157.476 187.024 160.158 188.7 163.343 189.371C164.349 189.538 164.516 190.879 163.846 191.55C163.846 191.718 163.846 191.885 163.846 192.053C162.337 199.596 156.47 205.967 149.765 207.475C149.765 207.811 149.765 207.978 149.597 208.313C137.024 227.424 148.423 258.604 169.545 265.812C169.545 263.13 169.713 260.616 169.713 257.933C169.713 257.095 170.384 256.592 171.054 256.592C172.898 256.592 174.742 256.592 176.586 256.592C176.754 246.702 177.927 235.303 185.136 230.274C190.165 226.753 196.87 227.591 202.57 227.759C206.593 227.759 210.448 227.927 214.472 227.927C214.304 225.748 213.801 223.233 214.136 220.886C214.136 220.718 214.304 220.551 214.304 220.383C214.304 219.88 214.639 219.377 215.31 219.377C216.819 219.377 218.495 219.377 220.004 219.545C217.824 206.302 228.218 193.897 241.629 192.723C260.068 191.382 267.277 204.123 268.45 220.216C269.791 220.216 271.132 220.216 272.473 220.216C273.144 220.216 273.647 220.718 273.814 221.221C274.653 220.886 275.826 221.557 275.323 222.73C274.485 224.742 273.814 226.753 273.814 228.933C280.687 229.1 287.561 229.1 294.434 229.268C307.509 229.603 312.538 231.615 314.55 245.026C315.22 249.049 315.556 253.24 315.891 257.431C318.573 257.431 321.255 257.431 323.937 257.933C324.44 258.101 324.775 258.436 324.775 258.939C325.111 258.939 325.446 259.274 325.278 259.61C324.943 264.136 324.44 268.494 324.105 272.853C347.239 253.407 359.979 224.071 346.4 195.406C336.342 198.591 321.758 192.053 324.608 179.816C324.44 179.48 324.608 178.977 325.111 178.81C327.458 177.804 329.637 176.966 331.648 175.625C332.319 175.289 333.325 175.625 333.492 176.295C333.995 178.977 337.013 183.839 340.03 180.486C342.712 177.636 338.354 175.96 336.678 174.451C336.342 174.116 336.175 173.781 336.342 173.445C335.839 173.11 335.672 172.607 336.007 172.104C337.516 170.093 339.36 168.081 341.371 166.572C341.874 166.237 342.377 166.069 342.88 166.237C343.215 166.069 343.551 165.902 344.053 166.069C352.771 169.59 358.47 179.648 355.285 187.527C358.638 190.879 361.32 194.567 363.499 198.255C364.505 198.423 365.176 199.596 364.673 200.435ZM367.522 232.118C367.69 226.25 367.02 220.551 365.678 215.019C363.667 215.186 361.488 214.851 359.476 214.684C357.967 214.516 355.956 214.684 354.615 213.678C355.285 218.874 355.117 224.071 354.112 229.268C355.956 228.933 358.135 229.603 359.979 229.938C362.661 230.609 365.176 231.279 367.522 232.118ZM364.84 247.875C366.181 243.684 367.02 239.494 367.355 235.303C364.673 234.632 361.99 233.794 359.308 232.956C357.464 232.453 355.453 232.285 353.776 231.279C352.771 235.973 351.262 240.667 349.25 245.193C351.597 245.696 353.609 247.205 355.62 248.211C357.967 249.552 360.649 250.725 362.829 252.401L362.996 252.569C363.834 251.06 364.337 249.384 364.84 247.875ZM359.476 212.001C361.152 212.001 363.164 211.834 364.84 212.001C363.834 208.649 362.661 205.464 361.32 202.111C358.47 203.284 355.453 203.955 352.435 204.123C353.441 206.972 354.112 209.822 354.447 212.672C355.956 211.666 357.967 212.001 359.476 212.001ZM361.99 254.916C361.823 254.916 361.655 254.916 361.488 254.748C358.973 253.575 356.626 252.066 354.279 250.725C352.268 249.552 350.088 248.546 348.58 246.87C346.4 251.396 343.718 255.754 340.701 259.777C342.377 261.118 343.886 262.795 345.227 264.136C347.239 266.148 349.25 268.159 351.429 270.171C351.597 270.338 351.597 270.506 351.765 270.674C355.788 266.148 359.308 260.783 361.99 254.916ZM360.314 199.596C358.638 195.908 356.794 192.388 354.615 188.868C353.273 191.047 351.262 193.059 348.244 194.567C349.753 197.082 350.927 199.764 351.932 202.446C354.782 201.776 357.632 200.938 360.314 199.596ZM346.4 192.053C351.597 189.706 354.447 184.509 352.771 178.81C351.429 173.948 347.406 170.931 342.88 168.919C342.042 169.757 341.204 170.428 340.366 171.266C339.695 171.769 339.024 172.272 338.354 172.942C342.712 174.284 346.065 179.816 341.371 183.168C337.013 186.353 332.654 182.833 331.313 178.474C329.637 179.313 327.961 179.816 326.284 180.151C326.117 190.041 336.845 195.406 345.395 192.388C345.562 192.053 346.065 191.885 346.4 192.053ZM349.585 272.685C349.418 272.518 349.25 272.518 349.083 272.35C346.4 269.836 343.718 267.153 340.868 264.806C340.701 264.639 340.533 264.304 340.701 264.136C340.03 263.465 339.36 262.795 338.689 262.124C336.678 264.639 334.498 266.986 332.319 269.165C332.487 269.333 332.654 269.5 332.822 269.836C333.157 270.674 334.163 271.512 334.666 272.35C335.336 273.356 336.007 274.194 336.678 275.2C337.851 276.876 339.695 278.72 340.198 280.564C343.383 278.385 346.568 275.703 349.585 272.685ZM337.683 282.073C335.839 280.732 334.666 278.385 333.492 276.541C332.487 275.032 330.81 273.021 330.475 271.177C328.799 272.685 327.122 274.194 325.446 275.535C324.943 276.038 324.273 276.038 323.77 275.703C323.267 280.229 322.931 284.755 322.764 289.281C328.128 287.27 333.157 284.923 337.683 282.073ZM323.602 260.113C323.602 260.113 323.434 260.113 323.602 260.113C321.088 260.28 318.573 259.777 316.058 259.442C316.729 272.182 316.058 284.923 314.885 297.495C319.076 297.831 319.244 298.333 319.746 293.472C320.249 289.449 319.914 285.258 320.249 281.067C320.752 274.026 321.926 266.986 323.602 260.113ZM311.532 295.987C312.706 283.414 313.209 270.674 312.203 257.933C311.7 252.234 312.035 244.523 309.688 239.158C306 230.777 295.104 232.788 287.728 232.788C275.323 232.621 262.918 232.285 250.513 232.118C237.438 231.95 224.194 231.615 211.119 231.447C205.922 231.279 199.887 230.274 194.858 231.112C180.609 233.459 181.112 245.528 180.274 255.754C179.268 268.327 179.604 280.732 180.442 293.304C180.777 298.836 181.28 304.368 181.783 310.068C182.118 313.421 182.118 317.109 182.789 320.461C183.459 323.814 189.159 336.554 193.014 336.051C193.182 336.051 193.517 336.219 193.517 336.219C199.72 335.884 206.09 336.554 212.125 336.722C222.35 337.057 232.576 337.225 242.634 337.392C262.918 337.728 283.202 337.728 303.486 337.392C309.018 332.531 308.683 319.12 309.353 312.918C310.359 307.218 311.029 301.686 311.532 295.987ZM305.33 404.782C322.764 400.256 324.105 372.763 305.33 368.74C304.995 368.74 304.827 368.573 304.659 368.405C278.341 368.405 252.022 368.07 225.703 367.902C213.466 367.902 196.702 364.885 185.136 369.075C173.401 373.266 168.54 385.168 174.575 395.729C178.43 402.435 184.8 405.62 192.009 406.793C216.651 406.29 241.293 407.464 266.103 406.793C278.676 406.458 293.26 407.799 305.33 404.782ZM272.473 222.898C272.473 222.898 272.306 223.065 272.473 222.898C255.375 223.568 238.108 223.401 221.009 221.892C220.842 221.892 220.842 221.892 220.674 221.892C219.165 221.724 217.657 221.557 216.316 221.389C216.483 223.401 216.148 225.58 215.98 227.759C221.68 227.927 227.38 227.927 233.079 228.094C246.155 228.262 259.23 228.597 272.138 228.765C271.97 226.753 271.97 224.909 272.473 222.898ZM265.265 220.216C264.93 216.528 264.427 213.007 263.253 209.822C260.404 201.44 254.369 195.406 242.97 195.741C229.056 196.076 222.35 207.14 221.68 219.545C227.547 219.713 233.247 219.713 239.114 219.88C238.276 216.695 237.27 213.678 236.432 210.493C235.761 210.66 234.923 210.996 234.085 211.331C233.079 211.834 232.409 210.493 233.247 209.99C234.085 209.319 234.923 208.984 235.929 208.481C235.761 207.978 235.594 207.475 235.594 206.972C235.258 205.799 236.935 205.128 237.438 206.134C237.605 206.637 237.941 207.14 238.108 207.643C239.785 207.14 241.629 206.972 243.472 207.14C245.316 207.308 247.16 208.146 249.004 208.816C249.507 207.643 250.01 206.469 250.681 205.296C251.351 204.29 253.028 204.961 252.692 206.134C252.357 207.308 251.854 208.649 251.519 209.822C253.866 210.66 256.38 210.996 258.727 209.822C259.565 209.319 260.404 209.822 260.571 210.493C260.739 210.996 260.739 211.666 260.068 212.001C257.219 213.678 254.369 213.51 251.184 212.337C251.016 212.337 250.848 212.169 250.681 212.169C250.01 214.684 249.34 217.198 249.004 219.88C254.536 220.048 259.901 220.216 265.265 220.216ZM255.375 344.936C255.71 343.595 256.045 342.421 256.38 341.248C251.854 341.248 247.328 341.248 242.802 341.08C240.12 341.08 237.438 340.913 234.755 340.913C234.923 342.254 235.091 343.595 235.258 344.936C241.964 344.265 248.669 344.098 255.375 344.936ZM254.201 351.474C254.369 350.133 254.536 348.792 254.872 347.283C248.334 346.948 241.964 346.445 235.426 346.277C235.594 347.953 235.761 349.63 235.929 351.138C242.131 351.641 248.166 351.138 254.201 351.474ZM253.698 358.179C253.698 356.838 253.866 355.329 254.034 353.988C248.166 354.659 242.131 353.988 236.264 353.15C236.432 354.994 236.599 356.67 236.767 358.514C242.299 358.179 247.999 358.179 253.698 358.179ZM253.698 365.387C253.698 363.879 253.698 362.37 253.698 360.861C248.166 360.861 242.467 360.861 236.935 360.358C237.102 361.699 237.102 363.208 237.102 364.549C237.102 364.885 236.935 365.22 236.599 365.387C237.438 365.387 238.276 365.387 239.114 365.387C243.808 365.387 248.669 365.387 253.698 365.387ZM247.328 220.048C247.328 217.198 247.496 214.348 248.334 211.499C245.149 210.325 242.299 209.655 238.946 209.99C239.952 213.175 240.623 216.695 240.958 219.88C243.137 219.88 245.316 220.048 247.328 220.048ZM176.754 294.645C176.921 294.645 176.921 294.645 176.921 294.645C176.251 285.09 176.083 275.535 176.251 266.148C176.251 264.136 176.251 261.621 176.251 259.107C173.066 259.274 172.731 259.275 171.892 263.633C171.389 266.818 171.725 270.506 171.557 273.691C171.389 277.044 171.389 280.397 171.222 283.749C171.222 285.426 169.881 291.125 170.887 293.304C172.898 294.143 174.742 294.645 176.754 294.645ZM168.875 283.749C168.875 278.217 169.043 272.853 169.21 267.321C166.863 266.986 164.684 266.148 162.672 265.309C161.499 267.489 159.655 269.165 157.979 271.009C156.47 272.685 154.961 274.362 153.452 276.038C157.811 279.558 163.008 282.408 168.875 284.084C168.875 284.084 168.875 283.917 168.875 283.749ZM153.285 203.117C157.811 200.602 159.655 196.076 161.164 191.382C158.817 190.544 156.638 189.203 154.961 187.359C153.285 191.382 148.088 198.591 144.065 194.232C140.545 190.544 143.562 185.012 147.25 182.162C145.574 181.324 144.065 180.486 142.724 179.48C135.013 184.342 131.157 194.567 139.036 201.44C142.891 204.793 148.759 205.464 153.285 203.117ZM155.296 269.836C156.805 267.992 158.314 265.812 159.99 264.136C156.47 262.124 153.285 259.274 150.603 255.922C147.921 258.269 144.903 260.783 141.886 262.795C144.568 267.321 147.753 271.344 151.609 274.865C152.95 273.188 154.123 271.512 155.296 269.836ZM149.094 253.575C147.753 251.563 146.412 249.216 145.406 246.87C142.724 248.546 139.706 249.887 136.857 250.893C137.862 254.245 139.204 257.431 140.88 260.616C143.394 258.101 146.244 255.754 149.094 253.575ZM144.233 244.355C143.562 242.343 142.891 240.332 142.389 238.32C142.221 238.488 141.886 238.488 141.718 238.488C139.204 238.655 136.521 238.488 134.007 238.152C134.51 241.673 135.18 245.193 136.018 248.546C138.701 246.87 141.55 245.361 144.233 244.355ZM142.556 215.857C139.874 215.354 137.36 214.348 135.013 213.343C134.342 216.528 133.839 219.713 133.672 222.898C133.839 222.73 133.839 222.73 134.007 222.73C136.354 222.227 138.868 222.395 141.215 223.065C141.55 220.551 141.886 218.036 142.556 215.857ZM141.718 235.806C141.886 235.806 141.886 235.806 141.886 235.806C141.215 232.453 141.047 229.1 141.047 225.58C140.88 225.58 140.88 225.58 140.712 225.58C138.533 225.077 136.521 224.909 134.342 224.909C134.007 224.909 133.672 224.742 133.504 224.574C133.336 228.43 133.336 232.285 133.839 236.141C136.354 235.973 139.204 235.806 141.718 235.806Z" fill="#222221"/>
<path d="M303.989 372.26C312.37 371.925 317.902 383.66 317.4 390.868C316.897 398.579 309.688 405.117 302.145 403.776C301.809 404.111 301.307 404.446 300.804 404.446C281.19 404.614 261.577 404.614 241.964 404.614C225.703 404.614 205.922 407.631 189.997 403.441C181.615 401.261 173.401 394.556 174.91 384.833C175.916 378.128 181.112 373.099 187.315 371.422C187.482 371.087 187.818 370.919 188.321 370.919C226.038 368.405 264.595 370.584 302.312 370.919C303.318 370.752 303.821 371.422 303.989 372.26ZM301.809 400.926C308.18 400.088 314.214 396.568 313.879 389.192C313.544 382.821 309.353 376.619 303.151 375.11C302.648 374.943 302.312 374.607 302.145 374.272C264.93 374.272 226.709 376.116 189.662 373.434C183.459 376.451 176.586 381.313 178.598 389.694C181.112 399.417 192.679 400.591 200.726 401.094C211.454 401.764 222.518 400.926 233.247 400.926C255.71 400.758 278.341 400.591 300.804 400.591C301.307 400.423 301.642 400.758 301.809 400.926Z" fill="#222221"/>
<path d="M313.879 389.192C314.214 396.568 308.18 400.256 301.809 400.926C301.474 400.759 301.139 400.423 300.636 400.423C278.173 400.423 255.542 400.591 233.079 400.758C222.35 400.758 211.287 401.597 200.558 400.926C192.511 400.423 180.945 399.25 178.43 389.527C176.418 381.145 183.291 376.284 189.494 373.266C226.709 375.949 264.762 374.105 301.977 374.105C302.145 374.44 302.48 374.775 302.983 374.943C309.353 376.451 313.544 382.654 313.879 389.192ZM296.948 394.053C300.636 394.221 304.156 391.539 303.821 387.683C303.653 384.163 300.636 382.989 297.619 382.822C297.786 382.319 297.619 381.48 296.78 381.48C293.595 381.48 290.913 384.498 290.746 387.515C290.41 391.203 293.428 393.885 296.948 394.053ZM271.467 394.556C274.988 393.215 276.664 388.521 274.82 385.168C273.144 382.319 268.953 381.145 266.271 382.822C263.924 383.827 262.248 386.342 262.583 389.192C263.086 393.215 267.612 396.065 271.467 394.556ZM245.652 392.88C249.172 391.371 250.345 387.18 248.166 383.995C246.322 381.48 242.97 380.978 240.623 382.319C237.102 381.983 235.091 386.51 236.432 389.527C237.94 393.215 242.131 394.556 245.652 392.88ZM222.853 393.215C226.206 391.036 226.374 386.007 223.859 383.157C222.686 381.816 220.842 380.978 218.83 381.145C217.992 381.313 217.321 381.648 216.651 381.983C213.298 383.157 211.287 387.18 212.963 390.533C214.639 394.221 219.668 395.227 222.853 393.215ZM196.032 393.215C200.055 392.712 203.408 389.024 202.067 384.833C200.726 380.81 195.361 378.798 191.673 380.81C188.991 381.816 187.482 384.498 187.65 387.515C187.985 391.371 192.176 393.55 196.032 393.215Z" fill="#B2D7E8"/>
<path d="M312.203 257.933C313.209 270.506 312.706 283.246 311.532 295.987C311.029 301.686 310.359 307.218 309.688 312.918C308.85 319.12 309.353 332.531 303.821 337.392C283.537 337.56 263.253 337.56 242.97 337.392C232.744 337.225 222.518 337.057 212.46 336.722C206.257 336.554 200.055 335.884 193.852 336.219C193.685 336.051 193.517 335.884 193.35 336.051C189.662 336.554 183.962 323.982 183.124 320.461C182.453 317.109 182.453 313.421 182.118 310.068C181.615 304.536 181.112 299.004 180.777 293.304C179.939 280.732 179.603 268.327 180.609 255.754C181.447 245.361 180.945 233.459 195.194 231.112C200.39 230.274 206.425 231.279 211.454 231.447C224.53 231.615 237.773 231.95 250.848 232.118C263.253 232.285 275.658 232.621 288.063 232.788C295.439 232.956 306.336 230.777 310.024 239.158C312.035 244.523 311.868 252.234 312.203 257.933ZM292.422 260.783C298.792 259.777 303.15 253.91 302.145 247.54C301.139 241.673 294.936 236.309 288.902 238.991C288.566 239.158 288.399 239.326 288.399 239.494C283.034 240.499 278.676 245.026 279.682 251.06C280.52 257.263 286.219 261.621 292.422 260.783ZM297.786 314.426C297.954 301.183 296.277 288.443 285.716 279.391C274.15 269.5 258.224 268.159 243.808 269.836C220.842 272.182 190.667 285.09 194.523 312.918C194.355 312.918 194.188 312.918 194.02 312.918C192.847 312.918 192.847 314.762 194.02 314.762C226.541 317.779 259.733 317.109 292.422 316.438C292.925 316.438 293.26 316.27 293.428 315.935C294.433 316.103 295.272 316.27 296.277 316.103C296.613 316.103 296.948 315.935 297.116 315.6C297.451 315.432 297.786 315.097 297.786 314.426ZM242.634 262.627C247.328 262.627 250.513 257.933 249.843 253.575C249.507 251.563 246.49 252.401 246.825 254.413C247.328 257.095 244.981 259.945 242.299 259.61C239.449 259.442 237.773 256.592 237.773 253.91C237.773 252.904 236.432 252.737 236.096 253.743C234.588 257.766 238.443 262.627 242.634 262.627ZM207.431 258.939C213.13 256.425 215.645 249.384 213.13 243.684C210.951 238.32 204.246 235.638 199.384 239.158C193.852 240.835 190.5 246.87 192.511 252.569C194.691 258.604 201.396 261.621 207.431 258.939Z" fill="#8CC5DF"/>
<path d="M305.33 368.74C324.105 372.596 322.764 400.256 305.33 404.782C293.26 407.967 278.508 406.458 266.103 406.793C241.461 407.296 216.818 406.29 192.008 406.793C184.632 405.62 178.43 402.435 174.574 395.729C168.54 385.168 173.401 373.266 185.135 369.075C196.702 364.885 213.466 367.902 225.703 367.902C252.022 368.07 278.34 368.237 304.659 368.405C304.827 368.573 304.994 368.74 305.33 368.74ZM317.399 390.7C317.902 383.492 312.203 371.925 303.989 372.093C303.821 371.255 303.318 370.584 302.312 370.584C264.594 370.249 226.038 368.07 188.32 370.584C187.818 370.584 187.482 370.919 187.315 371.087C181.112 372.596 175.915 377.792 174.91 384.498C173.401 394.221 181.447 400.758 189.997 403.105C205.922 407.296 225.703 404.279 241.964 404.279C261.577 404.279 281.19 404.279 300.804 404.111C301.474 404.111 301.977 403.776 302.145 403.441C309.856 404.949 316.897 398.579 317.399 390.7Z" fill="#4C859D"/>
<path d="M302.145 247.54C303.15 253.91 298.792 259.777 292.422 260.783C286.219 261.789 280.52 257.263 279.682 251.06C278.843 245.025 283.034 240.499 288.399 239.493C288.399 239.326 288.566 239.158 288.902 238.991C294.936 236.308 301.139 241.505 302.145 247.54ZM291.919 257.766C302.312 256.425 301.139 240.667 291.584 240.667C291.416 240.667 291.416 240.667 291.248 240.667C286.219 240.835 281.693 245.696 282.699 250.725C283.537 255.251 287.393 258.436 291.919 257.766Z" fill="#222221"/>
<path d="M285.717 279.391C296.445 288.443 297.954 301.351 297.786 314.426C297.786 315.097 297.451 315.432 297.116 315.767C296.948 315.935 296.613 316.103 296.278 316.27C295.272 316.27 294.434 316.103 293.428 316.103C293.26 316.438 292.757 316.606 292.422 316.606C259.901 317.276 226.541 317.947 194.02 314.929C192.847 314.762 192.847 313.085 194.02 313.085C194.188 313.085 194.355 313.085 194.523 313.085C190.667 285.09 220.842 272.35 243.808 270.003C258.224 268.159 273.982 269.5 285.717 279.391ZM293.763 313.923C294.098 313.923 294.434 313.756 294.601 313.756C294.098 301.854 293.26 290.119 283.37 281.57C272.976 272.685 258.727 271.512 245.819 272.518C239.449 273.02 232.911 274.194 226.709 276.206C229.726 280.564 232.241 285.258 235.091 289.784C237.27 293.304 239.114 297.998 242.131 301.183C243.64 300.345 245.316 300.01 246.993 299.842C253.866 299.507 260.404 305.542 259.733 312.582C259.733 312.75 259.733 312.75 259.565 312.918C270.629 313.085 281.526 313.085 292.422 312.918C293.092 313.253 293.428 313.588 293.763 313.923ZM237.605 312.918C244.143 312.918 250.513 313.085 257.051 313.085C257.051 312.918 256.883 312.918 256.883 312.75C256.213 307.553 253.028 302.692 247.16 302.692C241.628 302.692 237.605 306.883 237.605 312.247C237.773 312.582 237.773 312.75 237.605 312.918ZM236.432 312.918C236.432 312.75 236.264 312.75 236.264 312.75C234.755 308.559 236.767 304.871 240.12 302.524C237.605 300.177 235.761 296.825 234.085 293.975C230.732 288.611 227.044 283.414 224.194 277.882C224.027 277.714 224.027 277.547 224.027 277.379C208.604 283.079 195.864 294.143 196.535 312.918C209.778 312.582 223.021 312.75 236.432 312.918Z" fill="#222221"/>
<path d="M296.11 243.852C298.624 246.869 297.116 251.899 294.434 254.245C291.584 256.592 287.393 255.084 286.052 251.731C284.711 248.378 286.89 244.523 290.075 243.517C291.248 241.84 294.936 242.343 296.11 243.852ZM295.104 247.875C295.104 247.54 295.104 247.372 295.104 247.037C294.936 245.864 294.266 244.69 293.092 244.523C292.087 244.355 291.751 245.026 291.081 245.528C290.746 245.864 290.243 245.696 289.907 245.528C289.404 246.031 289.069 246.367 288.734 246.869C290.243 246.869 292.087 246.702 293.595 247.372C293.595 247.372 293.763 247.372 293.763 247.54C294.098 247.54 294.266 247.54 294.601 247.708C294.769 247.708 294.936 247.875 295.104 247.875ZM294.601 250.222C294.098 250.222 293.595 250.055 293.26 250.055C293.092 250.39 292.925 250.725 292.59 250.893C292.422 251.899 290.913 252.401 290.243 251.228C289.907 250.725 289.74 250.055 289.74 249.552C289.404 249.552 288.902 249.384 288.566 249.384C288.231 249.384 288.063 249.216 287.728 249.049C287.728 249.216 287.728 249.216 287.728 249.216C287.56 251.731 290.243 254.078 292.59 252.569C293.595 252.234 294.266 251.228 294.601 250.222Z" fill="#222221"/>
<path d="M294.601 313.756C294.266 313.756 293.931 313.923 293.763 313.923C293.595 313.421 293.092 313.085 292.422 313.085C281.526 313.253 270.462 313.085 259.565 313.085C259.565 312.918 259.565 312.918 259.733 312.75C260.236 305.709 253.866 299.675 246.993 300.01C245.316 300.177 243.64 300.513 242.131 301.351C239.114 298.166 237.27 293.472 235.091 289.952C232.409 285.426 229.726 280.732 226.709 276.373C232.911 274.362 239.617 273.188 245.819 272.685C258.895 271.512 273.144 272.853 283.37 281.738C293.26 290.119 294.098 301.854 294.601 313.756Z" fill="#F5F5F5"/>
<path d="M291.584 240.667C300.971 240.667 302.312 256.425 291.919 257.766C287.56 258.436 283.537 255.084 282.699 250.893C281.693 245.864 286.219 241.002 291.248 240.835C291.416 240.835 291.416 240.835 291.584 240.667ZM294.434 254.245C297.116 251.899 298.624 246.87 296.11 243.852C294.769 242.343 291.248 241.84 290.075 243.517C286.722 244.523 284.711 248.378 286.052 251.731C287.225 255.251 291.416 256.76 294.434 254.245Z" fill="#4C859D"/>
<path d="M274.82 385.168C276.664 388.354 274.988 393.047 271.468 394.556C267.612 396.065 263.086 393.215 262.583 389.192C262.248 386.51 263.924 383.995 266.271 382.822C268.953 381.145 273.144 382.319 274.82 385.168ZM270.797 391.371C272.473 390.365 273.312 388.018 272.306 386.174C271.132 384.33 269.121 384.163 267.277 384.833C265.936 385.839 264.93 387.515 265.6 389.192C266.271 391.203 268.785 392.544 270.797 391.371Z" fill="#222221"/>
<path d="M272.306 386.342C273.312 388.018 272.473 390.533 270.797 391.539C268.953 392.544 266.271 391.371 265.6 389.359C264.93 387.683 265.936 386.007 267.277 385.001C269.121 384.33 271.132 384.498 272.306 386.342Z" fill="#4C859D"/>
<path d="M272.306 223.065C272.306 223.065 272.473 222.898 272.306 223.065C271.803 224.909 271.803 226.753 272.138 228.765C259.063 228.597 245.987 228.262 233.079 228.094C227.379 227.927 221.68 227.927 215.98 227.759C216.148 225.748 216.483 223.568 216.316 221.389C217.824 221.557 219.333 221.724 220.674 221.892C220.842 221.892 220.842 221.892 221.009 221.892C238.108 223.401 255.207 223.568 272.306 223.065Z" fill="#4C859D"/>
<path d="M263.421 209.822C264.427 213.007 265.097 216.528 265.433 220.216C260.068 220.216 254.704 220.216 249.172 220.048C249.507 217.366 250.178 214.851 250.848 212.337C251.016 212.337 251.184 212.504 251.351 212.504C254.369 213.678 257.386 213.845 260.236 212.169C260.906 211.834 260.906 211.163 260.739 210.66L263.421 209.822Z" fill="#F6E16F"/>
<path d="M263.421 209.822L260.739 210.66C260.404 209.99 259.733 209.487 258.895 209.99C256.548 211.331 254.033 210.828 251.687 209.99C252.022 208.816 252.525 207.643 252.86 206.302C253.195 205.128 251.519 204.458 250.848 205.464C250.178 206.469 249.675 207.811 249.172 208.984C247.328 208.146 245.484 207.475 243.64 207.308C241.796 207.14 239.952 207.308 238.276 207.811C238.108 207.308 237.94 206.805 237.605 206.302C237.102 205.296 235.426 205.967 235.761 207.14C235.929 207.643 236.096 208.146 236.096 208.649C235.258 208.984 234.42 209.487 233.414 210.157C232.576 210.828 233.247 212.001 234.252 211.499C235.091 211.163 235.761 210.828 236.599 210.66C237.438 213.845 238.443 216.863 239.282 220.048C233.582 219.88 227.715 219.88 221.848 219.713C222.518 207.308 229.223 196.244 243.137 195.908C254.536 195.406 260.571 201.273 263.421 209.822Z" fill="#F6E16F"/>
<path d="M257.051 313.085C250.513 313.085 244.143 312.918 237.605 312.918C237.773 312.75 237.773 312.582 237.773 312.415C237.773 307.05 241.796 302.86 247.328 302.86C253.195 302.86 256.38 307.553 257.051 312.918V313.085Z" fill="#4C859D"/>
<path d="M256.38 341.08C256.045 342.254 255.71 343.595 255.375 344.768C248.669 343.93 241.964 344.098 235.258 344.601C235.091 343.26 234.923 341.919 234.755 340.578C237.438 340.578 240.12 340.745 242.802 340.745C247.496 341.08 251.854 341.08 256.38 341.08Z" fill="#DFEDF6"/>
<path d="M254.872 347.45C254.704 348.792 254.369 350.133 254.201 351.641C248.166 351.306 241.964 351.641 235.929 351.474C235.761 349.797 235.594 348.121 235.426 346.612C241.964 346.612 248.334 347.115 254.872 347.45Z" fill="#DFEDF6"/>
<path d="M254.034 354.156C253.866 355.497 253.866 357.006 253.698 358.347C247.999 358.347 242.299 358.347 236.767 358.85C236.599 357.006 236.432 355.162 236.264 353.485C241.964 354.156 248.166 354.826 254.034 354.156Z" fill="#DFEDF6"/>
<path d="M253.531 360.694C253.531 362.202 253.531 363.879 253.531 365.22C248.669 365.22 243.808 365.22 238.946 365.22C238.108 365.22 237.27 365.22 236.432 365.22C236.767 365.052 236.935 364.717 236.935 364.382C236.935 363.041 236.767 361.532 236.767 360.191C242.299 360.694 247.999 360.694 253.531 360.694Z" fill="#DFEDF6"/>
<path d="M249.843 253.407C250.681 257.766 247.496 262.459 242.634 262.459C238.276 262.459 234.588 257.766 236.096 253.575C236.432 252.737 237.773 252.737 237.773 253.742C237.773 256.425 239.449 259.107 242.299 259.442C244.981 259.61 247.328 256.76 246.825 254.245C246.49 252.401 249.507 251.563 249.843 253.407Z" fill="#222221"/>
<path d="M247.999 383.995C250.346 387.18 249.004 391.371 245.484 392.88C241.964 394.388 237.773 393.215 236.264 389.695C234.923 386.677 236.935 382.151 240.455 382.486C242.97 381.145 246.322 381.48 247.999 383.995ZM244.311 390.533C246.155 389.695 246.993 387.851 246.155 386.007C244.814 383.492 241.964 384.163 240.455 385.839C239.952 386.342 239.282 386.342 238.946 386.007C237.773 388.186 240.79 391.874 244.311 390.533Z" fill="#222221"/>
<path d="M248.334 211.331C247.663 214.181 247.328 217.03 247.328 219.88C245.316 219.88 243.137 219.88 240.958 219.713C240.623 216.528 239.952 213.007 238.946 209.822C242.131 209.487 244.981 210.325 248.334 211.331Z" fill="#F6E16F"/>
<path d="M245.987 385.839C246.993 387.683 246.155 389.695 244.143 390.365C240.623 391.706 237.605 388.018 238.611 385.671C239.114 386.007 239.617 386.007 240.12 385.504C241.964 383.995 244.813 383.324 245.987 385.839Z" fill="#4C859D"/>
<path d="M236.264 312.582C236.264 312.75 236.432 312.75 236.432 312.75C223.021 312.582 209.778 312.582 196.367 312.75C195.697 293.975 208.437 282.911 223.859 277.211C223.859 277.379 224.027 277.547 224.027 277.714C227.044 283.246 230.565 288.443 233.917 293.807C235.761 296.657 237.438 300.01 239.952 302.357C236.767 304.704 234.588 308.559 236.264 312.582Z" fill="#DFEDF6"/>
<path d="M223.859 383.157C226.374 386.006 226.206 391.036 222.853 393.215C219.668 395.226 214.639 394.221 212.963 390.7C211.287 387.348 213.298 383.324 216.651 382.151C217.321 381.648 218.16 381.313 218.83 381.313C220.842 380.81 222.686 381.648 223.859 383.157ZM220.674 390.868C222.686 390.03 223.021 387.683 222.35 385.839C222.015 385.001 221.177 384.163 220.339 383.995C218.998 383.66 218.495 384.498 217.657 385.168C217.154 385.504 216.483 385.504 216.148 385.168C215.477 386.342 215.142 388.018 215.813 389.192C216.483 391.036 218.83 391.706 220.674 390.868Z" fill="#222221"/>
<path d="M222.183 385.839C223.021 387.683 222.518 390.03 220.506 390.868C218.662 391.706 216.316 391.036 215.477 389.192C214.974 388.018 215.142 386.509 215.813 385.168C216.148 385.671 216.986 385.671 217.321 385.168C218.16 384.33 218.662 383.66 220.004 383.995C221.177 384.33 221.848 385.001 222.183 385.839Z" fill="#4C859D"/>
<path d="M213.131 243.684C215.477 249.384 213.13 256.425 207.431 258.939C201.396 261.621 194.691 258.604 192.511 252.569C190.5 246.869 193.852 240.835 199.384 239.158C204.246 235.638 210.951 238.32 213.131 243.684ZM204.916 256.928C215.98 253.91 210.616 235.303 199.887 241.338C199.552 241.505 199.217 241.505 198.882 241.338C195.864 243.349 193.685 246.869 194.691 250.725C195.864 255.251 200.558 258.101 204.916 256.928Z" fill="#222221"/>
<path d="M206.76 249.049H206.928C206.928 251.563 204.581 254.078 201.899 253.575C199.552 253.072 198.043 250.725 198.714 248.546C199.552 248.546 200.558 248.713 201.396 248.713C201.396 248.881 201.396 248.881 201.396 248.881C201.228 249.552 201.396 250.222 201.396 250.893C201.564 253.072 204.413 252.401 204.246 250.893C204.246 250.222 204.413 249.552 204.246 248.881C204.246 248.881 204.246 248.881 204.413 248.881C204.749 249.049 204.916 249.049 205.252 249.216C205.755 249.552 206.09 249.384 206.257 249.049C206.425 249.049 206.593 249.049 206.76 249.049Z" fill="#F5F5F5"/>
<path d="M199.887 241.338C210.616 235.303 215.98 253.91 204.916 256.928C200.558 258.101 195.864 255.251 194.858 250.725C193.852 246.869 196.032 243.349 199.049 241.338C199.217 241.505 199.552 241.505 199.887 241.338ZM202.234 255.754C210.281 256.425 211.622 243.684 203.743 242.511C203.408 242.511 203.072 242.679 202.905 242.846C199.887 243.517 197.205 245.864 196.702 248.881C196.032 252.234 198.882 255.419 202.234 255.754Z" fill="#4C859D"/>
<path d="M203.743 242.343C211.622 243.517 210.281 256.257 202.234 255.587C198.881 255.251 196.032 252.066 196.535 248.714C197.037 245.528 199.887 243.349 202.737 242.679C203.072 242.511 203.408 242.343 203.743 242.343ZM206.928 249.049H206.76C206.593 249.049 206.425 249.049 206.257 249.049C206.09 249.384 205.755 249.552 205.252 249.216C205.084 249.049 204.749 249.049 204.413 248.881C204.413 248.881 204.413 248.881 204.246 248.881C204.413 249.552 204.246 250.222 204.246 250.893C204.413 252.401 201.564 253.072 201.396 250.893C201.396 250.222 201.228 249.552 201.396 248.881C201.396 248.714 201.396 248.714 201.396 248.714C200.558 248.714 199.72 248.546 198.714 248.546C198.043 250.725 199.552 253.072 201.899 253.575C204.749 254.078 206.928 251.563 206.928 249.049ZM206.593 247.037C205.922 245.696 204.749 244.69 203.408 244.02C202.067 244.858 200.558 245.696 199.72 246.87C201.899 246.702 204.413 246.534 206.593 247.037Z" fill="#222221"/>
<path d="M203.408 244.02C204.749 244.69 205.922 245.696 206.593 247.037C204.413 246.534 201.899 246.534 199.72 246.87C200.558 245.696 202.067 244.858 203.408 244.02Z" fill="#4C859D"/>
<path d="M202.067 384.666C203.408 388.856 200.055 392.544 196.032 393.047C192.344 393.55 188.153 391.371 187.65 387.348C187.315 384.498 188.991 381.648 191.673 380.642C195.361 378.631 200.726 380.642 202.067 384.666ZM195.194 390.365C198.043 390.198 200.558 387.515 198.882 384.833C197.373 382.151 194.355 382.654 191.673 382.989C191.673 382.989 191.673 382.989 191.506 382.989C190.5 383.995 189.829 385.671 190.165 387.18C190.667 389.359 193.014 390.533 195.194 390.365Z" fill="#222221"/>
<path d="M198.882 384.833C200.558 387.683 198.043 390.198 195.194 390.365C193.014 390.533 190.668 389.359 190.332 387.012C190.165 385.504 190.668 383.827 191.673 382.822C191.673 382.822 191.673 382.822 191.841 382.822C194.355 382.654 197.373 382.151 198.882 384.833Z" fill="#4C859D"/>
<path d="M176.921 294.646H176.754C174.742 294.813 172.898 294.143 171.222 293.304C170.216 291.125 171.557 285.593 171.557 283.749C171.725 280.397 171.725 277.044 171.892 273.691C172.06 270.506 171.557 266.818 172.227 263.633C172.898 259.442 173.401 259.275 176.586 259.107C176.586 261.621 176.586 264.136 176.586 266.148C176.083 275.535 176.251 285.09 176.921 294.646Z" fill="#4C859D"/>
<path d="M169.21 267.321C169.042 272.685 169.042 278.217 168.875 283.749C168.875 283.917 168.875 284.084 168.875 284.252C163.008 282.576 157.811 279.726 153.452 276.206C154.961 274.529 156.47 272.853 157.979 271.177C159.487 269.333 161.499 267.489 162.672 265.477C164.684 266.315 166.863 266.986 169.21 267.321Z" fill="#DFEDF6"/>
<path d="M160.996 191.382C159.487 195.909 157.811 200.602 153.117 203.117C148.591 205.464 142.724 204.961 138.868 201.44C131.157 194.567 135.013 184.174 142.724 179.48C144.065 180.486 145.574 181.324 147.082 182.162C143.562 185.012 140.545 190.544 143.897 194.232C147.921 198.591 153.285 191.382 154.794 187.359C156.47 189.371 158.649 190.712 160.996 191.382Z" fill="#4C859D"/>
<path d="M160.158 264.136C158.482 265.812 156.973 267.992 155.464 269.836C154.291 271.512 152.95 273.021 151.776 274.697C147.921 271.177 144.568 267.153 142.053 262.627C145.071 260.616 148.088 258.101 150.77 255.754C153.285 259.107 156.47 261.957 160.158 264.136Z" fill="#DFEDF6"/>
<path d="M145.406 246.869C146.412 249.216 147.753 251.396 149.094 253.575C146.244 255.754 143.394 258.101 140.88 260.783C139.203 257.766 137.862 254.413 136.857 251.06C139.706 249.887 142.724 248.546 145.406 246.869Z" fill="#DFEDF6"/>
<path d="M146.076 207.643C144.903 209.487 144.065 211.499 143.227 213.51C143.059 213.51 143.059 213.343 143.059 213.343C140.712 212.504 138.03 212.001 135.515 211.499C136.018 209.319 136.689 207.14 137.359 204.961C137.527 204.458 137.359 203.955 137.024 203.62C137.192 203.787 137.359 203.787 137.359 203.955C140.209 206.302 143.227 207.475 146.076 207.643Z" fill="#DFEDF6"/>
<path d="M142.389 238.32C142.891 240.332 143.562 242.343 144.233 244.355C141.55 245.361 138.701 247.037 136.018 248.546C135.013 245.193 134.342 241.673 134.007 238.153C136.521 238.488 139.204 238.655 141.718 238.488C142.053 238.488 142.221 238.488 142.389 238.32Z" fill="#DFEDF6"/>
<path d="M142.389 215.857C142.556 215.857 142.556 215.857 142.389 215.857C141.886 218.204 141.55 220.551 141.215 223.065C138.868 222.562 136.354 222.395 134.007 222.73C133.839 222.73 133.672 222.898 133.672 222.898C134.007 219.713 134.342 216.528 135.013 213.342C137.527 214.348 140.042 215.354 142.389 215.857Z" fill="#DFEDF6"/>
<path d="M141.886 235.806C141.718 235.806 141.718 235.806 141.718 235.806C139.204 235.638 136.521 235.973 133.839 236.141C133.504 232.285 133.336 228.43 133.504 224.574C133.672 224.742 134.007 224.909 134.342 224.909C136.521 224.909 138.533 225.077 140.712 225.58C140.88 225.58 140.88 225.58 141.048 225.58C141.048 229.1 141.383 232.453 141.886 235.806Z" fill="#DFEDF6"/>
</g>
</g>
<defs>
<linearGradient id="paint0_linear_11845_50752" x1="143.5" y1="0" x2="143.5" y2="422" gradientUnits="userSpaceOnUse">
<stop stop-color="#4778EC"/>
<stop offset="1" stop-color="#4A47EC" stop-opacity="0.74"/>
</linearGradient>
<linearGradient id="paint1_linear_11845_50752" x1="216.719" y1="112.386" x2="216.719" y2="479.811" gradientUnits="userSpaceOnUse">
<stop stop-color="#394B39"/>
<stop offset="0.71916" stop-color="#BBB476"/>
</linearGradient>
</defs>
</svg>
