<svg width="65" height="103" viewBox="0 0 65 103" fill="none" xmlns="http://www.w3.org/2000/svg">
<path d="M54.408 47.576L53.7753 48.3505L53.782 48.3558L54.408 47.576ZM60.168 86.456L59.3135 85.9366L60.168 86.456ZM46.776 98.12L46.3404 97.2198L46.776 98.12ZM3.864 99.416L3.56415 100.37L3.57665 100.374L3.864 99.416ZM-13.128 90.776L-14.0062 90.2978L-14.409 91.0373L-13.7487 91.56L-13.128 90.776ZM-5.208 76.232L-4.57368 75.4589L-5.50815 74.6922L-6.08623 75.7538L-5.208 76.232ZM8.184 83.576L7.8521 84.5193L7.86249 84.523L7.87296 84.5264L8.184 83.576ZM40.008 82.136L40.5912 82.9483L40.595 82.9456L40.008 82.136ZM39.576 59.096L39.0213 59.928L39.0327 59.9356L39.0442 59.9429L39.576 59.096ZM-5.64 55.064L-6.63556 54.9699L-6.73894 56.064H-5.64V55.064ZM-0.455999 0.199993V-0.800007H-1.36597L-1.45156 0.105923L-0.455999 0.199993ZM58.728 0.199993H59.728V-0.800007H58.728V0.199993ZM58.728 15.896V16.896H59.728V15.896H58.728ZM15.384 15.896V14.896H14.4723L14.3883 15.8038L15.384 15.896ZM13.224 39.224L12.2283 39.1318L12.1271 40.224H13.224V39.224ZM22.872 40.224C36.9815 40.224 47.2187 42.9943 53.7754 48.3504L55.0406 46.8016C47.9653 41.0217 37.1785 38.224 22.872 38.224V40.224ZM53.782 48.3558C60.3389 53.6198 63.632 60.8089 63.632 70.04H65.632C65.632 60.2631 62.1091 52.4762 55.034 46.7962L53.782 48.3558ZM63.632 70.04C63.632 75.9154 62.189 81.206 59.3135 85.9366L61.0225 86.9754C64.0991 81.914 65.632 76.2606 65.632 70.04H63.632ZM59.3135 85.9366C56.4522 90.6438 52.1464 94.4105 46.3404 97.2198L47.2116 99.0202C53.3096 96.0695 57.9318 92.0602 61.0225 86.9754L59.3135 85.9366ZM46.3404 97.2198C40.5606 100.017 33.3755 101.44 24.744 101.44V103.44C33.5845 103.44 41.0874 101.983 47.2116 99.0202L46.3404 97.2198ZM24.744 101.44C17.6387 101.44 10.7757 100.445 4.15135 98.4582L3.57665 100.374C10.3923 102.419 17.4493 103.44 24.744 103.44V101.44ZM4.16383 98.462C-2.46227 96.3795 -8.01191 93.5508 -12.5073 89.992L-13.7487 91.56C-9.02809 95.2972 -3.24972 98.2285 3.56417 100.37L4.16383 98.462ZM-12.2498 91.2542L-4.32977 76.7102L-6.08623 75.7538L-14.0062 90.2978L-12.2498 91.2542ZM-5.84232 77.0051C-1.99693 80.1603 2.57279 82.6618 7.8521 84.5193L8.51591 82.6327C3.42721 80.8422 -0.931065 78.4477 -4.57368 75.4589L-5.84232 77.0051ZM7.87296 84.5264C13.2536 86.2873 18.7826 87.168 24.456 87.168V85.168C18.9934 85.168 13.6744 84.3207 8.49504 82.6256L7.87296 84.5264ZM24.456 87.168C31.2013 87.168 36.6175 85.8012 40.5912 82.9483L39.4248 81.3237C35.9105 83.8468 30.9587 85.168 24.456 85.168V87.168ZM40.595 82.9456C44.6981 79.9708 46.768 75.8759 46.768 70.76H44.768C44.768 75.2441 42.9979 78.7332 39.421 81.3264L40.595 82.9456ZM46.768 70.76C46.768 65.2583 44.5488 61.0376 40.1078 58.2491L39.0442 59.9429C42.8592 62.3384 44.768 65.8937 44.768 70.76H46.768ZM40.1307 58.2639C35.8354 55.4004 28.6133 54.064 18.696 54.064V56.064C28.5547 56.064 35.2526 57.4156 39.0213 59.928L40.1307 58.2639ZM18.696 54.064H-5.64V56.064H18.696V54.064ZM-4.64443 55.1581L0.539566 0.294064L-1.45156 0.105923L-6.63556 54.9699L-4.64443 55.1581ZM-0.455999 1.19999H58.728V-0.800007H-0.455999V1.19999ZM57.728 0.199993V15.896H59.728V0.199993H57.728ZM58.728 14.896H15.384V16.896H58.728V14.896ZM14.3883 15.8038L12.2283 39.1318L14.2197 39.3162L16.3797 15.9882L14.3883 15.8038ZM13.224 40.224H22.872V38.224H13.224V40.224Z" fill="white" fill-opacity="0.2"/>
</svg>
