<svg width="82" height="101" viewBox="0 0 82 101" fill="none" xmlns="http://www.w3.org/2000/svg">
<path d="M81.192 78.104V79.104H82.192V78.104H81.192ZM63.336 78.104V77.104H62.336V78.104H63.336ZM63.336 101V102H64.336V101H63.336ZM45.192 101H44.192V102H45.192V101ZM45.192 78.104H46.192V77.104H45.192V78.104ZM-10.104 78.104H-11.104V79.104H-10.104V78.104ZM-10.104 65.144L-10.8983 64.5364L-11.104 64.8054V65.144H-10.104ZM39.576 0.199993V-0.800007H39.0819L38.7817 -0.407589L39.576 0.199993ZM59.592 0.199993L60.3904 0.802067L61.5985 -0.800007H59.592V0.199993ZM12.792 62.264L11.9936 61.6619L10.7855 63.264H12.792V62.264ZM45.768 62.264V63.264H46.768V62.264H45.768ZM45.768 41.96V40.96H44.768V41.96H45.768ZM63.336 41.96H64.336V40.96H63.336V41.96ZM63.336 62.264H62.336V63.264H63.336V62.264ZM81.192 62.264H82.192V61.264H81.192V62.264ZM81.192 77.104H63.336V79.104H81.192V77.104ZM62.336 78.104V101H64.336V78.104H62.336ZM63.336 100H45.192V102H63.336V100ZM46.192 101V78.104H44.192V101H46.192ZM45.192 77.104H-10.104V79.104H45.192V77.104ZM-9.104 78.104V65.144H-11.104V78.104H-9.104ZM-9.30974 65.7516L40.3703 0.807575L38.7817 -0.407589L-10.8983 64.5364L-9.30974 65.7516ZM39.576 1.19999H59.592V-0.800007H39.576V1.19999ZM58.7936 -0.402081L11.9936 61.6619L13.5904 62.8661L60.3904 0.802067L58.7936 -0.402081ZM12.792 63.264H45.768V61.264H12.792V63.264ZM46.768 62.264V41.96H44.768V62.264H46.768ZM45.768 42.96H63.336V40.96H45.768V42.96ZM62.336 41.96V62.264H64.336V41.96H62.336ZM63.336 63.264H81.192V61.264H63.336V63.264ZM80.192 62.264V78.104H82.192V62.264H80.192Z" fill="white" fill-opacity="0.2"/>
</svg>
