<svg width="26" height="101" viewBox="0 0 26 101" fill="none" xmlns="http://www.w3.org/2000/svg">
<path d="M25.184 0.199993H26.184V-0.800007H25.184V0.199993ZM25.184 101V102H26.184V101H25.184ZM6.464 101H5.464V102H6.464V101ZM6.464 15.896H7.464V14.896H6.464V15.896ZM-14.848 15.896H-15.848V16.896H-14.848V15.896ZM-14.848 0.199993V-0.800007H-15.848V0.199993H-14.848ZM24.184 0.199993V101H26.184V0.199993H24.184ZM25.184 100H6.464V102H25.184V100ZM7.464 101V15.896H5.464V101H7.464ZM6.464 14.896H-14.848V16.896H6.464V14.896ZM-13.848 15.896V0.199993H-15.848V15.896H-13.848ZM-14.848 1.19999H25.184V-0.800007H-14.848V1.19999Z" fill="#cccccc"/>
</svg>
