<svg width="63" height="103" viewBox="0 0 63 103" fill="none" xmlns="http://www.w3.org/2000/svg">
<path d="M34.248 41.816L33.4829 41.1721L32.2962 42.5822L34.1252 42.8084L34.248 41.816ZM55.56 51.32L56.287 50.6334L55.56 51.32ZM58.44 86.744L59.2899 87.2709L58.44 86.744ZM44.904 98.264L45.3277 99.1698L45.3339 99.1669L44.904 98.264ZM2.136 99.416L1.83223 100.369L1.84042 100.371L1.84865 100.374L2.136 99.416ZM-14.856 90.776L-15.7306 90.2911L-16.1463 91.0408L-15.4688 91.5662L-14.856 90.776ZM-6.792 76.232L-6.14786 75.4671L-7.07734 74.6844L-7.66656 75.7471L-6.792 76.232ZM6.456 83.576L6.12409 84.5193L6.13449 84.523L6.14496 84.5264L6.456 83.576ZM38.28 82.136L38.8632 82.9483L38.867 82.9456L38.28 82.136ZM38.568 59.96L37.9646 60.7574L37.9765 60.7665L37.9888 60.7752L38.568 59.96ZM12.936 55.928H11.936V56.928H12.936V55.928ZM12.936 43.112L12.1708 42.4682L11.936 42.7473V43.112H12.936ZM35.832 15.896L36.5972 16.5398L37.9801 14.896H35.832V15.896ZM-9.96 15.896H-10.96V16.896H-9.96V15.896ZM-9.96 0.199993V-0.800007H-10.96V0.199993H-9.96ZM58.728 0.199993H59.728V-0.800007H58.728V0.199993ZM58.728 12.728L59.4931 13.3719L59.728 13.0928V12.728H58.728ZM34.1252 42.8084C43.28 43.941 50.1412 47.0388 54.833 52.0066L56.287 50.6334C51.1869 45.2332 43.84 41.995 34.3708 40.8236L34.1252 42.8084ZM54.833 52.0066C59.5371 56.9874 61.904 63.2141 61.904 70.76H63.904C63.904 62.7539 61.3749 56.0206 56.287 50.6334L54.833 52.0066ZM61.904 70.76C61.904 76.437 60.4643 81.5813 57.5901 86.2171L59.2899 87.2709C62.3678 82.3067 63.904 76.795 63.904 70.76H61.904ZM57.5901 86.2171C54.7327 90.8258 50.3816 94.548 44.4741 97.3611L45.3339 99.1669C51.5224 96.22 56.1953 92.2622 59.2899 87.2709L57.5901 86.2171ZM44.4803 97.3582C38.6958 100.064 31.5537 101.44 23.016 101.44V103.44C31.7583 103.44 39.2082 102.032 45.3277 99.1698L44.4803 97.3582ZM23.016 101.44C15.9107 101.44 9.04769 100.445 2.42335 98.4582L1.84865 100.374C8.66431 102.419 15.7213 103.44 23.016 103.44V101.44ZM2.43977 98.4633C-4.09088 96.381 -9.64599 93.5509 -14.2432 89.9858L-15.4688 91.5662C-10.658 95.2971 -4.88512 98.227 1.83223 100.369L2.43977 98.4633ZM-13.9814 91.2609L-5.91743 76.7169L-7.66656 75.7471L-15.7306 90.2911L-13.9814 91.2609ZM-7.43614 76.9969C-3.68276 80.1576 0.843214 82.6612 6.12409 84.5193L6.78791 82.6327C1.70079 80.8428 -2.60524 78.4503 -6.14786 75.4671L-7.43614 76.9969ZM6.14496 84.5264C11.5256 86.2873 17.0546 87.168 22.728 87.168V85.168C17.2654 85.168 11.9464 84.3207 6.76704 82.6256L6.14496 84.5264ZM22.728 87.168C29.4733 87.168 34.8895 85.8012 38.8632 82.9483L37.6968 81.3237C34.1825 83.8468 29.2307 85.168 22.728 85.168V87.168ZM38.867 82.9456C42.9639 79.9754 45.04 75.9316 45.04 70.904H43.04C43.04 75.2844 41.2761 78.7286 37.693 81.3264L38.867 82.9456ZM45.04 70.904C45.04 65.8957 43.0747 61.9354 39.1472 59.1448L37.9888 60.7752C41.3573 63.1686 43.04 66.5043 43.04 70.904H45.04ZM39.1714 59.1626C35.3642 56.2814 29.6307 54.928 22.152 54.928V56.928C29.4573 56.928 34.6678 58.2626 37.9646 60.7574L39.1714 59.1626ZM22.152 54.928H12.936V56.928H22.152V54.928ZM13.936 55.928V43.112H11.936V55.928H13.936ZM13.7012 43.7558L36.5972 16.5398L35.0668 15.2522L12.1708 42.4682L13.7012 43.7558ZM35.832 14.896H-9.96V16.896H35.832V14.896ZM-8.96 15.896V0.199993H-10.96V15.896H-8.96ZM-9.96 1.19999H58.728V-0.800007H-9.96V1.19999ZM57.728 0.199993V12.728H59.728V0.199993H57.728ZM57.9629 12.0841L33.4829 41.1721L35.0131 42.4599L59.4931 13.3719L57.9629 12.0841Z" fill="white" fill-opacity="0.2"/>
</svg>
