<svg width="65" height="103" viewBox="0 0 65 103" fill="none" xmlns="http://www.w3.org/2000/svg">
<path d="M64.344 87.16H65.344V86.16H64.344V87.16ZM64.344 103V104H65.344V103H64.344ZM-9.96 103H-10.96V104H-9.96V103ZM-9.96 90.472L-10.6486 89.7469L-10.96 90.0426V90.472H-9.96ZM30.072 52.456L30.7606 53.1811L30.7636 53.1783L30.072 52.456ZM39.144 41.224L38.2495 40.7767L38.2442 40.7877L39.144 41.224ZM36.84 20.776L37.4589 19.9905L36.84 20.776ZM-0.743999 27.544L-1.35371 28.3366L-0.566805 28.9419L0.0441885 28.1594L-0.743999 27.544ZM-13.848 17.464L-14.6497 16.8663L-15.2384 17.6561L-14.4577 18.2566L-13.848 17.464ZM1.992 5.224L2.39074 6.14109L2.39693 6.13835L1.992 5.224ZM50.664 8.536L50.0421 9.31911L50.664 8.536ZM57 45.112L56.0985 44.6793L57 45.112ZM43.752 61.528L43.0666 60.7998L43.0625 60.8037L43.752 61.528ZM16.824 87.16L16.1345 86.4357L14.323 88.16H16.824V87.16ZM63.344 87.16V103H65.344V87.16H63.344ZM64.344 102H-9.96V104H64.344V102ZM-8.96 103V90.472H-10.96V103H-8.96ZM-9.27139 91.1971L30.7606 53.1811L29.3834 51.7309L-10.6486 89.7469L-9.27139 91.1971ZM30.7636 53.1783C35.3056 48.8296 38.4305 44.9878 40.0438 41.6603L38.2442 40.7877C36.7855 43.7962 33.8624 47.4424 29.3804 51.7337L30.7636 53.1783ZM40.0384 41.6712C41.7293 38.2895 42.592 34.9213 42.592 31.576H40.592C40.592 34.5667 39.8227 37.6305 38.2496 40.7768L40.0384 41.6712ZM42.592 31.576C42.592 26.6229 40.9092 22.709 37.4589 19.9905L36.2211 21.5615C39.1068 23.835 40.592 27.1211 40.592 31.576H42.592ZM37.4589 19.9905C34.0433 17.2994 29.1289 16.032 22.872 16.032V18.032C28.9031 18.032 33.3007 19.2606 36.2211 21.5615L37.4589 19.9905ZM22.872 16.032C12.3461 16.032 4.16024 19.6383 -1.53219 26.9286L0.0441885 28.1594C5.29576 21.4337 12.8539 18.032 22.872 18.032V16.032ZM-0.134288 26.7514L-13.2383 16.6714L-14.4577 18.2566L-1.35371 28.3366L-0.134288 26.7514ZM-13.0463 18.0617C-9.22435 12.9347 -4.08928 8.95846 2.39073 6.14107L1.59328 4.30693C-5.17472 7.24953 -10.5997 11.4333 -14.6497 16.8663L-13.0463 18.0617ZM2.39693 6.13835C8.97454 3.2254 16.3222 1.75999 24.456 1.75999V-0.240005C16.0778 -0.240005 8.44947 1.27059 1.58707 4.30965L2.39693 6.13835ZM24.456 1.75999C35.2452 1.75999 43.7396 4.31414 50.0421 9.31911L51.2859 7.75289C44.5324 2.38985 35.5548 -0.240005 24.456 -0.240005V1.75999ZM50.0421 9.31911C56.3124 14.2984 59.456 21.0561 59.456 29.704H61.456C61.456 20.4959 58.0716 13.1416 51.2859 7.75289L50.0421 9.31911ZM59.456 29.704C59.456 35.0305 58.3358 40.0181 56.0985 44.6793L57.9015 45.5447C60.2722 40.6059 61.456 35.3215 61.456 29.704H59.456ZM56.0985 44.6793C53.872 49.3178 49.5578 54.6905 43.0666 60.7998L44.4374 62.2562C51.0022 56.0775 55.52 50.5062 57.9015 45.5447L56.0985 44.6793ZM43.0625 60.8037L16.1345 86.4357L17.5135 87.8843L44.4415 62.2523L43.0625 60.8037ZM16.824 88.16H64.344V86.16H16.824V88.16Z" fill="white" fill-opacity="0.2"/>
</svg>
