<svg width="22" height="22" viewBox="0 0 22 22" fill="none" xmlns="http://www.w3.org/2000/svg">
<rect width="22" height="22" rx="3" fill="#FF6968"/>
<path fill-rule="evenodd" clip-rule="evenodd" d="M13.7156 14.6711C13.8903 14.4371 14.0079 14.1578 14.0476 13.8541L16.7696 15.0639C17.3483 15.321 18 14.8975 18 14.2643V7.73571C18 7.10251 17.3483 6.67896 16.7696 6.93612L14.0476 8.1459C13.9354 7.28766 13.2013 6.625 12.3125 6.625H7.96836L13.7156 14.6711ZM4.59349 7.06158C4.22958 7.38227 4 7.85182 4 8.375V13.625C4 14.5915 4.7835 15.375 5.75 15.375H10.5316L4.59349 7.06158Z" fill="white"/>
<path fill-rule="evenodd" clip-rule="evenodd" d="M13.269 17.3797L4.51904 5.12968L5.23106 4.62109L13.9811 16.8711L13.269 17.3797Z" fill="white"/>
</svg>
