<svg width="22" height="28" viewBox="0 0 22 28" fill="none" xmlns="http://www.w3.org/2000/svg">
  <g clip-path="url(#clip0_11197_38224)">
    <path d="M11.0178 4.13437C15.6942 4.13437 19.4494 7.88406 19.4494 12.4748H22.0001C22.0001 6.4823 17.0758 1.57617 10.9824 1.57617L11.0178 4.13437Z" fill="#F35251"/>
    <path d="M11.0177 4.13437V1.57617C4.92432 1.57617 0 6.4823 0 12.4748H2.55072C2.55072 7.84901 6.34138 4.13437 11.0177 4.13437Z" fill="#FF6968"/>
    <path d="M11.0179 25.2315L4.39307 28V0H11.0179V25.2315Z" fill="#57D8FC"/>
    <path d="M17.6424 28L11.0176 25.2315V0H17.6424V28Z" fill="#2DCEFB"/>
    <path d="M19.4491 12.5116C19.4491 17.1374 15.6585 20.852 11.0176 20.852V23.3752C17.0755 23.3752 22.0353 18.5041 22.0353 12.4765H19.4491V12.5116Z" fill="#F35251"/>
    <path d="M2.55072 12.4766H0C0 18.5041 4.92432 23.3752 11.0177 23.3752V20.852C6.34138 20.817 2.55072 17.1023 2.55072 12.4766Z" fill="#FF6968"/>
    <path d="M10.3093 9.60156C10.3447 9.74174 10.3801 9.91696 10.3801 10.0922C10.4864 11.3187 9.77786 12.4051 8.82134 12.4752C8.07738 12.5452 7.36884 11.8794 7.05 11.0734H6.12891L8.14823 15.2787H10.9824V9.60156H10.3093Z" fill="#FFF080"/>
    <path d="M11.6555 9.60156C11.6201 9.74174 11.5847 9.91696 11.5847 10.0922C11.4784 11.3187 12.1869 12.4051 13.1435 12.4752C13.8874 12.5452 14.5959 11.8794 14.9148 11.0734H15.8359L13.8166 15.2787H10.9824V9.60156H11.6555Z" fill="#FFEB57"/>
    <path d="M7.05016 10.0568C7.05016 10.3722 6.80217 10.6175 6.48333 10.6175C6.16449 10.6175 5.9165 10.3722 5.9165 10.0568C5.9165 9.7414 6.16449 9.49609 6.48333 9.49609C6.80217 9.49609 7.05016 9.7414 7.05016 10.0568Z" fill="#FFF080"/>
    <path d="M14.915 10.0568C14.915 10.3722 15.163 10.6175 15.4819 10.6175C15.8007 10.6175 16.0487 10.3722 16.0487 10.0568C16.0487 9.7414 15.8007 9.49609 15.4819 9.49609C15.163 9.49609 14.915 9.7414 14.915 10.0568Z" fill="#FFEB57"/>
    <path d="M11.7267 8.4449C11.7267 8.86543 11.4079 9.18082 10.9827 9.18082C10.5576 9.18082 10.2388 8.86543 10.2388 8.4449C10.2388 8.02438 10.5576 7.70898 10.9827 7.70898C11.4079 7.70898 11.7267 8.02438 11.7267 8.4449Z" fill="#FFF080"/>
    <path d="M5.95175 2.73438L6.19974 3.22499L6.73114 3.29508L6.34145 3.68056L6.4123 4.20621L5.95175 3.96091L5.45578 4.20621L5.56206 3.68056L5.17236 3.29508L5.70376 3.22499L5.95175 2.73438Z" fill="#FF6968"/>
    <path d="M10.9822 0.806641L11.4781 1.82291L12.6118 1.96309L11.797 2.76909L11.9741 3.85545L10.9822 3.32979L9.99022 3.85545L10.1674 2.76909L9.35254 1.96309L10.4862 1.82291L10.9822 0.806641Z" fill="#FF6968"/>
    <path d="M16.0482 2.73438L15.8002 3.22499L15.2334 3.29508L15.6585 3.68056L15.5522 4.20621L16.0482 3.96091L16.5088 4.20621L16.4379 3.68056L16.8276 3.29508L16.2962 3.22499L16.0482 2.73438Z" fill="#FF6968"/>
  </g>
  <defs>
    <clipPath id="clip0_11197_38224">
      <rect width="22" height="28" fill="white"/>
    </clipPath>
  </defs>
</svg>
