<svg width="15" height="28" viewBox="0 0 15 28" fill="none" xmlns="http://www.w3.org/2000/svg">
  <path d="M7.42001 17.5386C7.83578 17.5386 8.05966 18.005 7.7958 18.3025L8.11563 18.3105C8.34751 17.8361 7.97971 17.2812 7.42001 17.2812C6.8683 17.2812 6.50849 17.82 6.71638 18.2864L7.03621 18.2945C6.78834 17.9889 7.00423 17.5386 7.42001 17.5386Z" fill="#E0973F"/>
  <path d="M14.9998 15.9541C14.7919 15.9943 16.3031 15.7048 8.12346 17.2809C7.93156 16.2998 5.35693 3.70707 5.29297 3.39345L6.26845 0H10.4022C10.4102 0.00804136 14.9998 15.946 14.9998 15.9541Z" fill="#2A6291"/>
  <path d="M8.1238 17.2724H6.87646L7.03638 16.4844H7.96389L8.1238 17.2724Z" fill="#2A6291"/>
  <path d="M7.404 17.9481C7.26007 17.9481 7.14014 17.8275 7.14014 17.6827V16.5891C7.14014 16.3318 7.42798 16.3157 7.404 16.3238C7.54792 16.3238 7.66786 16.4444 7.66786 16.5891V17.6827C7.66786 17.8275 7.54792 17.9481 7.404 17.9481Z" fill="#E0973F"/>
  <path d="M6.87633 17.2728L0 15.954L4.59755 0H10.4025L6.87633 17.2728Z" fill="#0091C8"/>
  <path d="M12.3056 23.0624C12.3056 25.7884 10.1068 27.9998 7.3962 27.9998C4.68564 27.9998 2.48682 25.7884 2.48682 23.0624C2.48682 20.3364 4.68564 18.125 7.3962 18.125C10.1068 18.125 12.3056 20.3364 12.3056 23.0624Z" fill="#FFB10F"/>
  <path d="M11.3301 23.1271C11.3301 23.0708 11.3381 22.9743 11.3142 22.5722C11.4741 22.9823 11.8659 23.0064 11.8819 23.0225C11.8819 23.0145 11.8899 22.4114 11.2582 22.2988C11.2342 22.1701 11.2022 22.0415 11.1622 21.9128C11.3701 22.2023 11.7459 22.1943 11.7459 22.1943C11.7379 22.1862 11.666 21.6233 11.0423 21.5831C10.9863 21.4464 10.9224 21.3178 10.8504 21.1891C11.1063 21.4866 11.4981 21.4223 11.5061 21.4223C11.5061 21.4223 11.4181 21.1569 11.1942 21.0122C10.9703 20.8755 10.6905 20.9157 10.6905 20.9157C10.6025 20.787 10.5146 20.6584 10.4186 20.5458C10.7145 20.7307 11.0583 20.586 11.0583 20.586C11.0503 20.586 10.7704 20.0794 10.1708 20.2804C10.0428 20.1518 9.91491 20.0392 9.77098 19.9346C10.1068 20.0472 10.4106 19.8221 10.4106 19.8221C10.4026 19.8221 10.0109 19.4039 9.48314 19.7336C9.3632 19.6612 9.24326 19.5969 9.12333 19.5326C9.44316 19.5487 9.67503 19.2994 9.67503 19.2913C9.65904 19.2913 9.21928 18.9536 8.75552 19.3717C8.58761 19.3074 8.40371 19.2592 8.22781 19.219C8.63559 19.2029 8.81149 18.8491 8.81949 18.841C8.81149 18.841 8.25979 18.6239 7.93196 19.1707C7.78804 19.1546 7.65211 19.1466 7.50019 19.1385C7.88399 19.042 7.97994 18.6882 7.99593 18.6721C7.98793 18.6721 7.40424 18.5515 7.17237 19.1466C7.07642 19.1546 6.98847 19.1627 6.89252 19.1788C7.1084 18.9938 7.14039 18.7043 7.14039 18.6963C7.12439 18.7043 6.61267 18.6963 6.46075 19.2672C6.30883 19.3074 6.16491 19.3557 6.02098 19.412C6.21288 19.1788 6.1729 18.8651 6.1729 18.8571C6.15691 18.8732 5.64518 18.9858 5.64518 19.5808C5.51725 19.6532 5.38932 19.7256 5.26139 19.806C5.39732 19.5326 5.27738 19.227 5.27738 19.227C5.26938 19.2431 4.80563 19.4763 4.94156 20.0553C4.8696 20.1196 4.78964 20.1839 4.72567 20.2563C4.77365 19.999 4.62972 19.7577 4.62972 19.7577C4.62173 19.7738 4.22194 20.0713 4.41384 20.6021C4.33388 20.6986 4.26192 20.8031 4.18996 20.9076C4.18996 20.6342 4.00606 20.4252 3.99806 20.4252C3.99806 20.4412 3.64625 20.8192 3.95808 21.3017C3.88612 21.4384 3.83015 21.5751 3.77418 21.7198C3.72621 21.4142 3.47034 21.2534 3.47034 21.2454C3.47034 21.2615 3.21448 21.7198 3.65424 22.1219C3.62226 22.2666 3.59028 22.4194 3.57429 22.5722C3.46235 22.2827 3.15851 22.1621 3.15051 22.1621C3.15851 22.1782 3.01459 22.6928 3.5423 22.9743C3.5423 23.0708 3.5423 23.1753 3.5503 23.2798C3.39039 23.0627 3.11053 22.9984 3.10254 22.9984C3.11053 23.0145 3.05456 23.5291 3.59827 23.7302C3.61427 23.8347 3.63825 23.9473 3.67024 24.0518C3.47834 23.7784 3.13452 23.7623 3.12653 23.7623C3.13452 23.7704 3.16651 24.3413 3.79017 24.4298C3.84614 24.5665 3.90211 24.7032 3.97407 24.8318C3.70222 24.5584 3.3584 24.6469 3.34241 24.6388C3.35041 24.6469 3.51832 25.2017 4.14198 25.1294C4.3019 25.3867 4.41384 25.4993 4.46981 25.5877C4.118 25.3304 3.77418 25.5153 3.75019 25.5153C3.75819 25.5153 4.07002 26.03 4.66171 25.7887C4.75766 25.8852 4.8616 25.9817 4.97354 26.0702C4.61373 25.9174 4.32589 26.1345 4.3099 26.1426C4.31789 26.1426 4.69369 26.5929 5.2454 26.2712C5.34934 26.3436 5.46128 26.416 5.57322 26.4723C5.59721 26.4964 5.62919 26.5125 5.65318 26.5366C5.2294 26.424 4.98154 26.7296 4.95755 26.7376C4.95755 26.7376 5.18943 26.8984 5.45328 26.8743C5.71714 26.8502 5.90904 26.6492 5.90904 26.6411C6.03697 26.6974 6.1729 26.7457 6.30883 26.7859C6.34881 26.81 6.39678 26.8341 6.43676 26.8502C5.997 26.8422 5.82908 27.196 5.81309 27.2121C5.81309 27.2121 6.07695 27.3166 6.32482 27.2281C6.57269 27.1397 6.71661 26.8984 6.71661 26.8904C6.86053 26.9145 7.01245 26.9387 7.16437 26.9467C7.19636 26.9547 7.23633 26.9628 7.26832 26.9628C6.84454 27.0593 6.76459 27.4453 6.74859 27.4694C6.75659 27.4694 7.34028 27.5578 7.54817 26.9547C7.6681 26.9547 7.79604 26.9387 7.91597 26.9226C7.62813 27.0995 7.58815 27.4453 7.58815 27.4453C7.60414 27.4372 8.13985 27.4613 8.28378 26.8502C8.49966 26.802 8.71554 26.7296 8.91544 26.6492C8.65957 26.8824 8.69955 27.2442 8.69955 27.2523C8.70755 27.2442 9.25926 27.1236 9.24326 26.4964C9.5551 26.3275 9.70702 26.1989 9.731 26.1828C9.44316 26.5125 9.60307 26.8743 9.60307 26.8984C9.60307 26.8984 10.1388 26.617 9.94689 26.0059C10.1308 25.845 10.2028 25.7566 10.3467 25.6199C10.1468 26.0139 10.3867 26.3195 10.3946 26.3436C10.3946 26.3356 10.8504 25.9496 10.5146 25.3947C10.5945 25.2902 10.6665 25.1856 10.7305 25.0731C10.6665 25.4188 10.9144 25.6842 10.9144 25.6922C10.9144 25.6842 11.2822 25.258 10.8984 24.7594C10.9703 24.6147 11.0343 24.4619 11.0823 24.3091C11.0663 24.7032 11.3781 24.8881 11.3861 24.9122C11.3861 24.9042 11.666 24.3976 11.1782 23.9875C11.2502 23.698 11.2422 23.6256 11.2822 23.4165C11.3381 23.8508 11.7059 23.9714 11.7299 23.9875C11.7299 23.9875 11.7939 23.7141 11.674 23.4809C11.586 23.2316 11.3301 23.119 11.3301 23.1271ZM11.2662 23.1512C10.7145 23.4165 10.8504 23.9231 10.8424 23.9473C10.8424 23.9473 11.0823 23.8669 11.2262 23.6578C11.2102 23.7623 11.1862 23.8669 11.1622 23.9714C10.5626 24.084 10.5466 24.6388 10.5386 24.6469C10.5386 24.6469 10.8424 24.6147 11.0263 24.4056C10.9863 24.5102 10.9384 24.6147 10.8904 24.7192C10.2667 24.6951 10.1388 25.25 10.1308 25.258C10.1308 25.258 10.4506 25.2902 10.6745 25.1052C10.6185 25.1937 10.5546 25.2902 10.4906 25.3706C9.89092 25.2741 9.69902 25.7727 9.68303 25.7887C9.68303 25.7887 9.9229 25.8531 10.1468 25.7727C10.0748 25.845 10.0029 25.9094 9.9309 25.9737C9.37119 25.7325 9.06736 26.1747 9.05137 26.1828C9.05137 26.1828 9.28324 26.3114 9.53911 26.2712C9.44316 26.3356 9.34721 26.3918 9.25126 26.4401C8.76352 26.0541 8.33175 26.416 8.32375 26.416C8.33175 26.416 8.56363 26.6411 8.86746 26.617C8.69156 26.6894 8.50766 26.7457 8.31576 26.7859C8.28378 26.7376 8.13186 26.5527 7.91597 26.4883C7.66011 26.416 7.40424 26.5285 7.40424 26.5285C7.41224 26.5366 7.58815 26.81 7.90798 26.8502C7.78804 26.8663 7.6761 26.8743 7.55616 26.8743C7.24433 26.3516 6.7326 26.5205 6.71661 26.5205C6.71661 26.5205 6.81256 26.7296 7.00446 26.8502C6.90851 26.8422 6.82056 26.8261 6.72461 26.81C6.53271 26.2391 6.02898 26.2953 6.00499 26.2793C6.00499 26.2793 6.04497 26.4964 6.20488 26.6652C6.11693 26.6331 6.02098 26.6009 5.93303 26.5607C5.88505 25.9576 5.37333 25.8933 5.35734 25.8772C5.35734 25.8772 5.34934 26.1184 5.46928 26.3275C5.40531 26.2873 5.34134 26.2471 5.28537 26.2069C5.38932 25.6038 4.88559 25.3947 4.87759 25.3867C4.87759 25.3867 4.79763 25.6842 4.92557 25.9335C4.85361 25.8692 4.77365 25.7968 4.70968 25.7244C4.90158 25.1454 4.43783 24.872 4.42983 24.8559C4.42983 24.8559 4.32589 25.0891 4.37386 25.3384C4.3099 25.258 4.25392 25.1696 4.19795 25.0811C4.53378 24.5665 4.14998 24.1724 4.14998 24.1644C4.14998 24.1644 3.95808 24.4056 3.98207 24.6871C3.9341 24.5906 3.89412 24.4941 3.85414 24.3976C4.3099 23.9714 4.02205 23.505 4.02205 23.4889C4.02205 23.4889 3.75019 23.6899 3.7342 24.0277C3.71022 23.9392 3.68623 23.8427 3.67024 23.7543C3.68623 23.7623 3.9341 23.6176 4.02205 23.3683C4.11 23.119 4.02205 22.8536 4.02205 22.8536C4.01405 22.8617 3.65424 23.0547 3.64625 23.4728C3.63825 23.4487 3.63026 23.4246 3.62226 23.4005C3.60627 23.2638 3.60627 23.1351 3.60627 22.9984C3.60627 22.9984 3.87013 22.9019 3.99806 22.6687C4.12599 22.4355 4.07802 22.1621 4.07802 22.1621C4.07002 22.1701 3.71821 22.2908 3.63026 22.6526C3.64625 22.4837 3.67024 22.3229 3.71022 22.1701C3.71022 22.1701 3.99007 22.138 4.17397 21.945C4.35787 21.752 4.37386 21.4705 4.37386 21.4705C4.36587 21.4786 3.95808 21.5107 3.79017 21.8967C3.79017 21.8726 3.88612 21.5912 4.00606 21.3499C4.01405 21.366 4.3019 21.4062 4.52578 21.2615C4.74966 21.1167 4.82962 20.8514 4.82962 20.8514C4.82162 20.8514 4.41384 20.787 4.15798 21.1248C4.16597 21.0926 4.17397 21.0685 4.18196 21.0363C4.26192 20.9076 4.34987 20.779 4.44582 20.6584C4.45382 20.6825 4.73367 20.787 4.97354 20.6905C5.22141 20.586 5.35734 20.3447 5.35734 20.3447C5.34934 20.3447 4.96555 20.2 4.64572 20.4814C4.66171 20.4493 4.68569 20.4171 4.69369 20.3769C4.78164 20.2885 4.8696 20.2 4.96555 20.1196C4.96555 20.1276 5.22141 20.2643 5.47727 20.208C5.73314 20.1518 5.90105 19.9266 5.90105 19.9266C5.88506 19.9266 5.54923 19.7256 5.19742 19.9346C5.34134 19.8301 5.49326 19.7336 5.65318 19.6532C5.65318 19.6532 5.86107 19.8462 6.12493 19.8542C6.38879 19.8623 6.60467 19.6854 6.60467 19.6854C6.58868 19.6773 6.31682 19.4039 5.91704 19.5245C6.08495 19.4522 6.26085 19.3878 6.44476 19.3396C6.44476 19.3557 6.60467 19.5889 6.85254 19.6612C7.1084 19.7336 7.35627 19.613 7.35627 19.613C7.34827 19.6049 7.12439 19.2592 6.70862 19.2913C6.72461 19.2833 6.7406 19.2752 6.75659 19.2672C6.90051 19.2431 7.03644 19.227 7.18836 19.2109C7.47621 19.7497 7.98793 19.6049 8.00392 19.613C8.00392 19.613 7.89198 19.3315 7.63612 19.2109C7.74007 19.219 7.83601 19.227 7.93196 19.235C8.12386 19.814 8.66757 19.7577 8.67557 19.7658C8.67557 19.7658 8.6116 19.4924 8.40371 19.3315C8.50766 19.3637 8.6196 19.3959 8.71554 19.428C8.73953 20.0553 9.30723 20.1437 9.30723 20.1518C9.29923 20.1437 9.32322 19.7979 9.06736 19.5808C9.19529 19.6451 9.32322 19.7095 9.44316 19.7899C9.3632 20.4091 9.88292 20.586 9.89092 20.6021C9.89092 20.6021 9.96288 20.2965 9.80297 20.0472C9.91491 20.1357 10.0189 20.2322 10.1228 20.3287C9.89891 20.9076 10.3627 21.2052 10.3627 21.2213C10.3627 21.2213 10.5066 20.9318 10.4026 20.6503C10.4826 20.7549 10.5626 20.8594 10.6345 20.972C10.2987 21.4866 10.6745 21.8485 10.6745 21.8726C10.6745 21.8726 10.8664 21.6394 10.8504 21.358C10.8904 21.4384 10.9304 21.5188 10.9623 21.6072C10.5386 22.0576 10.8584 22.524 10.8584 22.532C10.8584 22.524 11.0903 22.3229 11.1063 22.0334C11.1303 22.138 11.1542 22.2345 11.1782 22.347C10.7065 22.733 10.9544 23.2075 10.9544 23.2235C10.9544 23.2235 11.1542 23.0949 11.2422 22.8778C11.2662 22.9582 11.2662 23.0547 11.2662 23.1512Z" fill="#FFEC03"/>
  <path opacity="0.74" d="M0 15.954L3.91791 16.7099C7.18817 13.1959 7.6839 4.48708 7.71589 0H4.59755L0 15.954Z" fill="#40ACD6"/>
  <path d="M10.5305 23.0621C10.5305 24.7991 9.13124 26.2063 7.40416 26.2063C5.67709 26.2063 4.27783 24.7991 4.27783 23.0621C4.27783 21.3252 5.67709 19.918 7.40416 19.918C9.13124 19.918 10.5305 21.3252 10.5305 23.0621Z" fill="#FFEC03"/>
  <path d="M8.37928 26.0546L4.66925 21.5273C4.62927 21.5997 4.5893 21.6801 4.54932 21.7605L8.12341 26.127C8.21136 26.1029 8.29932 26.0787 8.37928 26.0546Z" fill="#FFEC03"/>
  <path d="M9.51454 25.3782L5.54866 20.5293C5.30878 20.7062 5.10089 20.9153 4.91699 21.1485L8.78693 25.8768C9.05079 25.7481 9.29865 25.5793 9.51454 25.3782Z" fill="#FFEC03"/>
  <path d="M10.0584 24.7268L6.29242 20.1191C6.21247 20.1513 6.1405 20.1835 6.06055 20.2156L9.91449 24.9279C9.96247 24.8635 10.0104 24.7992 10.0584 24.7268Z" fill="#FFEC03"/>
  <path d="M10.3541 24.1005L6.95594 19.9512C6.86798 19.9673 6.77204 19.9833 6.68408 19.9994L10.2502 24.3578C10.2902 24.2774 10.3221 24.189 10.3541 24.1005Z" fill="#FFEC03"/>
</svg>
