<svg width="20" height="28" viewBox="0 0 20 28" fill="none" xmlns="http://www.w3.org/2000/svg">
  <g clip-path="url(#clip0_11197_38225)">
    <path d="M16.9222 0L13.601 7.72055H6.72754L9.78107 0H16.9222Z" fill="#892020"/>
    <path d="M13.9173 6.38867H6.47206C5.98544 6.38867 5.58398 6.77065 5.58398 7.23365V11.7479H14.8054V7.23365C14.8054 6.75907 14.4039 6.38867 13.9173 6.38867ZM14.1485 8.0439H6.0706V7.69665C6.0706 7.32625 6.3869 7.01372 6.78836 7.01372H13.4429C13.8322 7.01372 14.1606 7.31467 14.1606 7.69665V8.0439H14.1485Z" fill="#6B7384"/>
    <path d="M3.51562 0L6.7273 7.72055H13.6008L10.4743 0H3.51562Z" fill="#FA352C"/>
    <path d="M7.99289 7.72055L4.72038 0H4.19727L7.46977 7.72055H7.99289Z" fill="#FF740D"/>
    <path d="M9.59884 7.72055L6.32634 0H5.80322L9.07573 7.72055H9.59884Z" fill="#FF740D"/>
    <path d="M11.1438 7.72055L7.87126 0H7.34814L10.6207 7.72055H11.1438Z" fill="#FF740D"/>
    <path d="M12.7981 7.72055L9.53772 0H9.00244L12.2749 7.72055H12.7981Z" fill="#FF740D"/>
    <path d="M19.9117 19.7225C20.6282 14.5123 16.7701 9.73453 11.2944 9.05113C5.81858 8.36773 0.798701 12.0374 0.0821314 17.2477C-0.634438 22.4579 3.22366 27.2356 8.69943 27.9191C14.1752 28.6025 19.1951 24.9327 19.9117 19.7225Z" fill="#798093"/>
    <path d="M9.99998 8.9707C9.90265 8.9707 9.80533 8.9707 9.70801 8.9707C15.0973 9.12118 19.416 13.3229 19.416 18.4854C19.416 23.6478 15.0973 27.8496 9.70801 28.0001C9.80533 28.0001 9.90265 28.0001 9.99998 28.0001C15.5231 28.0001 20 23.7404 20 18.4854C20 13.2303 15.5231 8.9707 9.99998 8.9707Z" fill="#6B7384"/>
    <path d="M18.0803 19.4915C18.6651 15.2448 15.5209 11.3511 11.0576 10.7947C6.59423 10.2383 2.50195 13.23 1.91719 17.4767C1.33244 21.7234 4.47664 25.617 8.93997 26.1734C13.4033 26.7298 17.4956 23.7382 18.0803 19.4915Z" fill="#9EA8BA"/>
    <path d="M9.00279 23.88C9.31909 24.1231 9.40425 24.5167 9.40425 24.5167C9.40425 24.5167 8.97846 24.5282 8.64999 24.2852C8.33369 24.0421 8.24854 23.6485 8.24854 23.6485C8.24854 23.6485 8.68649 23.6369 9.00279 23.88Z" fill="#BAC6D8"/>
    <path d="M8.61364 24.5049C9.00294 24.3776 9.4044 24.5165 9.4044 24.5165C9.4044 24.5165 9.18542 24.8637 8.79612 24.9911C8.40683 25.1184 8.00537 24.9795 8.00537 24.9795C8.00537 24.9795 8.23651 24.6322 8.61364 24.5049Z" fill="#BAC6D8"/>
    <path d="M7.76175 23.5546C8.04155 23.8324 8.06588 24.2375 8.06588 24.2375C8.06588 24.2375 7.64009 24.1912 7.36029 23.9134C7.08048 23.6356 7.05615 23.2305 7.05615 23.2305C7.05615 23.2305 7.48194 23.2768 7.76175 23.5546Z" fill="#BAC6D8"/>
    <path d="M7.28726 24.1231C7.68873 24.0421 8.06586 24.2388 8.06586 24.2388C8.06586 24.2388 7.79821 24.5514 7.39675 24.6324C6.99529 24.7134 6.61816 24.5166 6.61816 24.5166C6.61816 24.5166 6.8858 24.2041 7.28726 24.1231Z" fill="#BAC6D8"/>
    <path d="M6.77648 23.0923C7.00762 23.4049 6.95896 23.81 6.95896 23.81C6.95896 23.81 6.54534 23.7058 6.31419 23.3817C6.08305 23.0692 6.13171 22.6641 6.13171 22.6641C6.13171 22.6641 6.54534 22.7798 6.77648 23.0923Z" fill="#BAC6D8"/>
    <path d="M6.21674 23.5902C6.63037 23.5787 6.971 23.8217 6.971 23.8217C6.971 23.8217 6.6547 24.0995 6.24107 24.1111C5.82745 24.1227 5.48682 23.8796 5.48682 23.8796C5.48682 23.8796 5.80312 23.6018 6.21674 23.5902Z" fill="#BAC6D8"/>
    <path d="M5.86392 22.3974C6.0099 22.7562 5.86392 23.1382 5.86392 23.1382C5.86392 23.1382 5.48679 22.9414 5.35297 22.5826C5.20698 22.2238 5.35297 21.8418 5.35297 21.8418C5.35297 21.8418 5.71793 22.0386 5.86392 22.3974Z" fill="#BAC6D8"/>
    <path d="M5.1946 22.7442C5.59606 22.8252 5.8637 23.1377 5.8637 23.1377C5.8637 23.1377 5.48658 23.3345 5.08512 23.2535C4.68366 23.1725 4.41602 22.8599 4.41602 22.8599C4.41602 22.8599 4.79314 22.6632 5.1946 22.7442Z" fill="#BAC6D8"/>
    <path d="M5.17054 21.5758C5.2192 21.9578 4.97589 22.2934 4.97589 22.2934C4.97589 22.2934 4.65959 22.0156 4.61093 21.6337C4.56227 21.2517 4.80557 20.916 4.80557 20.916C4.80557 20.916 5.12188 21.2054 5.17054 21.5758Z" fill="#BAC6D8"/>
    <path d="M4.42845 21.7725C4.79341 21.9345 4.97589 22.3049 4.97589 22.3049C4.97589 22.3049 4.56227 22.4091 4.18514 22.2471C3.82018 22.085 3.6377 21.7146 3.6377 21.7146C3.6377 21.7146 4.06349 21.6104 4.42845 21.7725Z" fill="#BAC6D8"/>
    <path d="M4.58671 20.5576C4.55022 20.9396 4.24608 21.229 4.24608 21.229C4.24608 21.229 4.00277 20.8933 4.0271 20.5229C4.0636 20.1409 4.36773 19.8516 4.36773 19.8516C4.36773 19.8516 4.61104 20.1757 4.58671 20.5576Z" fill="#BAC6D8"/>
    <path d="M3.81969 20.6035C4.14815 20.835 4.24548 21.2286 4.24548 21.2286C4.24548 21.2286 3.81969 21.2517 3.49122 21.0202C3.16275 20.7887 3.06543 20.3952 3.06543 20.3952C3.06543 20.3952 3.49122 20.372 3.81969 20.6035Z" fill="#BAC6D8"/>
    <path d="M4.2827 19.5847C4.18538 19.9551 3.83258 20.1982 3.83258 20.1982C3.83258 20.1982 3.63793 19.8393 3.73526 19.4689C3.83258 19.0985 4.18538 18.8555 4.18538 18.8555C4.18538 18.8555 4.38003 19.2143 4.2827 19.5847Z" fill="#BAC6D8"/>
    <path d="M3.5161 19.5157C3.79591 19.7935 3.8324 20.1986 3.8324 20.1986C3.8324 20.1986 3.40661 20.1523 3.11464 19.8861C2.83484 19.6083 2.79834 19.2031 2.79834 19.2031C2.79834 19.2031 3.22413 19.2379 3.5161 19.5157Z" fill="#BAC6D8"/>
    <path d="M4.24584 18.4968C4.05119 18.8325 3.64973 18.983 3.64973 18.983C3.64973 18.983 3.56457 18.5894 3.74705 18.2537C3.9417 17.9181 4.34316 17.7676 4.34316 17.7676C4.34316 17.7676 4.44048 18.1611 4.24584 18.4968Z" fill="#BAC6D8"/>
    <path d="M3.51628 18.254C3.72309 18.5897 3.6501 18.9832 3.6501 18.9832C3.6501 18.9832 3.24864 18.8443 3.04183 18.5202C2.83501 18.1846 2.90801 17.791 2.90801 17.791C2.90801 17.791 3.32163 17.9299 3.51628 18.254Z" fill="#BAC6D8"/>
    <path d="M4.45271 17.3976C4.18507 17.687 3.75928 17.7449 3.75928 17.7449C3.75928 17.7449 3.77144 17.3398 4.03908 17.0504C4.30672 16.761 4.73251 16.7031 4.73251 16.7031C4.73251 16.7031 4.72035 17.1083 4.45271 17.3976Z" fill="#BAC6D8"/>
    <path d="M3.80806 17.0044C3.92971 17.3748 3.74723 17.7452 3.74723 17.7452C3.74723 17.7452 3.38226 17.5253 3.27278 17.1549C3.15112 16.7845 3.3336 16.4141 3.3336 16.4141C3.3336 16.4141 3.6864 16.634 3.80806 17.0044Z" fill="#BAC6D8"/>
    <path d="M4.86652 16.4944C4.53805 16.7143 4.1001 16.6796 4.1001 16.6796C4.1001 16.6796 4.20959 16.286 4.53805 16.0661C4.86652 15.8462 5.30448 15.8809 5.30448 15.8809C5.30448 15.8809 5.19499 16.2745 4.86652 16.4944Z" fill="#BAC6D8"/>
    <path d="M4.3313 15.9741C4.35564 16.3561 4.10016 16.6802 4.10016 16.6802C4.10016 16.6802 3.80819 16.3908 3.78386 16.0088C3.75953 15.6268 4.015 15.3027 4.015 15.3027C4.015 15.3027 4.30697 15.5921 4.3313 15.9741Z" fill="#BAC6D8"/>
    <path d="M5.38987 15.6727C5.02491 15.8463 4.59912 15.7421 4.59912 15.7421C4.59912 15.7421 4.76944 15.3717 5.1344 15.1981C5.49936 15.0245 5.92515 15.1287 5.92515 15.1287C5.92515 15.1287 5.75484 15.5106 5.38987 15.6727Z" fill="#BAC6D8"/>
    <path d="M4.95152 15.0829C4.91503 15.4649 4.59873 15.7427 4.59873 15.7427C4.59873 15.7427 4.35542 15.407 4.39191 15.025C4.42841 14.643 4.74471 14.3652 4.74471 14.3652C4.74471 14.3652 4.98802 14.7009 4.95152 15.0829Z" fill="#BAC6D8"/>
    <path d="M11.2169 23.8332C10.9006 24.0762 10.8154 24.4698 10.8154 24.4698C10.8154 24.4698 11.2412 24.4814 11.5697 24.2383C11.886 23.9952 11.9711 23.6017 11.9711 23.6017C11.9711 23.6017 11.5332 23.5901 11.2169 23.8332Z" fill="#BAC6D8"/>
    <path d="M11.6062 24.4463C11.2169 24.319 10.8154 24.4579 10.8154 24.4579C10.8154 24.4579 11.0344 24.8051 11.4237 24.9325C11.813 25.0598 12.2145 24.9209 12.2145 24.9209C12.2145 24.9209 11.9833 24.5736 11.6062 24.4463Z" fill="#BAC6D8"/>
    <path d="M12.2997 23.5565C12.0199 23.8343 11.9956 24.2394 11.9956 24.2394C11.9956 24.2394 12.4214 24.1931 12.7012 23.9153C12.981 23.6375 13.0053 23.2324 13.0053 23.2324C13.0053 23.2324 12.5795 23.2787 12.2997 23.5565Z" fill="#BAC6D8"/>
    <path d="M12.7742 24.1231C12.3727 24.0421 11.9956 24.2388 11.9956 24.2388C11.9956 24.2388 12.2632 24.5514 12.6647 24.6324C13.0662 24.7134 13.4433 24.5166 13.4433 24.5166C13.4433 24.5166 13.1757 24.2041 12.7742 24.1231Z" fill="#BAC6D8"/>
    <path d="M13.2854 23.0591C13.0542 23.3717 13.1029 23.7768 13.1029 23.7768C13.1029 23.7768 13.5165 23.6726 13.7477 23.3485C13.9788 23.036 13.9302 22.6309 13.9302 22.6309C13.9302 22.6309 13.5165 22.7466 13.2854 23.0591Z" fill="#BAC6D8"/>
    <path d="M13.8446 23.5453C13.431 23.5337 13.0903 23.7768 13.0903 23.7768C13.0903 23.7768 13.4066 24.0546 13.8203 24.0662C14.2339 24.0778 14.5745 23.8347 14.5745 23.8347C14.5745 23.8347 14.2461 23.5685 13.8446 23.5453Z" fill="#BAC6D8"/>
    <path d="M14.1611 22.3759C14.0151 22.7347 14.1611 23.1167 14.1611 23.1167C14.1611 23.1167 14.5382 22.9199 14.672 22.5611C14.818 22.2023 14.672 21.8203 14.672 21.8203C14.672 21.8203 14.3071 22.0171 14.1611 22.3759Z" fill="#BAC6D8"/>
    <path d="M14.8424 22.7227C14.441 22.8037 14.1733 23.1162 14.1733 23.1162C14.1733 23.1162 14.5505 23.313 14.9519 23.232C15.3534 23.151 15.621 22.8384 15.621 22.8384C15.621 22.8384 15.2317 22.6417 14.8424 22.7227Z" fill="#BAC6D8"/>
    <path d="M14.8912 21.5074C14.8425 21.8894 15.0858 22.2251 15.0858 22.2251C15.0858 22.2251 15.4021 21.9473 15.4508 21.5653C15.4995 21.1833 15.2562 20.8477 15.2562 20.8477C15.2562 20.8477 14.9399 21.1255 14.8912 21.5074Z" fill="#BAC6D8"/>
    <path d="M15.6329 21.6924C15.2679 21.8545 15.0854 22.2249 15.0854 22.2249C15.0854 22.2249 15.4991 22.329 15.8762 22.167C16.2412 22.0049 16.4236 21.6345 16.4236 21.6345C16.4236 21.6345 15.9979 21.5303 15.6329 21.6924Z" fill="#BAC6D8"/>
    <path d="M15.4137 20.5342C15.4502 20.9162 15.7544 21.2056 15.7544 21.2056C15.7544 21.2056 15.9977 20.8699 15.9733 20.4995C15.9368 20.1175 15.6327 19.8281 15.6327 19.8281C15.6327 19.8281 15.3772 20.1638 15.4137 20.5342Z" fill="#BAC6D8"/>
    <path d="M16.1807 20.5815C15.8522 20.813 15.7549 21.2066 15.7549 21.2066C15.7549 21.2066 16.1807 21.2297 16.5091 20.9982C16.8376 20.7667 16.9349 20.3732 16.9349 20.3732C16.9349 20.3732 16.5091 20.3616 16.1807 20.5815Z" fill="#BAC6D8"/>
    <path d="M15.7182 19.5632C15.8155 19.9336 16.1683 20.1767 16.1683 20.1767C16.1683 20.1767 16.3629 19.8179 16.2656 19.4475C16.1683 19.0771 15.8155 18.834 15.8155 18.834C15.8155 18.834 15.6208 19.1928 15.7182 19.5632Z" fill="#BAC6D8"/>
    <path d="M16.4848 19.4922C16.205 19.77 16.1685 20.1751 16.1685 20.1751C16.1685 20.1751 16.5942 20.1288 16.8862 19.8626C17.166 19.5848 17.2025 19.1797 17.2025 19.1797C17.2025 19.1797 16.7646 19.2144 16.4848 19.4922Z" fill="#BAC6D8"/>
    <path d="M15.755 18.5085C15.9496 18.8442 16.3511 18.9947 16.3511 18.9947C16.3511 18.9947 16.4362 18.6011 16.2537 18.2654C16.0591 17.9298 15.6576 17.7793 15.6576 17.7793C15.6576 17.7793 15.5603 18.1728 15.755 18.5085Z" fill="#BAC6D8"/>
    <path d="M16.4725 18.2657C16.2657 18.6014 16.3387 18.995 16.3387 18.995C16.3387 18.995 16.7401 18.8561 16.9469 18.532C17.1538 18.1963 17.0808 17.8027 17.0808 17.8027C17.0808 17.8027 16.6793 17.9416 16.4725 18.2657Z" fill="#BAC6D8"/>
    <path d="M15.5357 17.4093C15.8033 17.6987 16.2291 17.7566 16.2291 17.7566C16.2291 17.7566 16.2169 17.3515 15.9493 17.0621C15.6817 16.7727 15.2559 16.7148 15.2559 16.7148C15.2559 16.7148 15.268 17.12 15.5357 17.4093Z" fill="#BAC6D8"/>
    <path d="M16.1805 17.0161C16.0588 17.3865 16.2413 17.7569 16.2413 17.7569C16.2413 17.7569 16.6063 17.537 16.7158 17.1666C16.8374 16.7962 16.6549 16.4258 16.6549 16.4258C16.6549 16.4258 16.29 16.6573 16.1805 17.0161Z" fill="#BAC6D8"/>
    <path d="M15.1342 16.5178C15.4627 16.7377 15.9007 16.703 15.9007 16.703C15.9007 16.703 15.7912 16.3095 15.4627 16.0895C15.1342 15.8696 14.6963 15.9043 14.6963 15.9043C14.6963 15.9043 14.7936 16.2979 15.1342 16.5178Z" fill="#BAC6D8"/>
    <path d="M15.6574 16.0092C15.6331 16.3912 15.8885 16.7153 15.8885 16.7153C15.8885 16.7153 16.1805 16.4259 16.2048 16.044C16.2292 15.662 15.9737 15.3379 15.9737 15.3379C15.9737 15.3379 15.6817 15.6273 15.6574 16.0092Z" fill="#BAC6D8"/>
    <path d="M14.5743 15.7078C14.9393 15.8815 15.3651 15.7773 15.3651 15.7773C15.3651 15.7773 15.1948 15.4069 14.8298 15.2333C14.4649 15.0596 14.0391 15.1638 14.0391 15.1638C14.0391 15.1638 14.2094 15.5458 14.5743 15.7078Z" fill="#BAC6D8"/>
    <path d="M15.0125 15.118C15.049 15.5 15.3653 15.7778 15.3653 15.7778C15.3653 15.7778 15.6086 15.4421 15.5721 15.0602C15.5356 14.6782 15.2193 14.4004 15.2193 14.4004C15.2193 14.4004 14.976 14.7476 15.0125 15.118Z" fill="#BAC6D8"/>
    <path d="M14.2823 14.5508C14.2701 14.5624 14.2458 14.5855 14.2214 14.5971C14.2093 14.5971 14.2093 14.6087 14.1971 14.6087C15.4745 15.6504 16.2774 17.1436 16.2774 18.8104C16.2774 21.9357 13.455 24.4706 9.97569 24.4706C6.49637 24.4706 3.67398 21.9357 3.67398 18.8104C3.67398 17.213 4.41608 15.7777 5.59613 14.7476C5.55963 14.736 5.52313 14.7244 5.4988 14.7128C4.31875 15.7546 3.57666 17.213 3.57666 18.8104C3.57666 21.982 6.44771 24.5632 9.97569 24.5632C13.5037 24.5632 16.3747 21.982 16.3747 18.8104C16.3869 17.1204 15.5718 15.6041 14.2823 14.5508Z" fill="#BAC6D8"/>
    <path d="M6.24099 14.9556C5.83953 15.0366 5.4624 14.8514 5.4624 14.8514C5.4624 14.8514 5.73004 14.5273 6.1315 14.4463C6.53296 14.3653 6.91009 14.5505 6.91009 14.5505C6.91009 14.5505 6.63028 14.8746 6.24099 14.9556Z" fill="#BAC6D8"/>
    <path d="M5.96143 14.2838C5.82761 14.6426 5.45048 14.8509 5.45048 14.8509C5.45048 14.8509 5.30449 14.469 5.43831 14.1101C5.57213 13.7513 5.94926 13.543 5.94926 13.543C5.94926 13.543 6.10741 13.9249 5.96143 14.2838Z" fill="#BAC6D8"/>
    <path d="M13.7716 14.9556C14.1731 15.0366 14.5502 14.8514 14.5502 14.8514C14.5502 14.8514 14.2826 14.5273 13.8811 14.4463C13.4797 14.3653 13.1025 14.5505 13.1025 14.5505C13.1025 14.5505 13.3702 14.8746 13.7716 14.9556Z" fill="#BAC6D8"/>
    <path d="M14.0394 14.2838C14.1732 14.6426 14.5503 14.8509 14.5503 14.8509C14.5503 14.8509 14.6963 14.469 14.5625 14.1101C14.4287 13.7513 14.0516 13.543 14.0516 13.543C14.0516 13.543 13.9056 13.9249 14.0394 14.2838Z" fill="#BAC6D8"/>
  </g>
  <defs>
    <clipPath id="clip0_11197_38225">
      <rect width="20" height="28" fill="white"/>
    </clipPath>
  </defs>
</svg>
