<svg width="22" height="22" viewBox="0 0 22 22" fill="none" xmlns="http://www.w3.org/2000/svg">
<path d="M2.75 0C1.23122 0 0 1.23122 0 2.75V19.25C0 20.7688 1.23122 22 2.75 22H19.25C20.7688 22 22 20.7688 22 19.25V2.75C22 1.23122 20.7688 0 19.25 0H2.75ZM7.55746 8.29498C7.36987 8.29498 7.21534 8.14325 7.22578 7.95595C7.35575 5.62459 9.26518 4.8125 11.0074 4.8125C12.9276 4.8125 14.6819 5.81622 14.6819 7.89349C14.6819 9.37726 13.8091 10.0842 12.9712 10.7214C11.9588 11.4894 11.5835 11.7775 11.5835 12.7637V12.9088C11.5835 13.0986 11.4296 13.2525 11.2397 13.2525H10.1246C9.93655 13.2525 9.78342 13.1015 9.78084 12.9135L9.77676 12.6154C9.72439 11.3411 10.4575 10.5555 11.3827 9.88348C12.1944 9.27252 12.7094 8.87103 12.7094 7.99823C12.7094 6.86359 11.8453 6.39227 10.9027 6.39227C9.79894 6.39227 9.17975 7.04987 9.05744 7.95205C9.03193 8.14018 8.88098 8.29498 8.69113 8.29498H7.55746ZM10.7543 17.1539C9.95132 17.1539 9.36654 16.6128 9.36654 15.8796C9.36654 15.1203 9.95132 14.5879 10.7543 14.5879C11.5922 14.5879 12.1682 15.1203 12.1682 15.8796C12.1682 16.6128 11.5922 17.1539 10.7543 17.1539Z" fill="#ff6968"/>
</svg>
