<svg width="27" height="27" viewBox="0 0 27 27" fill="none" xmlns="http://www.w3.org/2000/svg">
<path d="M24.4021 5.49742C24.2861 3.98969 23.1263 2.71392 21.5026 2.59794C19.183 2.36598 15.9356 2.25 13.5 2.25C11.0644 2.25 7.81701 2.36598 5.49742 2.59794C4.68557 2.59794 3.98969 2.94588 3.52577 3.52577C3.06186 4.10567 2.71392 4.68557 2.59794 5.49742C2.36598 7.81701 2.25 11.0644 2.25 13.5C2.25 15.9356 2.48196 19.183 2.59794 21.5026C2.71392 23.0103 3.87371 24.2861 5.49742 24.4021C7.81701 24.634 11.0644 24.75 13.5 24.75C15.9356 24.75 19.183 24.518 21.5026 24.4021C23.0103 24.2861 24.2861 23.1263 24.4021 21.5026C24.634 19.183 24.75 15.9356 24.75 13.5C24.75 11.0644 24.634 7.81701 24.4021 5.49742ZM9.78866 18.1392C9.78866 18.6031 9.44072 19.067 8.86082 19.067C8.28093 19.067 7.93299 18.6031 7.93299 18.1392V8.86082C7.93299 8.39691 8.28093 7.93299 8.86082 7.93299C9.44072 7.93299 9.78866 8.39691 9.78866 8.86082V18.1392ZM14.4278 18.1392C14.4278 18.6031 14.0799 19.067 13.5 19.067C12.9201 19.067 12.5722 18.7191 12.5722 18.1392V13.5C12.5722 13.0361 12.9201 12.5722 13.5 12.5722C14.0799 12.5722 14.4278 12.9201 14.4278 13.5V18.1392ZM19.067 18.1392C19.067 18.6031 18.7191 19.067 18.1392 19.067C17.5593 19.067 17.2113 18.7191 17.2113 18.1392V8.86082C17.2113 8.39691 17.5593 7.93299 18.1392 7.93299C18.7191 7.93299 19.067 8.28093 19.067 8.86082V18.1392Z" fill="#4778EC"/>
</svg>
