<svg width="22" height="28" viewBox="0 0 22 28" fill="none" xmlns="http://www.w3.org/2000/svg">
  <g clip-path="url(#clip0_11197_38197)">
    <path d="M11.0178 4.13437C15.6942 4.13437 19.4494 7.88406 19.4494 12.4748H22.0001C22.0001 6.4823 17.0758 1.57617 10.9824 1.57617L11.0178 4.13437Z" fill="#F35251"/>
    <path d="M11.0177 4.13437V1.57617C4.92431 1.57617 0 6.4823 0 12.4748H2.55072C2.55072 7.84901 6.34138 4.13437 11.0177 4.13437Z" fill="#FF6968"/>
    <path d="M11.0174 25.2315L4.39258 28V0H11.0174V25.2315Z" fill="#57D8FC"/>
    <path d="M17.6424 28L11.0176 25.2315V0H17.6424V28Z" fill="#2DCEFB"/>
    <path d="M19.4491 12.5116C19.4491 17.1374 15.6585 20.852 11.0176 20.852V23.3752C17.0755 23.3752 22.0353 18.5041 22.0353 12.4765H19.4491V12.5116Z" fill="#F35251"/>
    <path d="M2.55072 12.4766H0C0 18.5041 4.92431 23.3752 11.0177 23.3752V20.852C6.34138 20.817 2.55072 17.1023 2.55072 12.4766Z" fill="#FF6968"/>
    <path d="M5.95175 2.73438L6.19974 3.22499L6.73114 3.29508L6.34145 3.68056L6.4123 4.20622L5.95175 3.96091L5.45578 4.20622L5.56206 3.68056L5.17236 3.29508L5.70376 3.22499L5.95175 2.73438Z" fill="#FF6968"/>
    <path d="M10.9827 0.806641L11.4786 1.82291L12.6123 1.96309L11.7975 2.76909L11.9746 3.85545L10.9827 3.32979L9.99071 3.85545L10.1678 2.76909L9.35303 1.96309L10.4867 1.82291L10.9827 0.806641Z" fill="#FF6968"/>
    <path d="M16.0482 2.73438L15.8002 3.22499L15.2334 3.29508L15.6585 3.68056L15.5522 4.20622L16.0482 3.96091L16.5088 4.20622L16.4379 3.68056L16.8276 3.29508L16.2962 3.22499L16.0482 2.73438Z" fill="#FF6968"/>
    <path d="M8.781 9.7V16H7.323V10.87H6.063V9.7H8.781ZM12.5754 16.108C12.0534 16.108 11.5884 15.979 11.1804 15.721C10.7724 15.463 10.4514 15.091 10.2174 14.605C9.98941 14.113 9.87541 13.528 9.87541 12.85C9.87541 12.172 9.98941 11.59 10.2174 11.104C10.4514 10.612 10.7724 10.237 11.1804 9.979C11.5884 9.721 12.0534 9.592 12.5754 9.592C13.0974 9.592 13.5624 9.721 13.9704 9.979C14.3784 10.237 14.6964 10.612 14.9244 11.104C15.1584 11.59 15.2754 12.172 15.2754 12.85C15.2754 13.528 15.1584 14.113 14.9244 14.605C14.6964 15.091 14.3784 15.463 13.9704 15.721C13.5624 15.979 13.0974 16.108 12.5754 16.108ZM12.5754 14.875C12.9594 14.875 13.2594 14.71 13.4754 14.38C13.6974 14.05 13.8084 13.54 13.8084 12.85C13.8084 12.16 13.6974 11.65 13.4754 11.32C13.2594 10.99 12.9594 10.825 12.5754 10.825C12.1974 10.825 11.8974 10.99 11.6754 11.32C11.4594 11.65 11.3514 12.16 11.3514 12.85C11.3514 13.54 11.4594 14.05 11.6754 14.38C11.8974 14.71 12.1974 14.875 12.5754 14.875Z" fill="black"/>
  </g>
  <defs>
    <clipPath id="clip0_11197_38197">
      <rect width="22" height="28" fill="white"/>
    </clipPath>
  </defs>
</svg>
